<svg width="50" height="40" viewBox="0 0 50 40" fill="none" xmlns="http://www.w3.org/2000/svg">
<path d="M24.7798 40.0003C22.0543 39.5216 19.3187 39.091 16.6084 38.5388C15.8029 38.3741 15.0456 37.9157 14.3085 37.5256C12.8318 36.7226 11.8996 35.6258 12.1935 33.759C12.4468 32.1379 12.429 30.4662 12.7228 28.8628C13.1433 26.5553 14.4706 24.8328 16.692 23.9894C18.1167 23.4796 19.5738 23.0658 21.0538 22.7507C21.4923 22.6939 21.9357 22.8102 22.2899 23.075C23.03 23.6418 23.9371 23.9473 24.8694 23.9437C25.8016 23.94 26.7063 23.6274 27.442 23.0547C27.7282 22.8343 28.1613 22.7837 28.5387 22.7127C28.7493 22.6998 28.9605 22.7255 29.1618 22.7887C35.1194 23.9666 36.8215 25.841 37.4092 31.8669C37.4447 32.2443 37.4573 32.6268 37.4675 33.0042C37.551 36.1476 37.0926 36.8847 34.1417 38.1487C31.1907 39.4126 28.0321 39.6938 24.8507 39.6887L24.7798 40.0003ZM24.8026 38.06L24.871 37.6573C25.6714 37.6573 26.4769 37.7105 27.2748 37.6573C29.6735 37.4673 32.057 37.1912 34.2278 36.0058C35.1194 35.5195 35.6589 34.9293 35.5069 33.8097C35.3448 32.6015 35.3524 31.3704 35.2258 30.1572C34.9725 27.7255 33.706 26.1044 31.3123 25.4205C30.788 25.271 30.2662 25.0127 29.7368 24.9924C29.0635 24.929 28.3844 25.0155 27.7484 25.2457C26.0387 26.0056 24.2301 26.3526 22.6242 25.4458C20.9727 24.5137 19.5847 25.0026 18.0776 25.5041C15.9904 26.2032 14.8075 27.6698 14.501 29.8279C14.3514 30.8692 14.2558 31.9175 14.2148 32.9688C14.1261 35.3472 14.2376 35.7905 16.5502 36.444C19.2503 37.2064 22.0366 37.5408 24.8026 38.06Z" fill="#333333"/>
<path d="M31.9862 13.2115C32.11 15.2505 31.5619 17.2738 30.4258 18.9715C27.4724 23.313 21.8467 23.2421 19.1288 18.746C17.1277 15.438 17.2493 11.907 18.6728 8.42164C19.0146 7.64913 19.5656 6.98759 20.2636 6.51178C22.7965 4.78429 25.6107 4.79189 28.3691 5.86587C30.8666 6.84613 31.6315 9.10807 31.9152 11.5651C31.9634 12.1172 31.9583 12.6694 31.9862 13.2115ZM19.6759 13.3305C19.6987 13.7105 19.6936 14.3868 19.7874 15.053C20.1698 17.8088 22.3051 20.0632 24.6 20.1721C26.9709 20.2861 29.2227 18.5054 29.6989 15.633C29.9978 13.8194 29.7673 11.8791 29.5393 10.025C29.3975 8.86237 28.5261 8.03663 27.3736 7.58069C23.2145 5.91906 19.952 7.9733 19.7215 12.3933C19.7088 12.6188 19.7012 12.829 19.6759 13.3356V13.3305Z" fill="#333333"/>
<path d="M32.9614 7.01314C32.9614 6.8029 32.9614 6.59267 32.9614 6.38243C33.088 1.38488 37.0344 -1.28994 41.6824 0.624983C42.7184 1.05052 43.8177 2.01052 44.2762 3.00598C45.5705 5.81251 45.5654 8.75836 43.9595 11.4889C41.6064 15.4859 36.543 15.5417 34.1797 11.5624C33.397 10.2401 33.1336 8.61145 32.6321 7.12206L32.9614 7.01314ZM43.4301 7.09166L43.192 6.95995C43.1061 6.12397 42.9776 5.29292 42.807 4.47004C42.4372 3.02877 41.3936 2.29674 39.9549 2.19036C38.2958 2.06878 36.586 1.98012 35.5678 3.69495C34.4913 5.51109 34.7927 9.26749 36.0896 10.9418C37.7006 13.0416 40.5198 13.0897 41.956 10.8785C42.6753 9.76648 42.9514 8.36321 43.4301 7.09166V7.09166Z" fill="#333333"/>
<path d="M4.58981 6.99279C4.58981 6.78255 4.58981 6.56978 4.58981 6.35955C4.72913 1.36959 8.70843 -1.30523 13.3311 0.63503C14.4378 1.11621 15.348 1.9594 15.9122 3.02616C16.5394 4.29827 16.8529 5.70208 16.8265 7.12017C16.8001 8.53827 16.4344 9.92942 15.7602 11.1773C14.6685 13.2746 12.9258 14.5562 10.4992 14.4701C8.07265 14.384 6.37809 13.0187 5.4181 10.8834C4.87857 9.68534 4.6962 8.32767 4.35425 7.04092L4.58981 6.99279ZM15.0662 6.99279L14.8129 6.86108C14.6913 6.07079 14.6305 5.2653 14.4329 4.49781C14.0733 3.10468 13.1057 2.30173 11.6061 2.18774C9.94958 2.06363 8.23476 1.95724 7.20384 3.66193C6.0868 5.50341 6.40849 9.31046 7.76363 11.0076C9.37713 13.0339 12.1305 13.0719 13.5489 10.8986C14.3063 9.76387 14.5799 8.31247 15.0662 7.00039V6.99279Z" fill="#333333"/>
<path d="M16.8238 17.6262C15.2737 16.9702 13.8299 16.6789 12.11 17.4236C11.0968 17.8618 9.577 17.5882 8.45236 17.1981C6.36772 16.4788 3.21164 17.5882 2.62652 19.7311C2.19339 21.2889 2.11993 22.9708 2.1022 24.602C2.1022 25.0276 2.8013 25.7292 3.2927 25.8508C5.36213 26.3574 7.46957 26.7322 9.57447 27.0793C10.309 27.1983 11.0816 27.097 12.039 27.097L11.5629 29.0296C8.25479 29.1867 5.05818 28.9486 2.07687 27.3984C0.655871 26.6588 -0.225603 25.6253 0.0504905 23.8649C0.227799 22.6997 0.207535 21.5042 0.392442 20.3415C0.838245 17.4945 2.67212 15.924 5.352 15.2427C6.66915 14.9083 7.90777 14.2928 9.36423 15.3769C10.0051 15.8531 11.6439 15.6809 12.4038 15.1667C13.8552 14.1535 15.0128 15.0172 16.1653 15.3997C16.6719 15.5669 16.8492 16.7017 17.1785 17.3957L16.8238 17.6262Z" fill="#1562D9"/>
<path d="M32.5081 17.3656C32.8525 16.6791 33.0526 15.5595 33.5668 15.3898C34.7193 15.0099 35.958 14.0195 37.2954 15.2404C38.1617 16.0332 39.9575 15.8306 40.9758 15.1289C41.3304 14.8756 41.8421 14.8579 42.2904 14.7693C42.4592 14.7696 42.6265 14.8005 42.7843 14.8604C47.564 15.8027 49.0382 17.4162 49.5524 22.2593C49.9425 25.9219 49.2637 27.196 45.715 28.1661C43.3112 28.8247 40.7706 28.9792 38.225 29.3693L37.6652 27.2441C39.6637 27.0871 41.5609 27.039 43.4226 26.7705C47.4627 26.1904 48.0453 25.3419 47.4551 21.2866C47.0524 18.5333 45.259 16.902 42.4981 16.8514C42.0862 16.8888 41.6866 17.0122 41.3253 17.2136C39.9474 17.8266 38.4656 18.0089 37.1586 17.3402C35.9048 16.6994 34.8333 16.8843 33.6682 17.3174C33.3946 17.4213 33.1134 17.5023 32.8348 17.5935L32.5081 17.3656Z" fill="#1562D9"/>
</svg>
