<svg width="41" height="40" viewBox="0 0 41 40" fill="none" xmlns="http://www.w3.org/2000/svg">
<path d="M0.00469171 16.5641C0.5359 15.4142 1.39208 14.8814 2.68729 15.0736C2.88884 15.1033 3.21694 14.9174 3.34193 14.7299C3.53256 14.4178 3.80311 14.1623 4.12558 13.9898C4.44805 13.8173 4.81074 13.7341 5.17616 13.7487C6.94634 13.7612 8.71807 13.7253 10.4882 13.7722C10.9273 13.7831 11.4538 13.9284 11.7725 14.1987C12.1959 14.5627 12.5756 14.5705 13.0521 14.4799C18.4408 13.4566 23.2888 11.3677 27.1557 7.33984C27.5494 6.9305 28.0134 6.75239 28.5618 6.97268C29.1446 7.20235 29.3727 7.66482 29.3712 8.26789C29.3712 10.3505 29.3446 12.4332 29.3805 14.5174C29.3961 14.6826 29.4458 14.8427 29.5265 14.9877C29.6072 15.1326 29.7171 15.2593 29.8492 15.3595C32.5647 17.2 32.5537 20.9513 29.8305 22.7824C29.6981 22.8831 29.5881 23.0103 29.5074 23.1558C29.4267 23.3013 29.3771 23.462 29.3618 23.6276C29.3165 25.6056 29.3227 27.5836 29.3274 29.5647C29.3274 30.2552 29.2368 30.8833 28.4931 31.1646C27.7869 31.4317 27.3135 31.0396 26.8589 30.5677C23.0045 26.5727 18.1955 24.4604 12.8224 23.4698C12.6318 23.4339 12.31 23.4136 12.2397 23.5151C11.5897 24.4526 10.607 24.4041 9.51645 24.3838C10.1555 25.8634 10.7476 27.243 11.346 28.6194C12.1881 30.5521 12.1647 30.6083 10.1633 31.3192C9.18366 31.6661 8.20874 32.0301 7.22444 32.3645C6.24014 32.6988 5.67144 32.2082 5.90267 31.2005C6.41044 28.9913 6.34326 26.8602 5.14804 24.8604C5.04649 24.6901 4.93399 24.4369 4.784 24.3995C4.43848 24.328 4.11496 24.1752 3.84026 23.9538C3.56557 23.7323 3.3476 23.4486 3.20444 23.1261C3.14976 23.0105 2.83884 22.9371 2.66542 22.9699C1.41551 23.1714 0.565581 22.6574 0 21.5747L0.00469171 16.5641ZM28.0744 30.01V8.18352C23.7482 12.6347 18.4345 14.7939 12.5615 15.8314V22.1387C18.5267 23.1699 23.7966 25.4728 28.0744 30.01ZM11.2538 19.0624C11.2538 18.0218 11.2351 16.9828 11.2538 15.9376C11.2679 15.2877 11.0257 14.9814 10.3445 14.9892C8.65402 15.0111 6.96404 15.0111 5.27459 14.9892C4.59183 14.9814 4.3606 15.2923 4.36529 15.9407C4.38403 18.0239 4.38403 20.1034 4.36529 22.1793C4.36529 22.834 4.59808 23.1355 5.27616 23.1277C6.96457 23.1079 8.65402 23.1079 10.3445 23.1277C11.0257 23.1371 11.2679 22.8293 11.2538 22.1793C11.2413 21.1419 11.2523 20.1029 11.2538 19.0624ZM6.32452 24.4541C7.55879 26.5134 7.63847 28.6726 7.22757 31.0286L10.5226 29.8506C9.8883 28.3851 9.30397 27.0305 8.71495 25.6759C8.12594 24.3213 8.11812 24.3057 6.61355 24.3791C6.51544 24.3967 6.41881 24.4218 6.32452 24.4541ZM3.0982 21.6637V16.3891C2.77322 16.3626 2.47325 16.3282 2.16077 16.3141C1.57801 16.2845 1.27646 16.5922 1.26865 17.1516C1.2499 18.4015 1.24522 19.6514 1.26865 20.9013C1.26865 21.4606 1.58113 21.7637 2.16702 21.7215C2.44356 21.6981 2.72792 21.6872 3.0982 21.6684V21.6637ZM29.4008 21.4247C31.0226 20.2857 31.021 17.8062 29.4008 16.7001V21.4247Z" fill="#333333"/>
<path d="M29.6898 0.00312304C30.0288 0.371844 30.0492 0.765563 29.8226 1.20772C29.6476 1.55456 29.5226 1.92485 29.3726 2.2842C28.9883 3.19194 28.6149 3.25131 27.8931 2.48105C26.7025 3.33724 25.5042 4.19967 24.309 5.05898C23.934 5.33083 23.5512 5.48238 23.2419 5.00586C22.9591 4.56995 23.2419 4.2856 23.5856 4.04031C24.7433 3.20912 25.8979 2.37325 27.0478 1.5405C26.7541 0.504646 26.876 0.328096 27.9306 0.176545C28.2071 0.137485 28.4774 0.0593704 28.7524 0L29.6898 0.00312304Z" fill="#1562D9"/>
<path d="M28.7525 39.9997C28.4275 39.9325 28.1041 39.8528 27.7775 39.7981C26.8557 39.6419 26.7245 39.4138 27.101 38.4998C25.9355 37.6577 24.7434 36.8312 23.5982 35.9438C23.3716 35.7672 23.1467 35.2891 23.231 35.0704C23.4482 34.5079 23.8997 34.6454 24.3106 34.9423C25.4866 35.7943 26.6636 36.6416 27.8416 37.4843C28.779 36.7281 28.9884 36.7906 29.4634 37.9342C29.6024 38.2686 29.8071 38.5998 29.8461 38.9467C29.8852 39.2935 29.7493 39.6482 29.6899 39.9997H28.7525Z" fill="#1562D9"/>
<path d="M40.0017 0.94055C39.8455 1.23271 39.6705 1.51707 39.533 1.81861C39.2955 2.35294 39.0299 2.7451 38.355 2.34981C38.2472 2.28576 37.9784 2.40762 37.83 2.50605C37.0561 3.03518 36.2921 3.57732 35.538 4.13249C35.1787 4.39497 34.8209 4.50902 34.5162 4.10593C34.2115 3.70284 34.4428 3.37786 34.7959 3.12632C35.388 2.70135 35.9848 2.28419 36.5754 1.85767C36.9785 1.56394 37.491 1.36083 37.3566 0.671821C37.3316 0.546831 37.6691 0.304662 37.8691 0.193733C38.1039 0.10107 38.3488 0.0360561 38.5987 0H40.0048L40.0017 0.94055Z" fill="#1562D9"/>
<path d="M38.5954 39.9995C38.3717 39.9625 38.1524 39.9028 37.9408 39.8214C37.7236 39.7152 37.3533 39.5089 37.3705 39.3996C37.508 38.4949 36.7455 38.3059 36.2534 37.9169C35.7612 37.5278 35.1956 37.2325 34.7519 36.8029C34.5566 36.6154 34.5848 36.1967 34.5098 35.8842C34.8332 35.8623 35.2363 35.7061 35.4628 35.8436C36.2831 36.342 37.0393 36.9466 37.8314 37.4919C37.9798 37.595 38.2485 37.7169 38.3563 37.6481C39.0313 37.2513 39.2938 37.6481 39.5344 38.1778C39.6703 38.4809 39.8469 38.7652 40.0031 39.0574V39.9948L38.5954 39.9995Z" fill="#1562D9"/>
<path d="M20.311 31.5619C20.311 31.932 20.2014 32.2939 19.9961 32.6018C19.7907 32.9098 19.4988 33.1501 19.1572 33.2925C18.8155 33.4348 18.4393 33.4728 18.0761 33.4018C17.7128 33.3307 17.3787 33.1537 17.1159 32.893C16.8531 32.6324 16.6733 32.2998 16.5992 31.9371C16.5251 31.5745 16.56 31.198 16.6995 30.8552C16.8391 30.5123 17.0769 30.2184 17.3832 30.0106C17.6894 29.8027 18.0504 29.6901 18.4205 29.687C18.9196 29.6858 19.3988 29.8824 19.7531 30.2338C20.1075 30.5853 20.3081 31.0628 20.311 31.5619ZM18.4127 32.4493C18.7252 32.0493 19.047 31.8025 19.0142 31.6166C18.9733 31.4745 18.8998 31.344 18.7994 31.2354C18.699 31.1269 18.5746 31.0434 18.4361 30.9916C18.2955 30.951 17.8768 31.3197 17.8659 31.5197C17.8534 31.7572 18.1408 32.015 18.4127 32.4493Z" fill="#333333"/>
<path d="M20.3031 8.47271C20.2982 8.71974 20.2446 8.96338 20.1452 9.18961C20.0459 9.41584 19.9028 9.6202 19.7242 9.79094C19.5457 9.96169 19.3351 10.0955 19.1046 10.1845C18.8742 10.2736 18.6284 10.3163 18.3814 10.3101C18.1352 10.3057 17.8922 10.2528 17.6664 10.1545C17.4407 10.0562 17.2365 9.9144 17.0655 9.73718C16.7202 9.37928 16.5312 8.89887 16.5401 8.40162C16.549 7.90438 16.7551 7.43104 17.113 7.08574C17.4709 6.74044 17.9513 6.55145 18.4485 6.56036C18.6962 6.56299 18.9409 6.61468 19.1685 6.71244C19.3961 6.81019 19.6021 6.95207 19.7745 7.12988C19.947 7.3077 20.0825 7.51792 20.1732 7.7484C20.2639 7.97889 20.3081 8.22506 20.3031 8.47271V8.47271ZM18.4673 7.54778C18.1658 7.96494 17.8627 8.20242 17.8595 8.44302C17.8595 8.64457 18.2048 8.85081 18.397 9.05391C18.6157 8.84924 18.9516 8.67269 19.011 8.42896C19.0626 8.2446 18.7532 7.97431 18.4735 7.54778H18.4673Z" fill="#333333"/>
<path d="M35.2926 18.4422C35.7848 18.4422 36.2925 18.3687 36.7628 18.4703C37.0362 18.5281 37.2471 18.8687 37.4878 19.0827C37.2612 19.2827 37.0456 19.6421 36.8081 19.6577C35.7999 19.7233 34.7885 19.7233 33.7802 19.6577C33.5537 19.6436 33.3521 19.2609 33.1396 19.0484C33.3646 18.8468 33.5662 18.5234 33.8209 18.4734C34.2943 18.3765 34.8005 18.4437 35.2926 18.4422Z" fill="#333333"/>
<path d="M35.9738 14.6251C35.9097 14.8032 35.9019 14.9235 35.8378 14.9907C35.1519 15.6922 34.477 16.4062 33.7458 17.0577C33.6208 17.1702 33.1537 17.0968 33.0193 16.9499C32.8849 16.8031 32.849 16.3515 32.9724 16.2125C33.592 15.5187 34.247 14.8575 34.9348 14.2314C35.027 14.1735 35.1312 14.1373 35.2395 14.1257C35.3478 14.114 35.4573 14.1272 35.5597 14.1642C35.7425 14.2345 35.8519 14.4783 35.9738 14.6251Z" fill="#333333"/>
<path d="M35.9581 23.5168C35.8534 23.6449 35.7456 23.8886 35.5675 23.9605C35.4638 23.9979 35.353 24.0113 35.2434 23.9997C35.1337 23.988 35.0282 23.9517 34.9347 23.8933C34.2464 23.2672 33.5909 22.606 32.9708 21.9122C32.8474 21.7716 32.8911 21.3482 33.0177 21.1669C33.1161 21.0232 33.5754 20.9279 33.6785 21.0232C34.4394 21.7169 35.1503 22.4637 35.8659 23.2012C35.9268 23.2527 35.9143 23.3512 35.9581 23.5168Z" fill="#333333"/>
<path d="M22.4906 6.2402C22.0219 6.5433 21.7781 6.83702 21.5391 6.82765C21.336 6.81984 20.9985 6.46518 20.9954 6.25895C20.9923 6.05271 21.3235 5.68868 21.5235 5.67618C21.7609 5.66368 22.0219 5.9496 22.4906 6.2402Z" fill="#333333"/>
<path d="M21.5031 34.6906C21.2141 34.25 20.9266 34.0032 20.9376 33.7688C20.9485 33.561 21.2875 33.3688 21.4828 33.1704C21.6922 33.386 22.0156 33.5751 22.075 33.8266C22.1172 34.0032 21.8 34.2641 21.5031 34.6906Z" fill="#333333"/>
<path d="M33.8506 5.29319C33.4132 5.56817 33.1554 5.85565 32.9132 5.84159C32.7132 5.83065 32.5335 5.46506 32.3445 5.25726C32.5648 5.0604 32.7663 4.7448 33.0116 4.70574C33.2022 4.67449 33.4475 4.99321 33.8506 5.29319Z" fill="#333333"/>
<path d="M33.7706 34.7397C33.3769 35.0615 33.1597 35.3787 32.9473 35.3756C32.7348 35.3724 32.5067 35.0631 32.2864 34.8834C32.4801 34.6553 32.6379 34.3131 32.8801 34.2381C33.0551 34.185 33.341 34.4834 33.7706 34.7397Z" fill="#333333"/>
<path d="M7.75877 19.9485C7.49941 19.5048 7.21975 19.2392 7.24006 18.9986C7.25724 18.7986 7.68846 18.4455 7.8322 18.4908C7.96917 18.5471 8.09085 18.6351 8.18726 18.7475C8.28367 18.86 8.35206 18.9937 8.38684 19.1376C8.41184 19.3251 8.07593 19.561 7.75877 19.9485Z" fill="#333333"/>
</svg>
