<svg width="43" height="40" viewBox="0 0 43 40" fill="none" xmlns="http://www.w3.org/2000/svg">
<path d="M14.5215 5.13494C14.4697 5.30052 14.4336 5.4706 14.4139 5.64289C14.3966 8.50726 12.2473 8.83189 10.196 8.45952C9.16749 8.26856 8.36776 7.25839 8.41582 6.13747C8.4562 5.18268 8.06016 5.01273 7.24312 5.06238C6.34918 5.11775 5.44948 5.06238 4.55169 5.07957C2.80226 5.11585 1.66802 6.21194 1.63726 7.96111C1.60458 9.36083 1.67763 10.7625 1.61996 12.1622C1.58535 12.9661 1.93716 13.117 2.6427 13.117C9.24311 13.1004 15.8435 13.0966 22.4439 13.1055H29.4609C30.0376 13.1055 30.6297 13.1342 30.6144 13.9018C30.599 14.6695 29.9934 14.6656 29.4301 14.6656H2.99835C1.62188 14.6656 1.62188 14.6656 1.62957 16.0023C1.62957 16.3537 1.62957 16.7032 1.62957 17.0526C1.65264 17.614 1.54306 18.1392 0.874045 18.1544C0.153126 18.1678 0.0300941 17.6102 0.0262492 17.0201C0.0262492 16.2888 0.0031807 15.5555 0.0031807 14.8241C0.0031807 12.5651 -0.0141284 10.3061 0.0320104 8.04705C0.0896839 5.14449 1.84873 3.45451 4.75932 3.43732C5.91279 3.43732 7.06626 3.43732 8.36199 3.43732C8.33315 2.27248 8.36199 1.04463 9.48278 0.483214C10.2114 0.120394 11.1265 -0.00373402 11.957 8.51351e-05C13.4699 8.51351e-05 14.0505 0.840298 14.5177 3.37622H27.6153C27.7211 2.2954 27.6884 1.04272 28.813 0.469845C29.5109 0.114664 30.3971 8.51351e-05 31.1988 8.51351e-05C32.7983 8.51351e-05 33.3885 0.811655 33.8402 3.43732C34.8937 3.43732 35.9722 3.43732 37.0488 3.43732C40.3766 3.43732 42.0779 5.11775 42.0779 8.42896C42.0779 17.3072 42.0779 26.1861 42.0779 35.0656C42.0779 38.3406 40.4131 40 37.1218 40C26.2933 40 15.4635 40 4.63243 40C1.85641 40 0.0454662 38.247 0.0185519 35.4858C-0.00836245 31.6991 0.0185519 27.9124 0.0185519 24.1257C0.0185519 23.9042 -0.0448791 23.6235 0.0647005 23.4707C0.305342 23.1912 0.572507 22.9355 0.86251 22.7069C1.11243 22.978 1.47577 23.2129 1.58535 23.5318C1.71224 23.9023 1.61996 24.3491 1.61996 24.7616C1.61996 28.2306 1.61996 31.6997 1.61996 35.1688C1.61996 37.3629 2.64462 38.3711 4.85352 38.3711H37.2564C39.4519 38.3711 40.4746 37.3552 40.4746 35.1535C40.4746 28.6915 40.4592 22.2314 40.4977 15.7713C40.4977 14.8719 40.2093 14.6045 39.3442 14.6523C38.2907 14.7115 37.2295 14.6523 36.1741 14.6656C35.6146 14.6656 35.1917 14.4594 35.2013 13.8713C35.2109 13.2831 35.6435 13.0902 36.1971 13.0941C37.3179 13.0941 38.4407 13.0635 39.5595 13.1074C40.2843 13.1361 40.5073 12.8668 40.4842 12.1641C40.4381 10.7644 40.4996 9.36274 40.4688 7.96302C40.4323 6.22149 39.3 5.11203 37.5602 5.07957C36.5682 5.06047 35.5743 5.10057 34.5823 5.0662C33.9921 5.0471 33.6787 5.19796 33.7114 5.85485C33.7672 6.9796 33.3058 7.8962 32.2446 8.30485C31.0911 8.74978 29.7992 8.85479 28.7842 8.03368C28.2728 7.62312 28.044 6.84019 27.7614 6.19475C27.6288 5.89304 27.6692 5.51686 27.6288 5.13494H14.5215ZM10.0268 4.29663C10.0268 4.77212 10.0461 5.25143 10.0268 5.725C9.98261 6.63205 10.4613 6.97769 11.311 6.99106C12.3299 7.00442 12.7413 6.71035 12.7779 5.79566C12.8362 4.78106 12.8311 3.76384 12.7625 2.74988C12.7317 2.36797 12.4414 1.85811 12.1242 1.70916C10.9285 1.13629 10.0364 1.76072 10.0326 3.05923C10.03 3.4717 10.0281 3.88416 10.0268 4.29663ZM32.0793 4.26035C32.0793 3.78296 32.0639 3.30557 32.0793 2.83199C32.1081 2.00323 31.7486 1.60604 30.8854 1.60986C29.7319 1.60986 29.3475 1.84856 29.3205 2.78234C29.2936 3.71612 29.2956 4.69192 29.3205 5.63716C29.3417 6.64733 29.7223 6.99105 30.7451 6.98723C31.7678 6.98341 32.0677 6.67406 32.0812 5.59133C32.085 5.14831 32.0793 4.70337 32.0793 4.26035V4.26035Z" fill="#333333"/>
<path d="M10.0988 28.0219C9.46264 28.0219 8.81918 28.1075 8.1995 27.9904C7.85401 27.9241 7.57981 27.5257 7.27271 27.2759C7.58346 27.0261 7.88142 26.5771 8.20863 26.5579C9.50618 26.4723 10.8084 26.4723 12.1059 26.5579C12.4167 26.5788 12.6945 27.0575 12.987 27.3266C12.6909 27.5554 12.4185 27.931 12.0913 27.9835C11.4442 28.0883 10.7642 28.0149 10.0988 28.0149V28.0219Z" fill="#1562D9"/>
<path d="M20.4992 28.0215C19.8555 28.0215 19.1933 28.1089 18.5754 27.9882C18.2323 27.92 17.9649 27.5089 17.6624 27.2518C17.9519 27.0086 18.2286 26.573 18.5311 26.552C19.8764 26.4742 21.2254 26.4742 22.5706 26.552C22.8546 26.5695 23.1092 27.0366 23.3766 27.2955C23.0907 27.5334 22.8343 27.9253 22.5152 27.9777C21.8604 28.0844 21.1724 28.0092 20.4992 28.0092V28.0215Z" fill="#1562D9"/>
<path d="M31.1669 28.0239C30.4305 28.0239 29.678 28.105 28.9659 27.9921C28.6229 27.9374 28.3607 27.5226 28.052 27.272C28.3586 27.0214 28.6572 26.566 28.9699 26.5519C30.4399 26.4742 31.914 26.4742 33.384 26.5519C33.7007 26.5695 33.9892 27.0284 34.2858 27.2826C33.9832 27.5297 33.7128 27.9374 33.3699 27.9886C32.6577 28.0998 31.9032 28.0239 31.1669 28.0239Z" fill="#1562D9"/>
<path d="M10.1646 33.2726C10.8025 33.2726 11.4533 33.1973 12.073 33.3038C12.4057 33.3607 12.6835 33.7335 12.987 33.963C12.7201 34.2402 12.466 34.7415 12.1863 34.7562C10.7929 34.8275 9.39659 34.8207 8.0039 34.736C7.74615 34.7194 7.51583 34.2457 7.27271 33.9832C7.53594 33.7463 7.77723 33.3461 8.07153 33.302C8.7552 33.201 9.46446 33.2689 10.1628 33.2689L10.1646 33.2726Z" fill="#1562D9"/>
<path d="M20.5299 33.2725C21.1782 33.2725 21.834 33.1974 22.4693 33.3037C22.8009 33.3605 23.0748 33.7379 23.3766 33.9706C23.1121 34.2455 22.8606 34.7475 22.583 34.7604C21.1664 34.8285 19.747 34.8187 18.3315 34.731C18.0762 34.7164 17.6496 34.2345 17.6626 33.9871C17.6757 33.7398 18.1135 33.344 18.4079 33.3019C19.1009 33.2011 19.8219 33.2689 20.5299 33.2689V33.2725Z" fill="#333333"/>
<path d="M20.5847 20.7555C19.8728 20.7555 19.1478 20.8269 18.4526 20.7216C18.16 20.6784 17.9251 20.2572 17.6624 20.009C17.9158 19.7533 18.16 19.2889 18.4246 19.2757C19.8476 19.2024 21.2734 19.2024 22.6964 19.2757C22.9517 19.2889 23.3245 19.7439 23.3748 20.041C23.4083 20.229 22.9797 20.6821 22.7169 20.7179C22.018 20.8156 21.2967 20.7517 20.5847 20.7517V20.7555Z" fill="#333333"/>
<path d="M31.176 19.2207C31.886 19.2207 32.6 19.2207 33.3059 19.2207C33.8775 19.2207 34.4105 19.4181 34.26 20.0084C34.1824 20.1867 34.0582 20.3449 33.8982 20.4689C33.7382 20.5929 33.5474 20.6791 33.3425 20.7198C31.8913 20.7989 30.4363 20.7989 28.9851 20.7198C28.7808 20.6787 28.5908 20.5921 28.4318 20.4677C28.2728 20.3433 28.1498 20.1849 28.0737 20.0066C27.9354 19.4125 28.4806 19.2412 29.0461 19.2375C29.7561 19.2375 30.4701 19.2375 31.176 19.2375V19.2207Z" fill="#333333"/>
</svg>
