<svg width="37" height="40" viewBox="0 0 37 40" fill="none" xmlns="http://www.w3.org/2000/svg">
<path d="M20.95 0C24.2313 3.0875 27.5125 6.16719 30.7687 9.275C31.0488 9.558 31.2155 9.93373 31.2375 10.3312C31.2641 17.1766 31.2375 24.0219 31.2828 30.8687C31.2828 31.8609 30.8141 32.3578 30.0328 32.9703V10.6125H27.0156C25.8437 10.6125 24.6719 10.6125 23.5016 10.6125C21.3141 10.6125 20.0281 9.31407 20.0234 7.10313C20.0234 5.18125 20.0234 3.25937 20.0234 1.23906H2.89531C1.66563 1.23906 1.25 1.64063 1.25 2.86563C1.25 14.2938 1.25 25.7208 1.25 37.1469C1.25 38.3375 1.66563 38.7594 2.82969 38.7594C11.3714 38.7594 19.9094 38.7625 28.4437 38.7687C29.1719 38.7687 29.6391 38.5266 30.0062 37.8625C30.1844 37.5422 30.7219 37.4219 31.1172 37.1984C31.3625 38.4094 30.8844 39.1437 29.3812 40H1.88125C0.4375 39.3656 0 38.2453 0 36.6953C0.04375 25.5661 0.04375 14.4365 0 3.30625C0 1.75312 0.435937 0.634375 1.8875 0H20.95ZM21.2625 2.00156C21.2625 4.03281 21.2156 5.86719 21.2812 7.7C21.3156 8.65 22.1656 9.34688 23.125 9.37813C23.8516 9.4 24.5813 9.38594 25.3125 9.38594H29.1313L21.2625 2.00156Z" fill="#333333"/>
<path d="M36.8877 29.6874C34.9575 31.6468 33.0262 33.6062 31.0939 35.5656C30.2158 36.4593 30.1861 36.4624 29.2986 35.6187C28.2799 34.6515 27.2533 33.6952 26.2439 32.7171C25.9111 32.3952 25.3189 32.0593 25.8283 31.5124C26.3767 30.9249 26.7517 31.5374 27.108 31.8671C28.1189 32.8046 29.108 33.7531 30.1377 34.7281C30.6799 34.1952 31.2033 33.7015 31.7002 33.1874C32.9908 31.8671 34.2892 30.5531 35.5486 29.2062C35.9892 28.7374 36.3846 28.6609 36.8767 29.0624L36.8877 29.6874Z" fill="#333333"/>
<path d="M11.8484 16.0153C11.5 16.0128 11.152 15.9899 10.8063 15.9466C10.6609 15.92 10.5406 15.756 10.4078 15.6544C10.5266 15.506 10.6375 15.2388 10.7656 15.2309C11.3606 15.1981 11.9571 15.2028 12.5516 15.245C12.6259 15.2634 12.6955 15.297 12.756 15.3439C12.8166 15.3907 12.8667 15.4496 12.9031 15.5169C13.3172 16.2435 12.8938 17.5075 12.0969 17.77C11.5102 17.9714 10.8965 18.0831 10.2766 18.1013C8.94219 18.1153 7.97657 17.3716 7.64375 16.2013C7.29532 14.97 7.67969 13.6888 8.59219 13.0497C9.58594 12.3528 11.3125 12.3325 12.2016 13.0169C12.3578 13.1419 12.5703 13.2966 12.6094 13.4716C12.6688 13.7325 12.5984 14.0231 12.5844 14.3013C12.3109 14.2403 11.9188 14.2716 11.7875 14.1013C11.4047 13.6028 10.9641 13.32 10.3375 13.3481C9.25313 13.3903 8.62969 14.1934 8.69219 15.4653C8.75313 16.6872 9.49219 17.3763 10.6406 17.2841C11.7469 17.1856 11.9625 16.9763 11.8484 16.0153Z" fill="#333333"/>
<path d="M16.2376 18.1218C15.2876 18.089 14.4939 17.9062 14.1001 17.075C13.9814 16.8281 14.147 16.45 14.183 16.1265C14.4439 16.2703 14.797 16.3515 14.9501 16.5703C15.4517 17.2922 16.1017 17.5718 16.7908 17.1797C16.9167 17.1046 17.0254 17.0039 17.1099 16.8841C17.1944 16.7643 17.2529 16.6281 17.2814 16.4843C17.2955 16.289 17.0095 15.975 16.7861 15.8828C16.2626 15.6656 15.6923 15.5703 15.1501 15.3859C14.4908 15.1593 13.9986 14.7609 14.0392 13.9797C14.0798 13.1984 14.5501 12.7625 15.2517 12.6672C15.8867 12.5848 16.5305 12.5996 17.1611 12.7109C17.5103 12.806 17.8082 13.0344 17.9908 13.3468C18.1142 13.5625 17.9673 13.9343 17.9392 14.2375C17.6876 14.1375 17.3142 14.1109 17.2033 13.925C16.858 13.3859 16.3955 13.1593 15.8189 13.314C15.5423 13.389 15.3314 13.6984 15.0908 13.9015C15.2892 14.1109 15.4517 14.4047 15.697 14.5125C16.1189 14.6968 16.597 14.7547 17.0455 14.8906C18.0236 15.1859 18.4517 15.6718 18.4361 16.4297C18.4236 17.2406 17.8814 17.8172 16.9048 18.039C16.684 18.078 16.4613 18.1056 16.2376 18.1218V18.1218Z" fill="#333333"/>
<path d="M13.2 28.7669C12.6656 28.6107 12.4188 28.3654 12.5953 27.8872C12.6966 27.6751 12.8219 27.4754 12.9688 27.2919C14.4271 25.0867 15.8943 22.8815 17.3703 20.6763C17.6266 20.2935 17.8656 19.7591 18.4469 20.1247C19.0281 20.4904 18.6672 20.9326 18.4078 21.3232C17.0985 23.2919 15.7865 25.2591 14.4719 27.2247C14.2281 27.5919 14.0031 27.9732 13.7297 28.3185C13.5704 28.4873 13.3928 28.6377 13.2 28.7669V28.7669Z" fill="#1562D9"/>
<path d="M14.0624 22.1737C14.0651 22.6029 13.9408 23.0232 13.7049 23.3818C13.4691 23.7404 13.1324 24.0212 12.7372 24.1886C12.342 24.3561 11.9061 24.4029 11.4844 24.323C11.0628 24.2431 10.6742 24.0401 10.3677 23.7397C10.0611 23.4393 9.85044 23.0549 9.76211 22.6348C9.67377 22.2148 9.71177 21.7781 9.8713 21.3797C10.0308 20.9812 10.3048 20.6389 10.6585 20.3959C11.0123 20.153 11.4301 20.0202 11.8593 20.0143C12.1458 20.011 12.4302 20.0643 12.6962 20.1711C12.9621 20.2779 13.2043 20.4361 13.409 20.6367C13.6137 20.8373 13.7767 21.0764 13.8889 21.3401C14.001 21.6038 14.06 21.8871 14.0624 22.1737V22.1737ZM11.8546 21.2362C11.303 21.3315 10.9343 21.6331 10.9562 22.2174C10.978 22.8018 11.3405 23.1393 11.9187 23.1221C12.4968 23.1049 12.8343 22.7346 12.8124 22.1596C12.7905 21.5846 12.4296 21.2877 11.8515 21.2331L11.8546 21.2362Z" fill="#1562D9"/>
<path d="M19.3577 28.7339C18.9288 28.7277 18.5113 28.5947 18.1578 28.3517C17.8042 28.1087 17.5306 27.7665 17.3712 27.3682C17.2118 26.9699 17.1738 26.5334 17.2621 26.1135C17.3503 25.6937 17.5608 25.3094 17.8671 25.009C18.1733 24.7086 18.5616 24.5056 18.9831 24.4255C19.4045 24.3453 19.8403 24.3917 20.2354 24.5588C20.6305 24.7258 20.9674 25.0061 21.2035 25.3642C21.4397 25.7224 21.5645 26.1424 21.5624 26.5714C21.5558 27.1502 21.3201 27.7028 20.9069 28.1081C20.4936 28.5134 19.9366 28.7384 19.3577 28.7339V28.7339ZM20.3405 26.5182C20.239 25.9651 19.9359 25.601 19.3499 25.6292C18.764 25.6573 18.4312 26.0198 18.4546 26.5979C18.4781 27.176 18.8437 27.5151 19.4234 27.4932C20.0031 27.4714 20.289 27.0932 20.3405 26.5182Z" fill="#1562D9"/>
<path d="M21.8751 13.4706C21.8751 14.7893 21.8751 15.9815 21.8751 17.1737C21.8751 17.6018 21.8923 18.0924 21.308 18.0878C20.7236 18.0831 20.7689 17.5706 20.7658 17.1503C20.7658 16.1643 20.7408 15.1768 20.7658 14.1909C20.783 13.6737 20.658 13.4378 20.083 13.4487C19.6751 13.4487 18.9548 13.7206 18.9548 13.0409C18.9548 12.3612 19.6767 12.644 20.0861 12.6252C21.072 12.5831 22.0611 12.5846 23.0455 12.6362C23.2783 12.6471 23.4955 12.9221 23.7205 13.0752C23.5001 13.2049 23.2923 13.4049 23.0548 13.4487C22.7205 13.5159 22.3533 13.4706 21.8751 13.4706Z" fill="#333333"/>
</svg>
