<svg width="41" height="40" viewBox="0 0 41 40" fill="none" xmlns="http://www.w3.org/2000/svg">
<path d="M20.6045 9.11091C20.6501 9.62691 20.2673 10.2542 21.075 10.5695C21.0907 10.7733 21.0404 10.9766 20.9317 11.1496C20.8339 11.2575 20.5641 11.2289 20.3718 11.2289C16.9701 11.2289 13.57 11.2289 10.1716 11.2289C9.97598 11.2289 9.69269 11.2693 9.60669 11.1648C9.4974 10.9743 9.4393 10.7588 9.43806 10.5392C10.2812 10.2694 9.81915 9.63028 9.91358 9.15475C8.22731 8.71969 7.48537 9.26268 7.482 10.8899C7.482 11.8444 7.51065 12.8022 7.46512 13.7566C7.455 13.996 7.20712 14.2237 7.06885 14.4564C6.93563 14.2152 6.69618 13.9792 6.68606 13.733C6.64391 12.6656 6.64897 11.5965 6.67089 10.5291C6.70293 8.99962 7.51404 8.21718 9.04348 8.19526C9.29305 8.19526 9.54936 8.19526 9.88662 8.19526C9.90348 7.84283 9.92709 7.54774 9.92709 7.25264C9.92709 5.08916 9.92708 2.92568 9.94057 0.762197C9.94057 0.510943 10.094 0.256312 10.1767 0.0101172C10.4274 0.0910451 10.6687 0.198452 10.8967 0.330512C11.2576 0.591884 11.5712 0.907216 11.8949 1.17365C11.9659 1.16265 12.0351 1.14222 12.1007 1.11293C12.6386 0.738582 13.1748 0.0657686 13.7111 0.0674549C14.2169 0.0674549 14.711 0.782427 15.195 1.16858C15.7886 0.755447 16.3484 0.065769 16.9167 0.0573377C17.4394 0.0573377 17.9739 0.773995 18.5338 1.19893C18.7612 0.988795 18.9999 0.791207 19.2488 0.607053C19.586 0.384465 19.9385 0.200666 20.2858 0C20.3786 0.413136 20.5455 0.824581 20.5523 1.2394C20.5792 3.20559 20.5624 5.17347 20.5523 7.14134V8.1919C20.9637 8.1919 21.3178 8.17841 21.6702 8.1919C22.9282 8.25092 23.7612 9.08056 23.7831 10.3486C23.8084 11.8663 23.7831 13.367 23.7831 14.9623H24.6954C27.1118 14.9623 29.5283 14.9623 31.9464 14.9724C32.9581 14.9724 33.4741 15.4563 33.4758 16.4614C33.4893 21.4628 33.4893 26.4654 33.4758 31.4691C33.4758 32.5264 32.9699 33.0053 31.9025 33.0104C29.2349 33.0222 26.5689 33.0104 23.8489 33.0104C23.8152 33.2195 23.8354 33.405 23.7545 33.5247C23.6735 33.6444 23.4644 33.8468 23.3397 33.8265C23.2149 33.8063 23.0378 33.5972 22.9889 33.437C22.948 33.2146 22.9389 32.9875 22.9619 32.7625V11.0248C22.9839 9.25762 22.4392 8.79895 20.6045 9.11091ZM23.8725 15.8054V32.1841H32.0054C32.5231 32.1841 32.6799 31.889 32.6799 31.4287C32.6799 30.4169 32.6799 29.4052 32.6799 28.3934V16.7784C32.6799 16.3214 32.7254 15.8071 32.0611 15.8037C29.3529 15.7987 26.6363 15.8054 23.8725 15.8054ZM10.8174 1.22086V10.3503H19.6737V1.38105C19.5269 1.48121 19.3893 1.59406 19.2623 1.71831C18.7362 2.35572 18.2505 2.25285 17.7446 1.68627C17.4922 1.43503 17.2235 1.2007 16.9403 0.984785C16.3012 1.43165 15.7599 2.11627 15.2186 2.10615C14.6773 2.09603 14.1495 1.3996 13.593 0.986463C12.7566 1.41309 12.1411 3.11791 10.8174 1.22086Z" fill="#333333"/>
<path d="M6.84957 38.9696C6.78718 38.0742 6.68094 37.2479 6.68094 36.4217C6.66745 29.988 6.66745 23.556 6.68094 17.1257C6.6546 16.9307 6.658 16.7329 6.69105 16.5389C6.81067 16.2417 6.9498 15.9527 7.10755 15.6738C7.23739 15.9689 7.48361 16.264 7.48361 16.5608C7.50553 23.0209 7.49878 29.4793 7.49709 35.9394C7.49709 36.5009 7.47853 37.0641 7.51057 37.6257C7.55779 38.4553 8.02657 38.9561 8.83766 38.9595C13.1095 38.9764 17.3814 38.9764 21.6533 38.9595C22.5133 38.9595 22.9686 38.4536 22.9922 37.5633C23.0141 36.7488 22.9753 35.9327 23.0226 35.1216C23.0327 34.9529 23.3042 34.7843 23.4542 34.6157C23.579 34.7843 23.8084 34.9411 23.8084 35.103C23.8084 36.3508 23.7645 37.5987 23.7325 38.9646H36.4351C36.6611 38.9646 36.9073 38.9157 37.1096 38.9949C37.1982 39.0407 37.2768 39.1036 37.3408 39.18C37.4048 39.2564 37.4529 39.3449 37.4823 39.4401C37.5042 39.5092 37.2563 39.715 37.0995 39.7773C36.9068 39.8153 36.7094 39.8227 36.5144 39.7993H3.39945C3.28647 39.7993 3.15494 39.8364 3.06219 39.7993C2.82106 39.6812 2.59847 39.5278 2.36914 39.3895C2.60859 39.2529 2.84467 39.0084 3.08749 39C4.37749 38.9494 5.66581 38.9696 6.84957 38.9696Z" fill="#333333"/>
<path d="M15.2454 12.6133C17.043 12.6133 18.8389 12.6369 20.6415 12.5998C21.316 12.5863 21.5976 12.7802 21.5892 13.4985C21.5599 16.4461 21.5599 19.3937 21.5892 22.3413C21.5892 23.0158 21.3346 23.2131 20.6921 23.2098C17.0711 23.1918 13.4496 23.1918 9.82745 23.2098C9.18836 23.2098 8.92869 23.0226 8.93543 22.343C8.96466 19.3684 8.96466 16.3927 8.93543 13.4159C8.93543 12.7768 9.17151 12.5913 9.77856 12.6014C11.5964 12.6301 13.4209 12.6133 15.2454 12.6133ZM9.80553 22.3059H20.6921V13.4935H9.80553V22.3059Z" fill="#333333"/>
<path d="M19.7412 28.3649C19.4613 28.3649 19.1814 28.3649 18.8981 28.3649C18.758 28.3764 18.617 28.3574 18.4849 28.3092C17.4411 27.7477 17.9942 26.7663 17.92 25.9687C17.8661 25.4139 18.2775 25.1255 18.8374 25.107C19.0616 25.107 19.2859 25.107 19.5119 25.107C21.8153 24.9721 21.6264 25.4341 21.5253 27.5504C21.5101 27.8354 20.9992 28.1659 20.6501 28.3429C20.4056 28.4677 20.0464 28.3665 19.7395 28.3665L19.7412 28.3649ZM20.7159 25.9771H18.775V27.4947H20.7159V25.9771Z" fill="#333333"/>
<path d="M19.7614 29.321C20.07 29.321 20.3988 29.2536 20.6787 29.3412C20.9587 29.4289 21.4139 29.6498 21.4392 29.8471C21.5269 30.5806 21.6703 31.4137 21.414 32.0595C21.0447 32.9903 20.0346 32.5283 19.3044 32.5468C18.8677 32.557 18.1004 32.3243 18.0448 32.073C17.8761 31.3412 17.8036 30.466 18.0768 29.8033C18.2353 29.4188 19.1274 29.3362 19.6906 29.1187L19.7614 29.321ZM20.7023 30.1962H18.7733V31.7138H20.7023V30.1962Z" fill="#333333"/>
<path d="M19.7243 36.7974C19.4731 36.7974 19.2184 36.7974 18.9689 36.7974C18.8015 36.8141 18.6326 36.7951 18.4731 36.7418C17.4344 36.1786 17.9976 35.1955 17.9166 34.3979C17.861 33.8431 18.2792 33.5547 18.8373 33.5396C19.0886 33.5396 19.3432 33.5396 19.5928 33.5396C21.5387 33.5396 21.6163 33.6171 21.5742 35.5749C21.5539 36.5563 21.3128 36.794 20.3128 36.8092L19.7243 36.7974ZM20.6771 35.9543V34.4113H18.7648V35.9543H20.6771Z" fill="#333333"/>
<path d="M15.2002 32.5855C14.9473 32.5855 14.6944 32.5855 14.4448 32.5855C14.3052 32.5974 14.1646 32.5807 14.0317 32.5366C12.9541 32.0054 13.487 31.019 13.428 30.218C13.3841 29.6312 13.8006 29.3192 14.4077 29.3209C14.632 29.3209 14.8546 29.3209 15.0822 29.3209C17.0282 29.3124 17.5593 29.9853 17.0299 31.8958C16.954 32.169 16.5796 32.4438 16.2845 32.5467C15.9608 32.658 15.5662 32.572 15.2036 32.572L15.2002 32.5855ZM14.2593 31.7238H16.2002V30.2062H14.2627L14.2593 31.7238Z" fill="#333333"/>
<path d="M10.7313 28.3696C10.507 28.3696 10.2844 28.3696 10.0568 28.3696C9.8895 28.3834 9.72111 28.3645 9.56105 28.314C8.47509 27.7878 9.0383 26.7963 8.9641 26.0021C8.90677 25.4001 9.33508 25.1117 9.93202 25.105C10.1833 25.105 10.4379 25.105 10.6875 25.105C12.5289 25.105 13.1157 25.879 12.5525 27.6749C12.4631 27.9632 12.0466 28.2212 11.7262 28.3494C11.4328 28.4607 11.0635 28.373 10.728 28.373L10.7313 28.3696ZM9.80724 27.5062H11.7397V25.9886H9.80724V27.5062Z" fill="#333333"/>
<path d="M15.2978 33.5314C15.549 33.5314 15.8036 33.5314 16.0532 33.5314C16.1929 33.5269 16.3326 33.5422 16.468 33.5769C17.0666 33.7793 17.2791 34.6696 17.07 35.9967C16.979 36.5751 16.6198 36.7943 16.0734 36.7943H15.318C13.4783 36.7943 12.8914 36.0153 13.4631 34.2228C13.5558 33.9344 13.969 33.6815 14.2944 33.5584C14.5878 33.4471 14.9571 33.5348 15.2927 33.5348L15.2978 33.5314ZM16.1864 35.9428V34.4352H14.2658V35.9428H16.1864Z" fill="#333333"/>
<path d="M10.7903 29.3189C11.0416 29.3189 11.2962 29.3189 11.5457 29.3189C11.6851 29.3042 11.826 29.3168 11.9606 29.356C13.0516 29.872 12.5322 30.8652 12.5963 31.6628C12.6452 32.2564 12.2489 32.5785 11.6385 32.5802C11.0281 32.5819 10.4581 32.5802 9.87634 32.5802C9.29458 32.5802 8.95226 32.2429 8.94214 31.6342C8.94214 31.4655 8.94214 31.2969 8.94214 31.1283C8.94888 29.351 8.98431 29.3139 10.7903 29.3189ZM9.83587 30.1924V31.6983H11.7447V30.1924H9.83587Z" fill="#333333"/>
<path d="M15.2592 28.3715C15.0079 28.3715 14.7533 28.3715 14.5037 28.3715C14.3365 28.3851 14.1683 28.3638 14.0097 28.3092C12.9608 27.7577 13.4785 26.7746 13.4313 25.9754C13.3958 25.3852 13.836 25.0918 14.443 25.1052C14.6116 25.1052 14.7803 25.1052 14.9489 25.1052C17.1191 25.0901 17.1225 25.0934 17.0854 27.2165C17.0685 28.1304 16.851 28.3513 15.9404 28.3732C15.7161 28.3732 15.4919 28.3732 15.2659 28.3732L15.2592 28.3715ZM16.2136 25.9973H14.2592V27.5149H16.2136V25.9973Z" fill="#333333"/>
<path d="M10.7332 36.7959C10.4819 36.7959 10.2273 36.7959 9.97775 36.7959C9.81033 36.8114 9.64164 36.7871 9.48538 36.7251C8.50565 36.1248 9.03683 35.1585 8.97949 34.3542C8.93565 33.7944 9.38925 33.5414 9.93728 33.5347C10.2172 33.5347 10.4971 33.5347 10.7804 33.5347C12.5088 33.5347 13.1901 34.5194 12.5442 36.1787C12.4414 36.4452 12.0485 36.6678 11.7416 36.7689C11.4347 36.8701 11.0772 36.7909 10.7416 36.7909L10.7332 36.7959ZM11.745 35.9342V34.4284H9.82094V35.9342H11.745Z" fill="#333333"/>
<path d="M39.2765 40.0003L38.3591 39.405C38.6745 39.26 38.9864 39.0138 39.3068 39.0037C39.5952 38.9936 39.8903 39.2432 40.1837 39.3781L39.2765 40.0003Z" fill="#333333"/>
<path d="M0.721707 39.9919L0 39.4185C0.244509 39.2701 0.485644 39.0155 0.736898 39.0037C0.952741 38.9936 1.18207 39.2583 1.41141 39.4017L0.721707 39.9919Z" fill="#333333"/>
<path d="M32.1337 26.8367C32.1624 27.4387 32.2113 28.0424 32.2163 28.6444C32.2136 28.9491 32.1485 29.2499 32.0252 29.5285C31.9019 29.8071 31.7229 30.0575 31.4992 30.2644C31.2756 30.4712 31.012 30.6302 30.7247 30.7314C30.4373 30.8327 30.1323 30.8741 29.8284 30.8531C29.5245 30.8322 29.228 30.7493 28.9573 30.6095C28.6866 30.4698 28.4473 30.2762 28.2542 30.0406C28.061 29.805 27.9181 29.5323 27.8342 29.2395C27.7503 28.9466 27.7272 28.6397 27.7663 28.3375C27.8143 27.9269 27.8143 27.5121 27.7663 27.1015C27.7317 26.8014 27.7576 26.4974 27.8422 26.2074C27.9269 25.9174 28.0687 25.6473 28.2593 25.4129C28.4498 25.1785 28.6853 24.9845 28.9519 24.8424C29.2185 24.7004 29.5109 24.613 29.8117 24.5856C31.1101 24.4911 32.2332 25.5265 32.1337 26.8367ZM29.9416 30.0407C30.1256 30.0424 30.3081 30.0079 30.4788 29.9391C30.6495 29.8704 30.805 29.7686 30.9364 29.6398C31.0677 29.5109 31.1724 29.3574 31.2445 29.1881C31.3166 29.0187 31.3546 28.8369 31.3563 28.6529C31.3581 28.4688 31.3236 28.2863 31.2548 28.1156C31.186 27.9449 31.0843 27.7894 30.9555 27.658C30.8266 27.5267 30.6731 27.422 30.5038 27.3499C30.3344 27.2778 30.1526 27.2399 29.9685 27.2381C29.5969 27.2345 29.239 27.3787 28.9737 27.639C28.7084 27.8992 28.5573 28.2542 28.5538 28.6259C28.5502 28.9975 28.6944 29.3554 28.9546 29.6207C29.2149 29.886 29.5699 30.0371 29.9416 30.0407V30.0407ZM28.5925 26.5804H31.3563C31.2417 25.8907 30.7931 25.4287 29.9871 25.4186C29.181 25.4085 28.7308 25.884 28.5993 26.5838L28.5925 26.5804Z" fill="#1562D9"/>
<path d="M31.5333 19.2672C31.5063 21.5504 31.8233 21.2216 29.5789 21.2233C27.6026 21.2233 27.7982 21.5605 27.7914 19.4459C27.7914 17.1543 27.7914 17.1543 30.073 17.1543H30.1573C31.54 17.1543 31.54 17.1543 31.5333 18.5033V19.2672ZM30.6395 20.3768V18.016H28.6784V20.3768H30.6395Z" fill="#333333"/>
<path d="M26.0375 25.8814C26.0612 26.1869 26.0562 26.4941 26.0224 26.7987C25.9991 26.8834 25.9552 26.961 25.8946 27.0246C25.8339 27.0881 25.7585 27.1357 25.675 27.1629C25.5895 27.1477 25.5094 27.1106 25.4423 27.0554C25.3753 27.0002 25.3236 26.9286 25.2922 26.8476C25.2551 26.1798 25.2551 25.5104 25.2922 24.8426C25.32 24.7582 25.3695 24.6825 25.4358 24.6233C25.5022 24.5641 25.5829 24.5234 25.67 24.5054C25.7544 24.5323 25.8309 24.5799 25.8924 24.6438C25.9539 24.7077 25.9986 24.7858 26.0224 24.8713C26.0532 25.2071 26.0583 25.5448 26.0375 25.8814V25.8814Z" fill="#1562D9"/>
<path d="M26.0378 22.2671C26.0598 22.5722 26.0548 22.8786 26.0227 23.1828C26.0008 23.2673 25.9587 23.3453 25.8999 23.4099C25.8411 23.4746 25.7675 23.5239 25.6854 23.5537C25.5994 23.538 25.5189 23.5002 25.4518 23.444C25.3847 23.3879 25.3333 23.3153 25.3026 23.2334C25.2647 22.5673 25.2647 21.8995 25.3026 21.2334C25.3324 21.1515 25.3828 21.0786 25.4489 21.0219C25.5151 20.9652 25.5948 20.9265 25.6804 20.9097C25.7643 20.9352 25.8405 20.9814 25.9018 21.0442C25.9632 21.107 26.0076 21.1843 26.0311 21.2688C26.0595 21.6009 26.0618 21.9347 26.0378 22.2671Z" fill="#1562D9"/>
<path d="M25.269 18.5573C25.2467 18.2511 25.2523 17.9434 25.2858 17.6382C25.311 17.5534 25.3571 17.4762 25.4199 17.4137C25.4826 17.3513 25.56 17.3056 25.645 17.2808C25.7308 17.2999 25.8101 17.3411 25.8752 17.4002C25.9403 17.4593 25.9888 17.5344 26.016 17.618C26.0531 18.287 26.0531 18.9574 26.016 19.6264C25.9835 19.7076 25.9306 19.779 25.8623 19.8337C25.7941 19.8884 25.7128 19.9244 25.6264 19.9383C25.5438 19.9075 25.4699 19.857 25.4111 19.7912C25.3523 19.7254 25.3105 19.6462 25.2892 19.5606C25.2569 19.2243 25.2513 18.886 25.2723 18.5488L25.269 18.5573Z" fill="#1562D9"/>
<path d="M26.0361 29.5368C26.0595 29.8408 26.0533 30.1463 26.0175 30.4491C25.9838 30.5297 25.9326 30.6018 25.8675 30.6601C25.8025 30.7185 25.7253 30.7616 25.6415 30.7864C25.5572 30.81 25.3042 30.6177 25.3042 30.5098C25.2705 29.8184 25.2671 29.1237 25.2941 28.4306C25.2941 28.3227 25.5234 28.1204 25.6145 28.1372C25.7663 28.1659 25.9922 28.3193 26.0124 28.4475C26.0457 28.8068 26.0519 29.1681 26.031 29.5284L26.0361 29.5368Z" fill="#1562D9"/>
<path d="M15.2372 3.71325C14.2845 3.71325 13.33 3.74192 12.3706 3.69471C12.1378 3.6829 11.9153 3.4249 11.696 3.27988C11.9136 3.14835 12.1277 2.90553 12.3469 2.90216C14.2805 2.87181 16.2147 2.87181 18.1494 2.90216C18.3619 2.90216 18.571 3.1551 18.7801 3.29C18.5524 3.42996 18.3298 3.67953 18.0954 3.68964C17.1444 3.73686 16.1899 3.70988 15.2288 3.70988L15.2372 3.71325Z" fill="#333333"/>
<path d="M15.3081 5.18481C16.2609 5.18481 17.2153 5.1612 18.1647 5.20336C18.3755 5.21348 18.5744 5.45631 18.7785 5.59121C18.5728 5.72948 18.367 5.98242 18.1596 5.98579C16.2271 6.01783 14.293 6.0212 12.3605 5.98579C12.1379 5.98579 11.9221 5.69406 11.7029 5.53893C11.9238 5.42089 12.1413 5.20167 12.3673 5.20167C13.347 5.16289 14.3284 5.18481 15.3081 5.18481Z" fill="#333333"/>
<path d="M15.2119 8.27128C14.2591 8.27128 13.3047 8.29152 12.3452 8.25274C12.1243 8.25274 11.9102 8.0234 11.6926 7.9003C11.9169 7.74854 12.1395 7.46862 12.3671 7.46525C14.2996 7.42984 16.2338 7.43321 18.1679 7.46525C18.3703 7.46525 18.5692 7.73168 18.7699 7.87501C18.5625 8.00654 18.3585 8.2443 18.146 8.25274C17.173 8.29489 16.2 8.27128 15.2119 8.27128Z" fill="#333333"/>
<path d="M13.9522 19.4342C15.1984 18.1645 16.313 17.0127 17.4513 15.8931C17.6485 15.7025 18.0027 15.6722 18.2843 15.5659C18.1932 15.8694 18.1915 16.2556 17.9976 16.4596C16.8745 17.64 15.6925 18.7614 14.5627 19.935C14.1377 20.3768 13.8123 20.4308 13.3958 19.9485C13.0467 19.5455 12.6218 19.2099 12.2862 18.7985C12.1665 18.6518 12.212 18.3702 12.1833 18.151C12.4009 18.1746 12.6892 18.1189 12.8258 18.237C13.2219 18.6161 13.5979 19.0158 13.9522 19.4342V19.4342Z" fill="#1562D9"/>
</svg>
