<svg width="38" height="40" viewBox="0 0 38 40" fill="none" xmlns="http://www.w3.org/2000/svg">
<path fill-rule="evenodd" clip-rule="evenodd" d="M3.07205 38.7513V3.553C2.29616 3.553 1.55509 3.60937 0.828937 3.52648C0.535493 3.49166 0.276865 3.15345 0 2.95285C0.275207 2.75225 0.535493 2.4157 0.828937 2.37923C1.53188 2.29468 2.25305 2.3527 3.11017 2.3527V0.994902C3.11017 0.535671 3.11017 0.00846717 3.70534 0.000177798C4.36849 -0.0114273 4.3486 0.547276 4.34528 1.03138V2.2781C4.76141 2.30462 5.13111 2.34773 5.50579 2.34939C15.7846 2.34939 26.0634 2.35381 36.3422 2.36265C36.8396 2.36265 37.6304 2.1007 37.6553 2.92964C37.6802 3.75858 36.896 3.54637 36.3903 3.54803C32.1628 3.56129 27.9352 3.55632 23.7093 3.55632H22.7991L16.9385 3.62761H4.41326V38.6916H15.2093V15.1996C14.8562 15.178 14.5926 15.1498 14.3274 15.1482H8.4419C6.98795 15.1482 6.20045 14.3673 6.19547 12.978C6.1905 11.5887 6.94483 10.7747 8.40707 10.7747C16.0587 10.7614 23.7109 10.7614 31.3636 10.7747C32.8276 10.7747 33.5952 11.5638 33.5918 12.9598C33.5885 14.3557 32.8077 15.1316 31.3554 15.1399C29.1487 15.1498 26.9404 15.1399 24.6095 15.1399V38.7464H36.4434C36.6904 38.7464 36.9756 38.69 37.1778 38.7911C37.3801 38.8922 37.6437 39.1608 37.6453 39.3564C37.647 39.5521 37.39 39.8173 37.1811 39.9251C36.9723 40.0329 36.697 39.9782 36.4484 39.9782H1.13564C0.969852 39.9782 0.76097 40.0378 0.648234 39.9599C0.41471 39.7741 0.197809 39.5683 0 39.3448C0.223813 39.1459 0.434354 38.7994 0.674746 38.7762C1.444 38.7032 2.21492 38.7513 3.07205 38.7513ZM8.61597 11.9949H19.8895C23.6728 11.9949 27.4561 11.9999 31.236 12.0032C31.8627 12.0015 32.3418 12.1458 32.3965 12.8669C32.4512 13.5881 32.123 13.9197 31.2758 13.9197H24.5647C23.4954 13.9213 23.386 14.0374 23.386 15.1134V37.0686C23.3876 38.2158 23.1041 38.6916 22.441 38.7132C21.7447 38.7347 21.4463 38.2208 21.4463 37.0454C21.4529 33.2621 21.4529 29.4788 21.4463 25.6956C21.4463 24.5599 20.8279 23.8271 19.8829 23.8321C18.9379 23.8371 18.3195 24.5433 18.3195 25.684V36.9575C18.3276 37.2339 18.3215 37.5106 18.3013 37.7864C18.2416 38.3634 17.8835 38.7911 17.3364 38.6701C16.9816 38.5922 16.6799 38.1379 16.4295 37.798C16.3218 37.6455 16.4013 37.3687 16.4013 37.1482V15.2758C16.4013 13.9827 16.335 13.9164 15.0502 13.9164C12.8949 13.9164 10.7397 13.9015 8.58448 13.9164C7.88651 13.9213 7.36759 13.7788 7.37754 12.9366C7.38749 12.0944 7.92961 11.9949 8.61597 11.9949ZM20.241 36.5016V38.6999H19.5297C19.5297 37.8935 19.5295 37.0886 19.5293 36.2851C19.5282 32.8715 19.5272 29.4814 19.5447 26.0901C19.5514 25.8666 19.6485 25.6431 19.7456 25.4195C19.7926 25.3115 19.8395 25.2035 19.8763 25.0954C19.9143 25.1971 19.9625 25.2981 20.0108 25.3991C20.1159 25.6194 20.2211 25.8396 20.2211 26.0669C20.241 29.5385 20.241 33.0201 20.241 36.5016Z" fill="#333333"/>
<circle cx="19.1999" cy="7.1793" r="3" stroke="#1562D9" stroke-width="1.2"/>
</svg>
