<svg width="32" height="40" viewBox="0 0 32 40" fill="none" xmlns="http://www.w3.org/2000/svg">
<path d="M25.4381 24.4963C25.6463 23.1738 25.7755 21.8334 26.0751 20.5307C26.7157 17.7529 26.0859 15.3466 24.2305 13.2059C20.7924 9.24207 15.664 8.16363 11.1008 10.482C9.55862 11.2356 8.29746 12.4622 7.50127 13.9829C6.07831 16.6835 3.90349 18.6483 1.27469 20.1287C0.869155 20.3584 0.422348 20.5755 0.110122 20.0336C-0.202104 19.4917 0.20702 19.2333 0.621527 18.9982C3.15763 17.5642 5.24367 15.4514 6.64534 12.8973C8.34464 9.89882 11.2103 8.4633 14.5281 8.09006C19.3569 7.53739 23.1503 9.48252 25.9764 13.353C27.5412 15.4956 27.9736 17.9037 27.3868 20.4966C26.9024 22.6337 26.5632 24.7744 27.0926 26.9564C27.4819 28.5624 28.2769 29.8813 29.6909 30.7767C30.1251 31.053 30.4409 31.4281 30.0497 31.8426C29.8703 32.022 29.2494 32.013 28.9731 31.8426C26.7911 30.495 25.8437 28.4027 25.5906 25.9372C25.5663 25.459 25.5663 24.9799 25.5906 24.5017L25.4381 24.4963Z" fill="#333333"/>
<path d="M22.002 25.4314C22.1527 24.3009 22.2963 22.8438 22.5493 21.4047C23.267 17.3224 21.7239 14.4604 18.0974 13.242C14.5193 12.0397 10.9826 13.4609 9.43938 17.1089C8.12588 20.215 5.94388 22.4832 3.47299 24.5934C2.96782 25.0583 2.42327 25.4786 1.84547 25.8495C1.59425 25.9966 1.17256 25.8494 0.829834 25.8387C0.903405 25.5085 0.865722 25.0563 1.07028 24.8679C1.99261 24.0192 3.01542 23.2799 3.94133 22.4383C5.70343 20.8449 7.15869 19.063 8.1187 16.8128C9.36222 13.9005 11.5604 11.8603 14.8513 11.5768C19.4791 11.1766 24.7313 14.1787 23.9328 20.7282C23.6331 23.1884 23.0912 25.6144 23.5326 28.1122C23.974 30.61 25.0309 32.7579 27.3116 34.1252C27.7046 34.3603 28.2716 34.6061 27.8733 35.2109C27.5144 35.7492 27.0299 35.471 26.6172 35.2252C23.8072 33.5564 22.5977 30.9186 22.1904 27.8197C22.1061 27.136 22.0827 26.447 22.002 25.4314Z" fill="#333333"/>
<path d="M20.6491 20.8863C20.3853 21.6722 20.2651 22.5012 19.8542 23.1634C17.2505 27.3264 14.4548 31.3548 10.8014 34.6888C9.88269 35.5268 8.80425 36.1961 7.77965 36.9157C7.39564 37.1848 6.90398 37.3517 6.62226 36.8152C6.35489 36.3074 6.71377 36.0203 7.16058 35.7744C9.31386 34.5794 11.0706 32.8926 12.5617 30.9834C14.6737 28.2792 16.7032 25.5051 18.625 22.6627C19.9511 20.6979 18.8852 18.2431 16.635 17.7514C15.2982 17.459 14.2485 18.0098 13.4051 19.0273C10.9396 22.0042 8.29643 24.8088 5.28722 27.242C4.08138 28.2164 2.77506 29.0777 1.51898 29.9785C1.14215 30.2477 0.668428 30.3535 0.472838 29.8421C0.381324 29.6035 0.578708 29.0687 0.808391 28.9198C5.3572 25.9824 9.06264 22.1406 12.5348 18.0493C14.6235 15.5946 18.3271 15.896 19.8775 18.6558C20.2418 19.3126 20.3835 20.0967 20.6491 20.8863Z" fill="#333333"/>
<path d="M30.9901 12.6153C30.825 12.8217 30.7066 13.1106 30.5415 13.1393C30.2625 13.1883 29.9753 13.13 29.7376 12.976C29.3606 12.6365 29.0069 12.2721 28.6789 11.885C26.9348 10.0583 25.0004 8.46667 22.7466 7.30928C17.7097 4.72713 12.89 5.36594 8.27118 8.40207C5.98131 9.93358 3.96097 11.8339 2.29223 14.0257C2.12714 14.2375 1.99794 14.5389 1.78082 14.6322C1.50232 14.7521 1.18789 14.7579 0.905153 14.6484C0.775956 14.582 0.714947 14.0652 0.831583 13.8876C1.27345 13.214 1.7615 12.5718 2.29223 11.9658C4.59445 9.3226 7.23042 7.10472 10.4711 5.70688C15.264 3.64332 19.8971 4.07217 24.3526 6.71174C26.6853 8.09343 28.6753 9.89322 30.4733 11.9155C30.6546 12.1057 30.7891 12.3354 30.9901 12.6153Z" fill="#333333"/>
<path d="M29.1975 5.63542C29.045 5.85074 28.9516 6.1217 28.8117 6.14682C28.5351 6.2107 28.245 6.17776 27.9898 6.05351C27.3869 5.66951 26.8468 5.18861 26.26 4.77769C23.389 2.76796 20.2757 1.45805 16.73 1.2822C13.7302 1.10131 10.7414 1.78314 8.11683 3.24707C6.41035 4.20169 4.87255 5.45957 3.27194 6.60978C2.87359 6.89689 2.53086 7.32754 2.06969 6.78922C1.66416 6.3137 2.02663 5.96559 2.37474 5.65695C6.10351 2.34269 10.3868 0.225295 15.4236 0.01535C20.5485 -0.198184 24.8981 1.83308 28.7614 5.05044C28.9292 5.2277 29.0755 5.42404 29.1975 5.63542V5.63542Z" fill="#333333"/>
<path d="M2.50745 34.8305C2.30827 34.6708 2.04987 34.5649 1.98169 34.3855C1.95144 34.2765 1.94492 34.1622 1.96256 34.0505C1.98021 33.9388 2.02161 33.8321 2.08397 33.7377C2.28778 33.5209 2.52237 33.3353 2.7802 33.1868C7.66456 29.7147 11.9765 25.679 15.2011 20.5704C15.4505 20.1756 15.7143 19.6337 16.3028 20.0321C16.8411 20.4035 16.5486 20.8736 16.2885 21.2881C13.5215 25.6898 9.93269 29.3342 5.86836 32.5319C5.02499 33.1958 4.14215 33.8113 3.26827 34.4339C3.02382 34.583 2.76964 34.7155 2.50745 34.8305V34.8305Z" fill="#1562D9"/>
<path d="M31.5803 20.8824C31.2771 22.7396 30.9685 24.6776 30.6365 26.6101C30.5575 27.0767 30.335 27.5755 29.7752 27.3279C29.5401 27.2274 29.3284 26.6388 29.3983 26.3392C30.1556 23.1093 30.4176 19.8793 29.6209 16.5974C29.567 16.3767 29.9241 16.0591 30.091 15.7827C30.3601 15.9998 30.8087 16.1793 30.868 16.4395C31.1551 17.8714 31.3417 19.3177 31.5803 20.8824Z" fill="#333333"/>
<path d="M19.4538 29.6375C19.6224 30.6944 19.7229 31.7675 19.9795 32.8011C20.3213 34.2772 21.2217 35.5634 22.4917 36.3899C22.7537 36.5693 23.03 37.1345 22.9259 37.366C22.6945 37.9043 22.2082 37.7052 21.7937 37.4557C19.8198 36.2696 18.8813 34.4053 18.4991 32.252C18.2766 30.9959 18.3053 29.6985 18.2713 28.4191C18.2569 27.9436 18.3358 27.3838 19.0213 27.4394C19.6476 27.4896 19.6063 28.0028 19.5973 28.4604C19.5973 28.8498 19.5973 29.2374 19.5973 29.625L19.4538 29.6375Z" fill="#1562D9"/>
<path d="M14.3271 35.1714C15.6962 35.2575 16.7944 35.7223 17.4835 36.8671C17.9042 37.5506 18.261 38.2714 18.5493 39.0204C18.6462 39.2824 18.404 39.67 18.3179 40.0001C18.0272 39.8727 17.618 39.8207 17.4673 39.6018C17.1084 39.0635 16.8752 38.4354 16.5701 37.8594C15.8524 36.528 14.5963 36.1475 13.2397 36.842C12.4968 37.2206 11.7809 37.6584 11.0164 37.985C10.8718 38.0222 10.7206 38.0254 10.5746 37.9942C10.4285 37.9631 10.2917 37.8985 10.1749 37.8056C10.0528 37.6997 10.0869 37.1363 10.2215 37.0555C11.5296 36.2767 12.8037 35.3562 14.3271 35.1714Z" fill="#333333"/>
</svg>
