<svg width="41" height="40" viewBox="0 0 41 40" fill="none" xmlns="http://www.w3.org/2000/svg">
<path d="M2.67824 6.65968C1.98275 6.65968 1.42235 6.70972 0.875303 6.63967C0.590103 6.60464 0.219842 6.42285 0.0930862 6.19269C0.00135503 6.0259 0.169808 5.58893 0.354938 5.42048C2.26795 3.68092 4.20931 1.97472 6.13733 0.250176C6.5176 -0.083392 6.86451 -0.083392 7.23977 0.250176C9.1678 1.97139 11.1092 3.67759 13.0205 5.42048C13.204 5.58726 13.3457 5.99588 13.2673 6.20103C13.189 6.40617 12.822 6.60298 12.5619 6.63133C11.9589 6.67011 11.3543 6.6768 10.7506 6.65134V10.6908C11.8964 10.4607 13.0522 10.2539 14.1913 9.97701C14.4082 9.92531 14.6266 9.6201 14.725 9.3816C16.4196 5.27037 19.4267 2.81031 23.8331 2.10315C29.6972 1.16248 35.6614 5.51554 36.5254 11.4064C36.6805 12.4671 36.5887 13.5612 36.6471 14.6403C36.6511 14.8931 36.7506 15.135 36.9257 15.3174C39.5175 17.3188 40.5949 19.934 39.8043 23.1029C39.0355 26.1968 36.9156 28.0064 33.7751 28.6068C33.6667 28.6268 33.5616 28.6668 33.4165 28.7085V33.3518C33.9979 33.3249 34.5804 33.3316 35.1611 33.3718C35.4479 33.4052 35.8582 33.5836 35.9466 33.8021C36.035 34.0206 35.8566 34.4559 35.6531 34.636C33.7634 36.3572 31.8404 38.0417 29.9341 39.7446C29.5171 40.1165 29.1635 40.0632 28.7666 39.7079C26.8819 38.0217 24.9789 36.3572 23.1076 34.6544C22.9008 34.4659 22.6873 33.9872 22.7824 33.8288C22.9225 33.5853 23.3261 33.4118 23.6396 33.3701C24.1784 33.2984 24.7337 33.3501 25.3258 33.3501V28.6802H24.5336C18.893 28.6802 13.2518 28.6802 7.61004 28.6802C4.3811 28.6802 1.68254 26.9756 0.581762 24.1303C-0.600736 21.0782 0.0413881 18.3596 2.30798 16.0079C2.47477 15.8411 2.66656 15.6076 2.66823 15.4042C2.68658 12.5171 2.67824 9.63511 2.67824 6.65968ZM20.0238 27.3409C24.2484 27.3409 28.4714 27.3492 32.6993 27.3409C34.0011 27.3397 35.2673 26.9164 36.3081 26.1345C37.3489 25.3527 38.1081 24.2544 38.4717 23.0045C38.8395 21.7542 38.7848 20.4175 38.3159 19.2014C37.847 17.9854 36.9902 16.9579 35.8782 16.2781C35.2678 15.9028 35.1894 15.4959 35.2111 14.8488C35.2595 13.6379 35.3495 12.3837 35.1044 11.2146C34.1787 6.74641 30.2793 3.49579 25.8512 3.33401C21.1812 3.16723 17.1901 5.97087 15.8191 10.424C15.599 11.1428 15.3188 11.4681 14.4849 11.378C12.2316 11.1312 10.2536 12.4588 9.56808 14.6486C9.34626 15.3575 9.02103 15.631 8.30553 15.4225C8.11712 15.3759 7.92416 15.3501 7.73012 15.3458C4.39444 15.1507 1.48573 17.7475 1.35063 21.0281C1.21053 24.4555 3.85239 27.3092 7.27313 27.3359C11.5261 27.3676 15.7775 27.3426 20.0288 27.3442L20.0238 27.3409ZM2.54147 5.23535C4.01418 5.4455 4.01418 5.4455 4.01585 6.90319C4.01585 8.87346 4.01585 10.8432 4.01585 12.8123V14.4802C5.40349 14.3134 6.70941 14.1716 8.00866 13.9932C8.20483 13.9459 8.3762 13.8269 8.48899 13.6596C9.16294 12.711 9.47637 11.553 9.37295 10.394C9.27121 9.20981 9.3496 8.01063 9.35126 6.81813C9.35126 5.42548 9.35126 5.42548 10.829 5.23034L6.67105 1.55943L2.54147 5.23535ZM33.5116 34.7744C32.0355 34.5693 32.0355 34.5693 32.0355 33.1717V28.7202H26.6985V29.5741C26.6985 30.9634 26.6868 32.3527 26.6985 33.7437C26.6985 34.3542 26.4783 34.6977 25.8312 34.6927C25.62 34.7038 25.4096 34.7261 25.2007 34.7594L29.3703 38.4554C30.7747 37.2062 32.1123 36.0187 33.5116 34.7744Z" fill="#333333"/>
<path d="M18.7377 20.7844C18.9795 21.193 19.173 21.5233 19.4048 21.9119C17.5402 22.9943 15.7439 24.0917 13.6758 24.5921C12.1481 24.9574 10.3585 24.1518 9.42283 22.7425C8.93968 22.0229 8.68474 21.1743 8.69129 20.3076C8.69783 19.4409 8.96556 18.5963 9.45952 17.884C10.4419 16.4681 12.2231 15.6158 13.7259 16.1328C15.3939 16.72 17.0114 17.4418 18.5626 18.291C20.6624 19.4218 22.6571 20.7427 24.7336 21.9135C25.657 22.4204 26.6237 22.8441 27.6223 23.1794C28.8298 23.5964 30.114 23.0894 30.8329 22.0403C31.193 21.5237 31.3795 20.9059 31.3654 20.2763C31.3513 19.6467 31.1374 19.0379 30.7545 18.5378C30.0156 17.5371 28.7531 17.0501 27.5856 17.5171C25.9178 18.1843 24.3116 18.9965 22.5904 19.7871C22.4236 19.5185 22.2235 19.1733 21.9817 18.7697C23.8496 17.6822 25.6459 16.5865 27.719 16.0861C29.2468 15.7175 31.0547 16.5314 31.9737 17.9324C32.4563 18.6523 32.7107 19.5011 32.7036 20.3678C32.6964 21.2345 32.4281 22.079 31.9336 22.7908C30.9446 24.2135 29.165 25.0808 27.6723 24.5421C25.8317 23.8533 24.0425 23.034 22.3186 22.0903C20.2888 21.0062 18.3641 19.7303 16.356 18.6046C15.5055 18.1403 14.6117 17.7599 13.6875 17.4688C12.52 17.0885 11.2591 17.6039 10.557 18.6362C10.2069 19.1425 10.0215 19.7443 10.026 20.3597C10.0305 20.9752 10.2246 21.5743 10.582 22.0753C11.2991 23.091 12.5834 23.6214 13.7225 23.1794C15.1135 22.6391 16.4444 21.9452 17.7971 21.3081C18.0889 21.168 18.3691 20.9912 18.7377 20.7844Z" fill="#1562D9"/>
</svg>
