<svg width="716" height="608" viewBox="0 0 716 608" fill="none" xmlns="http://www.w3.org/2000/svg">
<path d="M266 119L194.5 166M194.5 166L302.5 218M194.5 166L172.5 307L402.5 425.5L232 438.5L459 569" stroke="#AAAAAA"/>
<path d="M459.627 535.98C462.114 541.452 469.886 541.452 472.373 535.98L711.502 9.89662C713.608 5.26192 710.22 -1.19209e-05 705.129 -1.19209e-05H226.871C221.78 -1.19209e-05 218.392 5.26191 220.498 9.89661L459.627 535.98Z" fill="#F4F4F4"/>
<path d="M226.871 58L705.129 58C710.22 58 713.608 63.2619 711.502 67.8966L678.547 140.397C677.411 142.896 674.919 144.5 672.174 144.5L259.826 144.5C257.081 144.5 254.589 142.896 253.453 140.397L220.498 67.8966C218.392 63.2619 221.78 58 226.871 58Z" fill="#277DF4"/>
<path d="M443.954 106L441.602 97.6H443.342L444.95 103.828L446.702 97.6H448.118L449.882 103.828L451.49 97.6H453.23L450.878 106H448.994L447.41 100.456L445.838 106H443.954ZM460.883 104.908C460.035 105.748 459.003 106.168 457.787 106.168C456.571 106.168 455.539 105.748 454.691 104.908C453.851 104.06 453.431 103.024 453.431 101.8C453.431 100.576 453.851 99.544 454.691 98.704C455.539 97.856 456.571 97.432 457.787 97.432C459.003 97.432 460.035 97.856 460.883 98.704C461.731 99.544 462.155 100.576 462.155 101.8C462.155 103.024 461.731 104.06 460.883 104.908ZM455.855 103.78C456.375 104.292 457.019 104.548 457.787 104.548C458.555 104.548 459.199 104.292 459.719 103.78C460.239 103.26 460.499 102.6 460.499 101.8C460.499 101 460.239 100.34 459.719 99.82C459.199 99.3 458.555 99.04 457.787 99.04C457.019 99.04 456.375 99.3 455.855 99.82C455.335 100.34 455.075 101 455.075 101.8C455.075 102.6 455.335 103.26 455.855 103.78ZM467.927 106L466.235 103.084H464.975V106H463.319V97.6H466.679C467.455 97.6 468.115 97.872 468.659 98.416C469.203 98.96 469.475 99.616 469.475 100.384C469.475 100.904 469.327 101.388 469.031 101.836C468.735 102.276 468.343 102.608 467.855 102.832L469.715 106H467.927ZM464.975 99.148V101.632H466.679C466.991 101.632 467.259 101.512 467.483 101.272C467.707 101.024 467.819 100.728 467.819 100.384C467.819 100.04 467.707 99.748 467.483 99.508C467.259 99.268 466.991 99.148 466.679 99.148H464.975ZM477.254 106H475.346L472.346 102.064V106H470.69V97.6H472.346V101.308L475.226 97.6H477.134L474.026 101.68L477.254 106ZM481.073 97.6H482.729V106H481.073V97.6ZM489.144 97.6H490.8V106H489.54L485.94 100.864V106H484.284V97.6H485.544L489.144 102.724V97.6Z" fill="white"/>
<path d="M279.871 173L653.583 173C658.675 173 662.063 178.262 659.956 182.897L629.956 248.897C628.82 251.396 626.329 253 623.584 253L309.871 253C307.126 253 304.634 251.396 303.498 248.897L273.498 182.897C271.392 178.262 274.78 173 279.871 173Z" fill="#47B5FF"/>
<path d="M420.581 216.416H423.785V218H418.925V209.6H420.581V216.416ZM426.381 216.416H429.921V218H424.725V209.6H429.861V211.184H426.381V212.972H429.561V214.532H426.381V216.416ZM436.618 218L436.114 216.488H432.766L432.262 218H430.474L433.414 209.6H435.466L438.418 218H436.618ZM433.294 214.94H435.598L434.446 211.508L433.294 214.94ZM442.569 209.6C443.721 209.6 444.681 210.004 445.449 210.812C446.225 211.62 446.613 212.616 446.613 213.8C446.613 214.984 446.225 215.98 445.449 216.788C444.681 217.596 443.721 218 442.569 218H439.233V209.6H442.569ZM442.569 216.416C443.297 216.416 443.889 216.176 444.345 215.696C444.801 215.208 445.029 214.576 445.029 213.8C445.029 213.024 444.801 212.396 444.345 211.916C443.889 211.428 443.297 211.184 442.569 211.184H440.889V216.416H442.569ZM455.804 211.184H452.444V213.176H455.708V214.76H452.444V218H450.788V209.6H455.804V211.184ZM464.078 216.908C463.23 217.748 462.198 218.168 460.982 218.168C459.766 218.168 458.734 217.748 457.886 216.908C457.046 216.06 456.626 215.024 456.626 213.8C456.626 212.576 457.046 211.544 457.886 210.704C458.734 209.856 459.766 209.432 460.982 209.432C462.198 209.432 463.23 209.856 464.078 210.704C464.926 211.544 465.35 212.576 465.35 213.8C465.35 215.024 464.926 216.06 464.078 216.908ZM459.05 215.78C459.57 216.292 460.214 216.548 460.982 216.548C461.75 216.548 462.394 216.292 462.914 215.78C463.434 215.26 463.694 214.6 463.694 213.8C463.694 213 463.434 212.34 462.914 211.82C462.394 211.3 461.75 211.04 460.982 211.04C460.214 211.04 459.57 211.3 459.05 211.82C458.53 212.34 458.27 213 458.27 213.8C458.27 214.6 458.53 215.26 459.05 215.78ZM468.17 216.416H471.374V218H466.514V209.6H468.17V216.416ZM473.971 216.416H477.175V218H472.315V209.6H473.971V216.416ZM484.668 216.908C483.82 217.748 482.788 218.168 481.572 218.168C480.356 218.168 479.324 217.748 478.476 216.908C477.636 216.06 477.216 215.024 477.216 213.8C477.216 212.576 477.636 211.544 478.476 210.704C479.324 209.856 480.356 209.432 481.572 209.432C482.788 209.432 483.82 209.856 484.668 210.704C485.516 211.544 485.94 212.576 485.94 213.8C485.94 215.024 485.516 216.06 484.668 216.908ZM479.64 215.78C480.16 216.292 480.804 216.548 481.572 216.548C482.34 216.548 482.984 216.292 483.504 215.78C484.024 215.26 484.284 214.6 484.284 213.8C484.284 213 484.024 212.34 483.504 211.82C482.984 211.3 482.34 211.04 481.572 211.04C480.804 211.04 480.16 211.3 479.64 211.82C479.12 212.34 478.86 213 478.86 213.8C478.86 214.6 479.12 215.26 479.64 215.78ZM488.481 218L486.129 209.6H487.869L489.477 215.828L491.229 209.6H492.645L494.409 215.828L496.017 209.6H497.757L495.405 218H493.521L491.937 212.456L490.365 218H488.481ZM504.85 218.168C503.914 218.168 503.146 217.904 502.546 217.376C501.946 216.848 501.646 216.14 501.646 215.252V209.6H503.29V215.12C503.29 215.56 503.414 215.908 503.662 216.164C503.918 216.42 504.314 216.548 504.85 216.548C505.386 216.548 505.778 216.42 506.026 216.164C506.282 215.908 506.41 215.56 506.41 215.12V209.6H508.066V215.252C508.066 216.14 507.766 216.848 507.166 217.376C506.566 217.904 505.794 218.168 504.85 218.168ZM512.689 209.6C513.497 209.6 514.177 209.872 514.729 210.416C515.281 210.96 515.557 211.628 515.557 212.42C515.557 213.212 515.281 213.88 514.729 214.424C514.177 214.968 513.497 215.24 512.689 215.24H511.213V218H509.557V209.6H512.689ZM512.689 213.692C513.041 213.692 513.333 213.572 513.565 213.332C513.797 213.084 513.913 212.78 513.913 212.42C513.913 212.052 513.797 211.748 513.565 211.508C513.333 211.268 513.041 211.148 512.689 211.148H511.213V213.692H512.689Z" fill="white"/>
<path d="M324.871 275H605.856C610.947 275 614.336 280.262 612.229 284.897L585.638 343.397C584.502 345.896 582.01 347.5 579.265 347.5H351.462C348.717 347.5 346.225 345.896 345.089 343.397L318.498 284.897C316.392 280.262 319.78 275 324.871 275Z" fill="#F46427"/>
<path d="M434.159 316.168C432.895 316.168 431.851 315.748 431.027 314.908C430.203 314.068 429.791 313.032 429.791 311.8C429.791 310.56 430.203 309.524 431.027 308.692C431.851 307.852 432.895 307.432 434.159 307.432C434.919 307.432 435.619 307.612 436.259 307.972C436.907 308.324 437.411 308.804 437.771 309.412L436.343 310.24C436.135 309.864 435.839 309.572 435.455 309.364C435.071 309.148 434.639 309.04 434.159 309.04C433.343 309.04 432.683 309.296 432.179 309.808C431.683 310.32 431.435 310.984 431.435 311.8C431.435 312.608 431.683 313.268 432.179 313.78C432.683 314.292 433.343 314.548 434.159 314.548C434.639 314.548 435.071 314.444 435.455 314.236C435.847 314.02 436.143 313.728 436.343 313.36L437.771 314.188C437.411 314.796 436.911 315.28 436.271 315.64C435.631 315.992 434.927 316.168 434.159 316.168ZM445.774 314.908C444.926 315.748 443.894 316.168 442.678 316.168C441.462 316.168 440.43 315.748 439.582 314.908C438.742 314.06 438.322 313.024 438.322 311.8C438.322 310.576 438.742 309.544 439.582 308.704C440.43 307.856 441.462 307.432 442.678 307.432C443.894 307.432 444.926 307.856 445.774 308.704C446.622 309.544 447.046 310.576 447.046 311.8C447.046 313.024 446.622 314.06 445.774 314.908ZM440.746 313.78C441.266 314.292 441.91 314.548 442.678 314.548C443.446 314.548 444.09 314.292 444.61 313.78C445.13 313.26 445.39 312.6 445.39 311.8C445.39 311 445.13 310.34 444.61 309.82C444.09 309.3 443.446 309.04 442.678 309.04C441.91 309.04 441.266 309.3 440.746 309.82C440.226 310.34 439.966 311 439.966 311.8C439.966 312.6 440.226 313.26 440.746 313.78ZM453.07 307.6H454.726V316H453.466L449.866 310.864V316H448.21V307.6H449.47L453.07 312.724V307.6ZM458.36 316L455.54 307.6H457.34L459.392 314.056L461.432 307.6H463.244L460.412 316H458.36ZM465.709 314.416H469.249V316H464.053V307.6H469.189V309.184H465.709V310.972H468.889V312.532H465.709V314.416ZM475.025 316L473.333 313.084H472.073V316H470.417V307.6H473.777C474.553 307.6 475.213 307.872 475.757 308.416C476.301 308.96 476.573 309.616 476.573 310.384C476.573 310.904 476.425 311.388 476.129 311.836C475.833 312.276 475.441 312.608 474.953 312.832L476.813 316H475.025ZM472.073 309.148V311.632H473.777C474.089 311.632 474.357 311.512 474.581 311.272C474.805 311.024 474.917 310.728 474.917 310.384C474.917 310.04 474.805 309.748 474.581 309.508C474.357 309.268 474.089 309.148 473.777 309.148H472.073ZM480.527 316.168C479.695 316.168 478.995 315.984 478.427 315.616C477.859 315.24 477.459 314.732 477.227 314.092L478.643 313.264C478.971 314.12 479.615 314.548 480.575 314.548C481.039 314.548 481.379 314.464 481.595 314.296C481.811 314.128 481.919 313.916 481.919 313.66C481.919 313.364 481.787 313.136 481.523 312.976C481.259 312.808 480.787 312.628 480.107 312.436C479.731 312.324 479.411 312.212 479.147 312.1C478.891 311.988 478.631 311.84 478.367 311.656C478.111 311.464 477.915 311.224 477.779 310.936C477.643 310.648 477.575 310.312 477.575 309.928C477.575 309.168 477.843 308.564 478.379 308.116C478.923 307.66 479.575 307.432 480.335 307.432C481.015 307.432 481.611 307.6 482.123 307.936C482.643 308.264 483.047 308.724 483.335 309.316L481.943 310.12C481.607 309.4 481.071 309.04 480.335 309.04C479.991 309.04 479.719 309.12 479.519 309.28C479.327 309.432 479.231 309.632 479.231 309.88C479.231 310.144 479.339 310.36 479.555 310.528C479.779 310.688 480.203 310.864 480.827 311.056C481.083 311.136 481.275 311.2 481.403 311.248C481.539 311.288 481.719 311.356 481.943 311.452C482.175 311.54 482.351 311.624 482.471 311.704C482.599 311.784 482.743 311.892 482.903 312.028C483.063 312.164 483.183 312.304 483.263 312.448C483.351 312.592 483.423 312.768 483.479 312.976C483.543 313.176 483.575 313.396 483.575 313.636C483.575 314.412 483.291 315.028 482.723 315.484C482.163 315.94 481.431 316.168 480.527 316.168ZM484.596 307.6H486.252V316H484.596V307.6ZM494.875 314.908C494.027 315.748 492.995 316.168 491.779 316.168C490.563 316.168 489.531 315.748 488.683 314.908C487.843 314.06 487.423 313.024 487.423 311.8C487.423 310.576 487.843 309.544 488.683 308.704C489.531 307.856 490.563 307.432 491.779 307.432C492.995 307.432 494.027 307.856 494.875 308.704C495.723 309.544 496.147 310.576 496.147 311.8C496.147 313.024 495.723 314.06 494.875 314.908ZM489.847 313.78C490.367 314.292 491.011 314.548 491.779 314.548C492.547 314.548 493.191 314.292 493.711 313.78C494.231 313.26 494.491 312.6 494.491 311.8C494.491 311 494.231 310.34 493.711 309.82C493.191 309.3 492.547 309.04 491.779 309.04C491.011 309.04 490.367 309.3 489.847 309.82C489.327 310.34 489.067 311 489.067 311.8C489.067 312.6 489.327 313.26 489.847 313.78ZM502.171 307.6H503.827V316H502.567L498.967 310.864V316H497.311V307.6H498.571L502.171 312.724V307.6Z" fill="white"/>
<path d="M366.871 367.5H564.674C569.765 367.5 573.154 372.762 571.047 377.397L536.729 452.897C535.593 455.396 533.101 457 530.356 457H401.189C398.444 457 395.953 455.396 394.817 452.897L360.498 377.397C358.392 372.762 361.78 367.5 366.871 367.5Z" fill="#196FE6"/>
<path d="M423.27 408.168C422.006 408.168 420.962 407.748 420.138 406.908C419.314 406.068 418.902 405.032 418.902 403.8C418.902 402.56 419.314 401.524 420.138 400.692C420.962 399.852 422.006 399.432 423.27 399.432C424.03 399.432 424.73 399.612 425.37 399.972C426.018 400.324 426.522 400.804 426.882 401.412L425.454 402.24C425.246 401.864 424.95 401.572 424.566 401.364C424.182 401.148 423.75 401.04 423.27 401.04C422.454 401.04 421.794 401.296 421.29 401.808C420.794 402.32 420.546 402.984 420.546 403.8C420.546 404.608 420.794 405.268 421.29 405.78C421.794 406.292 422.454 406.548 423.27 406.548C423.75 406.548 424.182 406.444 424.566 406.236C424.958 406.02 425.254 405.728 425.454 405.36L426.882 406.188C426.522 406.796 426.022 407.28 425.382 407.64C424.742 407.992 424.038 408.168 423.27 408.168ZM429.555 406.416H432.759V408H427.899V399.6H429.555V406.416ZM433.7 399.6H435.356V408H433.7V399.6ZM438.567 406.416H442.107V408H436.911V399.6H442.047V401.184H438.567V402.972H441.747V404.532H438.567V406.416ZM448.134 399.6H449.79V408H448.53L444.93 402.864V408H443.274V399.6H444.534L448.134 404.724V399.6ZM456.904 399.6V401.184H454.636V408H452.98V401.184H450.724V399.6H456.904ZM465.437 408L463.745 405.084H462.485V408H460.829V399.6H464.189C464.965 399.6 465.625 399.872 466.169 400.416C466.713 400.96 466.985 401.616 466.985 402.384C466.985 402.904 466.837 403.388 466.541 403.836C466.245 404.276 465.853 404.608 465.365 404.832L467.225 408H465.437ZM462.485 401.148V403.632H464.189C464.501 403.632 464.769 403.512 464.993 403.272C465.217 403.024 465.329 402.728 465.329 402.384C465.329 402.04 465.217 401.748 464.993 401.508C464.769 401.268 464.501 401.148 464.189 401.148H462.485ZM469.856 406.416H473.396V408H468.2V399.6H473.336V401.184H469.856V402.972H473.036V404.532H469.856V406.416ZM476.219 406.416H479.423V408H474.563V399.6H476.219V406.416ZM485.998 408L485.494 406.488H482.146L481.642 408H479.854L482.794 399.6H484.846L487.798 408H485.998ZM482.674 404.94H484.978L483.826 401.508L482.674 404.94ZM493.561 399.6V401.184H491.293V408H489.637V401.184H487.381V399.6H493.561ZM494.485 399.6H496.141V408H494.485V399.6ZM504.764 406.908C503.916 407.748 502.884 408.168 501.668 408.168C500.452 408.168 499.42 407.748 498.572 406.908C497.732 406.06 497.312 405.024 497.312 403.8C497.312 402.576 497.732 401.544 498.572 400.704C499.42 399.856 500.452 399.432 501.668 399.432C502.884 399.432 503.916 399.856 504.764 400.704C505.612 401.544 506.036 402.576 506.036 403.8C506.036 405.024 505.612 406.06 504.764 406.908ZM499.736 405.78C500.256 406.292 500.9 406.548 501.668 406.548C502.436 406.548 503.08 406.292 503.6 405.78C504.12 405.26 504.38 404.6 504.38 403.8C504.38 403 504.12 402.34 503.6 401.82C503.08 401.3 502.436 401.04 501.668 401.04C500.9 401.04 500.256 401.3 499.736 401.82C499.216 402.34 498.956 403 498.956 403.8C498.956 404.6 499.216 405.26 499.736 405.78ZM512.06 399.6H513.716V408H512.456L508.856 402.864V408H507.2V399.6H508.46L512.06 404.724V399.6ZM435.463 414.6V423H433.819V417.552L431.455 421.452H431.263L428.899 417.564V423H427.243V414.6H428.947L431.359 418.572L433.759 414.6H435.463ZM442.428 423L441.924 421.488H438.576L438.072 423H436.284L439.224 414.6H441.276L444.228 423H442.428ZM439.104 419.94H441.408L440.256 416.508L439.104 419.94ZM449.904 414.6H451.56V423H450.3L446.7 417.864V423H445.044V414.6H446.304L449.904 419.724V414.6ZM458.518 423L458.014 421.488H454.666L454.162 423H452.374L455.314 414.6H457.366L460.318 423H458.518ZM455.194 419.94H457.498L456.346 416.508L455.194 419.94ZM469.073 418.488V419.136C469.073 420.336 468.689 421.308 467.921 422.052C467.153 422.796 466.161 423.168 464.945 423.168C463.649 423.168 462.573 422.748 461.717 421.908C460.869 421.06 460.445 420.028 460.445 418.812C460.445 417.588 460.865 416.552 461.705 415.704C462.553 414.856 463.601 414.432 464.849 414.432C465.633 414.432 466.349 414.612 466.997 414.972C467.645 415.324 468.149 415.796 468.509 416.388L467.093 417.204C466.893 416.86 466.589 416.58 466.181 416.364C465.781 416.148 465.333 416.04 464.837 416.04C464.037 416.04 463.377 416.304 462.857 416.832C462.345 417.352 462.089 418.012 462.089 418.812C462.089 419.604 462.349 420.26 462.869 420.78C463.397 421.292 464.093 421.548 464.957 421.548C465.597 421.548 466.125 421.408 466.541 421.128C466.965 420.84 467.253 420.448 467.405 419.952H464.861V418.488H469.073ZM471.907 421.416H475.447V423H470.251V414.6H475.387V416.184H471.907V417.972H475.087V419.532H471.907V421.416ZM484.834 414.6V423H483.19V417.552L480.826 421.452H480.634L478.27 417.564V423H476.614V414.6H478.318L480.73 418.572L483.13 414.6H484.834ZM488.055 421.416H491.595V423H486.399V414.6H491.535V416.184H488.055V417.972H491.235V419.532H488.055V421.416ZM497.622 414.6H499.278V423H498.018L494.418 417.864V423H492.762V414.6H494.022L497.622 419.724V414.6ZM506.393 414.6V416.184H504.125V423H502.469V416.184H500.213V414.6H506.393Z" fill="white"/>
<path d="M459.718 593.98L411.498 487.897C409.392 483.262 412.78 478 417.871 478H514.311C519.402 478 522.79 483.262 520.683 487.897L472.463 593.98C469.977 599.452 462.205 599.452 459.718 593.98Z" fill="#2B27F4"/>
<path d="M445.64 520L443.948 517.084H442.688V520H441.032V511.6H444.392C445.168 511.6 445.828 511.872 446.372 512.416C446.916 512.96 447.188 513.616 447.188 514.384C447.188 514.904 447.04 515.388 446.744 515.836C446.448 516.276 446.056 516.608 445.568 516.832L447.428 520H445.64ZM442.688 513.148V515.632H444.392C444.704 515.632 444.972 515.512 445.196 515.272C445.42 515.024 445.532 514.728 445.532 514.384C445.532 514.04 445.42 513.748 445.196 513.508C444.972 513.268 444.704 513.148 444.392 513.148H442.688ZM450.059 518.416H453.599V520H448.403V511.6H453.539V513.184H450.059V514.972H453.239V516.532H450.059V518.416ZM459.626 511.6H461.282V520H460.022L456.422 514.864V520H454.766V511.6H456.026L459.626 516.724V511.6ZM464.497 518.416H468.037V520H462.841V511.6H467.977V513.184H464.497V514.972H467.677V516.532H464.497V518.416ZM470.956 520L468.604 511.6H470.344L471.952 517.828L473.704 511.6H475.12L476.884 517.828L478.492 511.6H480.232L477.88 520H475.996L474.412 514.456L472.84 520H470.956ZM486.112 520L485.608 518.488H482.26L481.756 520H479.968L482.908 511.6H484.96L487.912 520H486.112ZM482.788 516.94H485.092L483.94 513.508L482.788 516.94ZM490.383 518.416H493.587V520H488.727V511.6H490.383V518.416Z" fill="white"/>
<rect x="179" y="148" width="40" height="35.1832" rx="4" fill="#D4E5FD"/>
<path d="M207.201 167.594C207.201 168.439 207.212 169.228 207.193 170.018C207.188 170.198 207.121 170.465 207 170.525C206.88 170.586 206.63 170.467 206.486 170.364C205.342 169.518 204.214 168.65 203.073 167.801C202.918 167.685 202.715 167.632 202.458 167.516C202.458 168.103 202.458 168.571 202.458 169.039C202.452 169.817 202.045 170.225 201.26 170.227C199.366 170.227 197.473 170.219 195.58 170.238C195.333 170.247 195.093 170.328 194.892 170.471C193.787 171.277 192.706 172.122 191.604 172.934C191.429 173.064 191.185 173.103 190.974 173.183C190.917 172.962 190.813 172.742 190.813 172.519C190.793 171.771 190.806 171.022 190.806 170.226C190.522 170.226 190.284 170.235 190.046 170.226C189.432 170.194 189.006 169.778 189.006 169.164C188.998 166.679 188.998 164.194 189.006 161.709C189.006 161.049 189.456 160.636 190.154 160.632C191.792 160.626 193.43 160.632 195.068 160.632H195.546C195.546 160.127 195.546 159.661 195.546 159.195C195.553 158.416 195.957 158.004 196.742 158.003C200.435 157.999 204.128 157.999 207.821 158.003C208.607 158.003 208.999 158.411 209 159.206C209 161.569 209 163.932 209 166.295C209 167.214 208.628 167.584 207.705 167.591C207.557 167.595 207.411 167.594 207.201 167.594ZM191.429 172.288C192.561 171.433 193.605 170.63 194.664 169.857C194.877 169.707 195.129 169.623 195.389 169.615C197.322 169.596 199.256 169.606 201.189 169.603C201.72 169.603 201.828 169.492 201.828 168.963C201.828 166.6 201.828 164.237 201.828 161.874C201.828 161.382 201.703 161.261 201.206 161.26C199.944 161.26 198.682 161.26 197.419 161.26C195.03 161.26 192.64 161.26 190.249 161.26C189.899 161.26 189.624 161.33 189.624 161.751C189.624 164.208 189.624 166.665 189.624 169.121C189.624 169.435 189.785 169.592 190.094 169.605C190.322 169.612 190.55 169.605 190.778 169.605C191.396 169.605 191.423 169.634 191.423 170.231C191.429 170.883 191.429 171.536 191.429 172.288ZM206.575 169.651C206.575 169.065 206.575 168.572 206.575 168.079C206.58 166.844 206.445 166.975 207.663 166.97C208.285 166.97 208.375 166.878 208.375 166.239C208.375 163.943 208.375 161.646 208.375 159.349C208.375 158.705 208.289 158.617 207.623 158.617H196.908C196.788 158.617 196.64 158.581 196.552 158.636C196.408 158.726 196.208 158.87 196.197 159.005C196.156 159.534 196.18 160.068 196.18 160.629H196.663C198.18 160.629 199.697 160.629 201.215 160.629C202.048 160.629 202.458 161.036 202.459 161.861C202.459 163.405 202.459 164.949 202.459 166.494V166.977C203.005 166.843 203.318 167.187 203.668 167.45C204.608 168.165 205.549 168.877 206.573 169.651H206.575Z" fill="#333333"/>
<path d="M200.294 165.426C200.294 165.574 200.264 165.722 200.206 165.859C200.149 165.996 200.065 166.12 199.959 166.225C199.854 166.33 199.728 166.413 199.591 166.469C199.453 166.525 199.306 166.554 199.157 166.554C199.008 166.553 198.861 166.523 198.724 166.465C198.587 166.408 198.462 166.324 198.357 166.218C198.253 166.113 198.17 165.987 198.113 165.85C198.057 165.712 198.028 165.565 198.029 165.416C198.03 165.116 198.151 164.828 198.364 164.616C198.578 164.405 198.866 164.287 199.167 164.288C199.467 164.289 199.755 164.41 199.966 164.623C200.178 164.837 200.296 165.125 200.294 165.426V165.426ZM199.979 165.447C199.986 165.231 199.906 165.02 199.758 164.862C199.609 164.704 199.404 164.611 199.188 164.604C198.971 164.597 198.76 164.676 198.602 164.825C198.444 164.973 198.351 165.178 198.344 165.395C198.341 165.502 198.358 165.609 198.396 165.71C198.434 165.81 198.491 165.902 198.565 165.981C198.638 166.059 198.727 166.122 198.824 166.166C198.922 166.211 199.028 166.235 199.135 166.239C199.243 166.242 199.349 166.224 199.45 166.186C199.55 166.148 199.642 166.091 199.721 166.018C199.799 165.944 199.862 165.856 199.906 165.758C199.951 165.66 199.975 165.555 199.979 165.447V165.447Z" fill="#333333"/>
<path d="M193.428 165.416C193.428 165.715 193.313 166.002 193.105 166.217C192.898 166.432 192.615 166.558 192.316 166.569C192.018 166.574 191.729 166.461 191.513 166.255C191.297 166.048 191.171 165.765 191.162 165.467C191.155 165.315 191.18 165.164 191.234 165.022C191.287 164.88 191.37 164.751 191.475 164.642C191.581 164.533 191.707 164.446 191.848 164.388C191.988 164.329 192.138 164.3 192.29 164.302C192.588 164.301 192.874 164.417 193.087 164.625C193.3 164.834 193.423 165.118 193.428 165.416V165.416ZM192.272 164.61C192.165 164.612 192.06 164.634 191.961 164.677C191.863 164.719 191.774 164.781 191.7 164.857C191.626 164.934 191.567 165.025 191.528 165.125C191.489 165.224 191.471 165.331 191.473 165.438C191.473 165.654 191.559 165.862 191.713 166.015C191.866 166.169 192.073 166.255 192.29 166.256C192.4 166.255 192.51 166.233 192.611 166.189C192.713 166.145 192.805 166.082 192.882 166.003C192.958 165.923 193.019 165.829 193.059 165.726C193.099 165.623 193.118 165.513 193.115 165.402C193.107 165.186 193.014 164.982 192.856 164.834C192.698 164.686 192.488 164.607 192.272 164.613V164.61Z" fill="#333333"/>
<path d="M195.726 166.57C195.427 166.565 195.142 166.445 194.931 166.235C194.719 166.025 194.596 165.74 194.589 165.442C194.588 165.291 194.618 165.141 194.676 165.001C194.734 164.862 194.82 164.735 194.928 164.629C195.035 164.523 195.163 164.439 195.304 164.383C195.444 164.327 195.595 164.3 195.746 164.303C195.894 164.304 196.04 164.335 196.176 164.393C196.312 164.451 196.435 164.535 196.538 164.641C196.642 164.747 196.723 164.872 196.777 165.01C196.832 165.147 196.858 165.294 196.855 165.442C196.852 165.741 196.732 166.026 196.521 166.237C196.31 166.448 196.024 166.567 195.726 166.57V166.57ZM196.548 165.442C196.553 165.224 196.471 165.013 196.32 164.855C196.169 164.697 195.962 164.606 195.744 164.601C195.526 164.596 195.315 164.677 195.157 164.828C194.999 164.979 194.908 165.186 194.903 165.404C194.9 165.512 194.919 165.62 194.958 165.72C194.997 165.821 195.055 165.913 195.13 165.991C195.205 166.07 195.294 166.132 195.393 166.176C195.492 166.219 195.598 166.243 195.706 166.246C195.814 166.248 195.922 166.229 196.022 166.19C196.123 166.151 196.215 166.093 196.293 166.018C196.371 165.944 196.434 165.854 196.478 165.755C196.521 165.657 196.545 165.55 196.548 165.442V165.442Z" fill="#333333"/>
<path d="M207.288 159.719H204.302C203.913 159.719 203.524 159.729 203.136 159.711C203.043 159.711 202.954 159.61 202.864 159.555C202.959 159.505 203.05 159.418 203.145 159.412C203.439 159.392 203.736 159.404 204.032 159.404C205.092 159.404 206.152 159.41 207.212 159.4C207.473 159.4 207.607 159.454 207.605 159.752C207.597 161.779 207.605 163.806 207.595 165.833C207.595 165.944 207.503 166.054 207.454 166.164C207.399 166.049 207.293 165.935 207.293 165.819C207.282 163.953 207.286 162.087 207.286 160.221L207.288 159.719Z" fill="#333333"/>
<path d="M8.24 171.092L7.568 169.076H3.104L2.432 171.092H0.048L3.968 159.892H6.704L10.64 171.092H8.24ZM3.808 167.012H6.88L5.344 162.436L3.808 167.012ZM16.8334 163.092H18.8974V171.092H16.8334V170.196C16.332 170.942 15.5374 171.316 14.4494 171.316C13.5747 171.316 12.8494 171.022 12.2734 170.436C11.708 169.849 11.4254 169.038 11.4254 168.004V163.092H13.4894V167.748C13.4894 168.281 13.6334 168.692 13.9214 168.98C14.2094 169.257 14.5934 169.396 15.0734 169.396C15.6067 169.396 16.0334 169.23 16.3534 168.9C16.6734 168.569 16.8334 168.073 16.8334 167.412V163.092ZM25.3638 165.076H23.5558V168.404C23.5558 168.681 23.6251 168.884 23.7638 169.012C23.9024 169.14 24.1051 169.214 24.3718 169.236C24.6384 169.246 24.9691 169.241 25.3638 169.22V171.092C23.9451 171.252 22.9424 171.118 22.3558 170.692C21.7798 170.265 21.4918 169.502 21.4918 168.404V165.076H20.0998V163.092H21.4918V161.476L23.5558 160.852V163.092H25.3638V165.076ZM33.385 170.1C32.5637 170.91 31.561 171.316 30.377 171.316C29.193 171.316 28.1903 170.91 27.369 170.1C26.5583 169.278 26.153 168.276 26.153 167.092C26.153 165.908 26.5583 164.91 27.369 164.1C28.1903 163.278 29.193 162.868 30.377 162.868C31.561 162.868 32.5637 163.278 33.385 164.1C34.2063 164.91 34.617 165.908 34.617 167.092C34.617 168.276 34.2063 169.278 33.385 170.1ZM28.825 168.676C29.241 169.092 29.7583 169.3 30.377 169.3C30.9957 169.3 31.513 169.092 31.929 168.676C32.345 168.26 32.553 167.732 32.553 167.092C32.553 166.452 32.345 165.924 31.929 165.508C31.513 165.092 30.9957 164.884 30.377 164.884C29.7583 164.884 29.241 165.092 28.825 165.508C28.4197 165.924 28.217 166.452 28.217 167.092C28.217 167.732 28.4197 168.26 28.825 168.676ZM44.917 162.868C45.8343 162.868 46.565 163.166 47.109 163.764C47.6637 164.361 47.941 165.161 47.941 166.164V171.092H45.877V166.308C45.877 165.828 45.7597 165.454 45.525 165.188C45.2903 164.921 44.9597 164.788 44.533 164.788C44.0637 164.788 43.6957 164.942 43.429 165.252C43.173 165.561 43.045 166.009 43.045 166.596V171.092H40.981V166.308C40.981 165.828 40.8637 165.454 40.629 165.188C40.3943 164.921 40.0637 164.788 39.637 164.788C39.1783 164.788 38.8103 164.942 38.533 165.252C38.2663 165.561 38.133 166.009 38.133 166.596V171.092H36.069V163.092H38.133V163.94C38.613 163.225 39.3543 162.868 40.357 162.868C41.3383 162.868 42.0637 163.252 42.533 164.02C43.0663 163.252 43.861 162.868 44.917 162.868ZM55.774 163.092H57.838V171.092H55.774V170.148C55.1553 170.926 54.286 171.316 53.166 171.316C52.0993 171.316 51.182 170.91 50.414 170.1C49.6567 169.278 49.278 168.276 49.278 167.092C49.278 165.908 49.6567 164.91 50.414 164.1C51.182 163.278 52.0993 162.868 53.166 162.868C54.286 162.868 55.1553 163.257 55.774 164.036V163.092ZM51.966 168.724C52.382 169.14 52.91 169.348 53.55 169.348C54.19 169.348 54.718 169.14 55.134 168.724C55.5607 168.297 55.774 167.753 55.774 167.092C55.774 166.43 55.5607 165.892 55.134 165.476C54.718 165.049 54.19 164.836 53.55 164.836C52.91 164.836 52.382 165.049 51.966 165.476C51.55 165.892 51.342 166.43 51.342 167.092C51.342 167.753 51.55 168.297 51.966 168.724ZM64.2856 165.076H62.4776V168.404C62.4776 168.681 62.547 168.884 62.6856 169.012C62.8243 169.14 63.027 169.214 63.2936 169.236C63.5603 169.246 63.891 169.241 64.2856 169.22V171.092C62.867 171.252 61.8643 171.118 61.2776 170.692C60.7016 170.265 60.4136 169.502 60.4136 168.404V165.076H59.0216V163.092H60.4136V161.476L62.4776 160.852V163.092H64.2856V165.076ZM67.2349 167.94C67.5122 168.942 68.2642 169.444 69.4909 169.444C70.2802 169.444 70.8775 169.177 71.2829 168.644L72.9469 169.604C72.1575 170.745 70.9949 171.316 69.4589 171.316C68.1362 171.316 67.0749 170.916 66.2749 170.116C65.4749 169.316 65.0749 168.308 65.0749 167.092C65.0749 165.886 65.4695 164.884 66.2589 164.084C67.0482 163.273 68.0615 162.868 69.2989 162.868C70.4722 162.868 71.4375 163.273 72.1949 164.084C72.9629 164.894 73.3469 165.897 73.3469 167.092C73.3469 167.358 73.3202 167.641 73.2669 167.94H67.2349ZM67.2029 166.34H71.2829C71.1655 165.796 70.9202 165.39 70.5469 165.124C70.1842 164.857 69.7682 164.724 69.2989 164.724C68.7442 164.724 68.2855 164.868 67.9229 165.156C67.5602 165.433 67.3202 165.828 67.2029 166.34ZM82.7078 171.316C81.5984 171.316 80.6651 171.07 79.9078 170.58C79.1504 170.078 78.6171 169.401 78.3078 168.548L80.1957 167.444C80.6331 168.585 81.4918 169.156 82.7718 169.156C83.3904 169.156 83.8438 169.044 84.1318 168.82C84.4198 168.596 84.5638 168.313 84.5638 167.972C84.5638 167.577 84.3878 167.273 84.0358 167.06C83.6838 166.836 83.0544 166.596 82.1478 166.34C81.6464 166.19 81.2198 166.041 80.8678 165.892C80.5264 165.742 80.1798 165.545 79.8278 165.3C79.4864 165.044 79.2251 164.724 79.0438 164.34C78.8624 163.956 78.7718 163.508 78.7718 162.996C78.7718 161.982 79.1291 161.177 79.8438 160.58C80.5691 159.972 81.4384 159.668 82.4518 159.668C83.3584 159.668 84.1531 159.892 84.8358 160.34C85.5291 160.777 86.0678 161.39 86.4518 162.18L84.5958 163.252C84.1478 162.292 83.4331 161.812 82.4518 161.812C81.9931 161.812 81.6304 161.918 81.3638 162.132C81.1078 162.334 80.9798 162.601 80.9798 162.932C80.9798 163.284 81.1238 163.572 81.4118 163.796C81.7104 164.009 82.2758 164.244 83.1078 164.5C83.4491 164.606 83.7051 164.692 83.8758 164.756C84.0571 164.809 84.2971 164.9 84.5958 165.028C84.9051 165.145 85.1398 165.257 85.2998 165.364C85.4704 165.47 85.6624 165.614 85.8758 165.796C86.0891 165.977 86.2491 166.164 86.3558 166.356C86.4731 166.548 86.5691 166.782 86.6438 167.06C86.7291 167.326 86.7718 167.62 86.7718 167.94C86.7718 168.974 86.3931 169.796 85.6358 170.404C84.8891 171.012 83.9131 171.316 82.7078 171.316ZM99.0938 159.892V171.092H96.9018V163.828L93.7498 169.028H93.4938L90.3418 163.844V171.092H88.1338V159.892H90.4058L93.6218 165.188L96.8218 159.892H99.0938ZM104.833 171.316C103.723 171.316 102.79 171.07 102.033 170.58C101.275 170.078 100.742 169.401 100.433 168.548L102.321 167.444C102.758 168.585 103.617 169.156 104.897 169.156C105.515 169.156 105.969 169.044 106.257 168.82C106.545 168.596 106.689 168.313 106.689 167.972C106.689 167.577 106.513 167.273 106.161 167.06C105.809 166.836 105.179 166.596 104.273 166.34C103.771 166.19 103.345 166.041 102.993 165.892C102.651 165.742 102.305 165.545 101.953 165.3C101.611 165.044 101.35 164.724 101.169 164.34C100.987 163.956 100.897 163.508 100.897 162.996C100.897 161.982 101.254 161.177 101.969 160.58C102.694 159.972 103.563 159.668 104.577 159.668C105.483 159.668 106.278 159.892 106.961 160.34C107.654 160.777 108.193 161.39 108.577 162.18L106.721 163.252C106.273 162.292 105.558 161.812 104.577 161.812C104.118 161.812 103.755 161.918 103.489 162.132C103.233 162.334 103.105 162.601 103.105 162.932C103.105 163.284 103.249 163.572 103.537 163.796C103.835 164.009 104.401 164.244 105.233 164.5C105.574 164.606 105.83 164.692 106.001 164.756C106.182 164.809 106.422 164.9 106.721 165.028C107.03 165.145 107.265 165.257 107.425 165.364C107.595 165.47 107.787 165.614 108.001 165.796C108.214 165.977 108.374 166.164 108.481 166.356C108.598 166.548 108.694 166.782 108.769 167.06C108.854 167.326 108.897 167.62 108.897 167.94C108.897 168.974 108.518 169.796 107.761 170.404C107.014 171.012 106.038 171.316 104.833 171.316ZM123.729 170.452L121.969 171.46L120.945 170.356C120.081 170.996 119.078 171.316 117.937 171.316C116.785 171.316 115.841 171.017 115.105 170.42C114.38 169.812 114.017 169.001 114.017 167.988C114.017 167.326 114.177 166.713 114.497 166.148C114.817 165.582 115.281 165.124 115.889 164.772C115.526 164.196 115.345 163.572 115.345 162.9C115.345 161.95 115.676 161.177 116.337 160.58C116.998 159.972 117.836 159.668 118.849 159.668C119.649 159.668 120.364 159.876 120.993 160.292C121.633 160.697 122.108 161.289 122.417 162.068L120.529 163.156C120.22 162.26 119.67 161.812 118.881 161.812C118.497 161.812 118.177 161.924 117.921 162.148C117.676 162.372 117.553 162.654 117.553 162.996C117.553 163.294 117.622 163.566 117.761 163.812C117.91 164.057 118.145 164.35 118.465 164.692L120.865 167.316C121.1 166.814 121.281 166.196 121.409 165.46L123.265 166.516C123.062 167.38 122.737 168.164 122.289 168.868L123.729 170.452ZM118.081 169.284C118.636 169.284 119.132 169.15 119.569 168.884L117.153 166.26C117.132 166.238 117.121 166.222 117.121 166.212C116.534 166.574 116.241 167.092 116.241 167.764C116.241 168.222 116.396 168.59 116.705 168.868C117.025 169.145 117.484 169.284 118.081 169.284ZM131.311 168.98H136.031V171.092H129.103V159.892H135.951V162.004H131.311V164.388H135.551V166.468H131.311V168.98ZM146.339 162.868C147.256 162.868 147.987 163.166 148.531 163.764C149.086 164.361 149.363 165.161 149.363 166.164V171.092H147.299V166.308C147.299 165.828 147.182 165.454 146.947 165.188C146.712 164.921 146.382 164.788 145.955 164.788C145.486 164.788 145.118 164.942 144.851 165.252C144.595 165.561 144.467 166.009 144.467 166.596V171.092H142.403V166.308C142.403 165.828 142.286 165.454 142.051 165.188C141.816 164.921 141.486 164.788 141.059 164.788C140.6 164.788 140.232 164.942 139.955 165.252C139.688 165.561 139.555 166.009 139.555 166.596V171.092H137.491V163.092H139.555V163.94C140.035 163.225 140.776 162.868 141.779 162.868C142.76 162.868 143.486 163.252 143.955 164.02C144.488 163.252 145.283 162.868 146.339 162.868ZM157.196 163.092H159.26V171.092H157.196V170.148C156.577 170.926 155.708 171.316 154.588 171.316C153.521 171.316 152.604 170.91 151.836 170.1C151.079 169.278 150.7 168.276 150.7 167.092C150.7 165.908 151.079 164.91 151.836 164.1C152.604 163.278 153.521 162.868 154.588 162.868C155.708 162.868 156.577 163.257 157.196 164.036V163.092ZM153.388 168.724C153.804 169.14 154.332 169.348 154.972 169.348C155.612 169.348 156.14 169.14 156.556 168.724C156.983 168.297 157.196 167.753 157.196 167.092C157.196 166.43 156.983 165.892 156.556 165.476C156.14 165.049 155.612 164.836 154.972 164.836C154.332 164.836 153.804 165.049 153.388 165.476C152.972 165.892 152.764 166.43 152.764 167.092C152.764 167.753 152.972 168.297 153.388 168.724ZM162.156 162.132C161.814 162.132 161.516 162.009 161.26 161.764C161.014 161.508 160.892 161.209 160.892 160.868C160.892 160.526 161.014 160.228 161.26 159.972C161.516 159.716 161.814 159.588 162.156 159.588C162.508 159.588 162.806 159.716 163.052 159.972C163.308 160.228 163.436 160.526 163.436 160.868C163.436 161.209 163.308 161.508 163.052 161.764C162.806 162.009 162.508 162.132 162.156 162.132ZM161.132 171.092V163.092H163.196V171.092H161.132ZM165.085 171.092V159.412H167.149V171.092H165.085Z" fill="#666666"/>
<rect x="213" y="418" width="40" height="36.6836" rx="4" fill="#FDE0D4"/>
<path d="M229.735 433.405C229.818 433.113 229.889 432.82 229.985 432.531C230.251 431.704 230.679 430.938 231.244 430.279C231.81 429.619 232.501 429.079 233.278 428.691C234.055 428.302 234.901 428.072 235.768 428.014C236.635 427.957 237.504 428.073 238.326 428.356C241.76 429.532 243.566 433.301 242.361 436.745C242.275 437.002 242.255 437.277 242.303 437.544C242.502 438.61 242.741 439.668 242.962 440.73C243.082 441.305 242.926 441.444 242.348 441.278C241.386 441.002 240.428 440.717 239.462 440.454C239.294 440.405 239.114 440.412 238.95 440.472C237.409 441.161 235.836 441.248 234.226 440.766C234.174 440.75 234.12 440.74 234.051 440.722C234.003 440.83 233.955 440.928 233.912 441.029C232.706 443.892 229.495 445.208 226.62 444.035C226.382 443.947 226.123 443.931 225.876 443.989C225.124 444.176 224.378 444.412 223.628 444.625C223.082 444.781 222.921 444.634 223.034 444.089C223.223 443.177 223.42 442.266 223.596 441.351C223.628 441.177 223.616 440.998 223.56 440.83C222.162 436.781 225.322 432.894 229.593 433.413C229.641 433.414 229.688 433.411 229.735 433.405V433.405ZM233.533 436.02C234.275 437.327 234.48 438.659 234.235 440.039C235.591 440.585 237.285 440.52 238.661 439.855C238.807 439.779 238.967 439.735 239.131 439.723C239.296 439.712 239.461 439.734 239.616 439.788C240.461 440.05 241.315 440.289 242.218 440.549C242.185 440.348 242.165 440.201 242.135 440.057C241.954 439.185 241.755 438.317 241.599 437.441C241.56 437.187 241.584 436.928 241.669 436.685C242.453 434.423 242.127 432.342 240.506 430.584C238.885 428.825 236.814 428.273 234.494 428.928C232.365 429.527 230.63 431.544 230.437 433.593C231.346 433.895 232.17 434.41 232.839 435.096C232.991 435.242 233.19 435.328 233.401 435.338C235.488 435.355 237.576 435.349 239.664 435.349C239.775 435.349 239.914 435.31 239.993 435.36C240.127 435.444 240.226 435.581 240.341 435.694C240.232 435.801 240.14 435.957 240.007 436C239.84 436.054 239.649 436.017 239.468 436.017L233.533 436.02ZM223.758 443.892C224.54 443.669 225.228 443.447 225.929 443.285C226.191 443.228 226.463 443.253 226.711 443.355C227.741 443.835 228.906 443.943 230.006 443.66C231.107 443.376 232.074 442.718 232.743 441.799C233.412 440.881 233.741 439.758 233.673 438.623C233.605 437.489 233.145 436.413 232.371 435.581C231.597 434.748 230.558 434.211 229.431 434.061C228.305 433.91 227.161 434.156 226.196 434.757C225.231 435.357 224.504 436.274 224.141 437.351C223.778 438.428 223.801 439.598 224.205 440.66C224.289 440.905 224.308 441.166 224.262 441.421C224.119 442.224 223.938 443.021 223.758 443.892Z" fill="#333333"/>
<path d="M236.381 431.343C237.522 431.343 238.662 431.343 239.805 431.343C240.055 431.343 240.325 431.343 240.332 431.666C240.34 432.019 240.052 432.014 239.79 432.013C237.522 432.013 235.255 432.013 232.987 432.013C232.89 432.013 232.773 432.046 232.7 432.002C232.567 431.91 232.443 431.805 232.33 431.69C232.457 431.575 232.581 431.368 232.712 431.356C233.38 431.321 234.048 431.338 234.716 431.337H236.386L236.381 431.343Z" fill="#333333"/>
<path d="M236.295 434.016C235.141 434.016 233.987 434.026 232.833 434.007C232.666 434.007 232.439 433.907 232.357 433.779C232.214 433.555 232.441 433.349 232.82 433.349C234.156 433.344 235.492 433.344 236.828 433.349C237.816 433.349 238.803 433.349 239.791 433.349C240.052 433.349 240.341 433.344 240.331 433.698C240.322 434.017 240.052 434.02 239.803 434.019C238.632 434.016 237.463 434.016 236.295 434.016Z" fill="#333333"/>
<path d="M235.988 438.024C235.725 438.024 235.455 438.06 235.203 438.009C235.069 437.981 234.966 437.8 234.849 437.688C234.969 437.579 235.082 437.384 235.209 437.375C235.734 437.339 236.26 437.339 236.784 437.375C236.908 437.383 237.018 437.584 237.135 437.695C237.016 437.805 236.91 437.982 236.774 438.009C236.522 438.059 236.255 438.024 235.988 438.024Z" fill="#333333"/>
<path d="M228.961 437.356C228.029 437.356 227.097 437.356 226.165 437.356C225.914 437.356 225.651 437.348 225.654 437.022C225.656 436.696 225.917 436.688 226.169 436.688C228.047 436.691 229.924 436.691 231.802 436.688C232.053 436.688 232.317 436.7 232.315 437.022C232.313 437.344 232.049 437.356 231.799 437.356C230.853 437.356 229.908 437.356 228.961 437.356Z" fill="#333333"/>
<path d="M228.99 439.361C228.043 439.361 227.097 439.361 226.15 439.361C225.9 439.361 225.643 439.341 225.649 439.012C225.658 438.713 225.9 438.691 226.135 438.691C228.028 438.691 229.921 438.691 231.814 438.691C232.069 438.691 232.323 438.715 232.315 439.04C232.307 439.333 232.064 439.361 231.827 439.361C230.882 439.361 229.936 439.361 228.99 439.361Z" fill="#333333"/>
<path d="M227.302 441.364H226.054C225.812 441.364 225.607 441.26 225.661 441.01C225.689 440.883 225.912 440.714 226.059 440.709C226.889 440.681 227.721 440.679 228.552 440.709C228.701 440.714 228.842 440.917 228.987 441.028C228.841 441.14 228.704 441.329 228.548 441.347C228.137 441.395 227.718 441.364 227.302 441.364Z" fill="#333333"/>
<path d="M74.184 441.842L71.928 437.954H70.248V441.842H68.04V430.642H72.52C73.5547 430.642 74.4347 431.004 75.16 431.73C75.8853 432.455 76.248 433.33 76.248 434.354C76.248 435.047 76.0507 435.692 75.656 436.29C75.2613 436.876 74.7387 437.319 74.088 437.618L76.568 441.842H74.184ZM70.248 432.706V436.018H72.52C72.936 436.018 73.2933 435.858 73.592 435.538C73.8907 435.207 74.04 434.812 74.04 434.354C74.04 433.895 73.8907 433.506 73.592 433.186C73.2933 432.866 72.936 432.706 72.52 432.706H70.248ZM79.1099 438.69C79.3872 439.692 80.1392 440.194 81.3659 440.194C82.1552 440.194 82.7525 439.927 83.1579 439.394L84.8219 440.354C84.0325 441.495 82.8699 442.066 81.3339 442.066C80.0112 442.066 78.9499 441.666 78.1499 440.866C77.3499 440.066 76.9499 439.058 76.9499 437.842C76.9499 436.636 77.3445 435.634 78.1339 434.834C78.9232 434.023 79.9365 433.618 81.1739 433.618C82.3472 433.618 83.3125 434.023 84.0699 434.834C84.8379 435.644 85.2219 436.647 85.2219 437.842C85.2219 438.108 85.1952 438.391 85.1419 438.69H79.1099ZM79.0779 437.09H83.1579C83.0405 436.546 82.7952 436.14 82.4219 435.874C82.0592 435.607 81.6432 435.474 81.1739 435.474C80.6192 435.474 80.1605 435.618 79.7979 435.906C79.4352 436.183 79.1952 436.578 79.0779 437.09ZM92.7283 433.842H94.7443V441.458C94.7443 442.695 94.3336 443.639 93.5123 444.29C92.7016 444.94 91.7203 445.266 90.5683 445.266C89.7043 445.266 88.9416 445.1 88.2803 444.77C87.6296 444.439 87.1283 443.954 86.7763 443.314L88.5363 442.306C88.9416 443.052 89.6403 443.426 90.6323 443.426C91.2829 443.426 91.7949 443.255 92.1683 442.914C92.5416 442.572 92.7283 442.087 92.7283 441.458V440.594C92.1203 441.404 91.2669 441.81 90.1683 441.81C89.0376 441.81 88.0883 441.415 87.3203 440.626C86.5629 439.826 86.1842 438.855 86.1842 437.714C86.1842 436.583 86.5683 435.618 87.3363 434.818C88.1043 434.018 89.0483 433.618 90.1683 433.618C91.2669 433.618 92.1203 434.023 92.7283 434.834V433.842ZM88.8723 439.298C89.2989 439.703 89.8376 439.906 90.4883 439.906C91.1389 439.906 91.6723 439.703 92.0883 439.298C92.5149 438.882 92.7283 438.354 92.7283 437.714C92.7283 437.084 92.5149 436.567 92.0883 436.162C91.6723 435.746 91.1389 435.538 90.4883 435.538C89.8376 435.538 89.2989 435.746 88.8723 436.162C88.4563 436.567 88.2483 437.084 88.2483 437.714C88.2483 438.354 88.4563 438.882 88.8723 439.298ZM101.896 433.842H103.96V441.842H101.896V440.946C101.395 441.692 100.6 442.066 99.5119 442.066C98.6372 442.066 97.9119 441.772 97.3359 441.186C96.7705 440.599 96.4879 439.788 96.4879 438.754V433.842H98.5519V438.498C98.5519 439.031 98.6959 439.442 98.9839 439.73C99.2719 440.007 99.6559 440.146 100.136 440.146C100.669 440.146 101.096 439.98 101.416 439.65C101.736 439.319 101.896 438.823 101.896 438.162V433.842ZM105.85 441.842V430.162H107.914V441.842H105.85ZM115.883 433.842H117.947V441.842H115.883V440.898C115.265 441.676 114.395 442.066 113.275 442.066C112.209 442.066 111.291 441.66 110.523 440.85C109.766 440.028 109.387 439.026 109.387 437.842C109.387 436.658 109.766 435.66 110.523 434.85C111.291 434.028 112.209 433.618 113.275 433.618C114.395 433.618 115.265 434.007 115.883 434.786V433.842ZM112.075 439.474C112.491 439.89 113.019 440.098 113.659 440.098C114.299 440.098 114.827 439.89 115.243 439.474C115.67 439.047 115.883 438.503 115.883 437.842C115.883 437.18 115.67 436.642 115.243 436.226C114.827 435.799 114.299 435.586 113.659 435.586C113.019 435.586 112.491 435.799 112.075 436.226C111.659 436.642 111.451 437.18 111.451 437.842C111.451 438.503 111.659 439.047 112.075 439.474ZM121.883 435.218C122.075 434.706 122.39 434.322 122.827 434.066C123.275 433.81 123.771 433.682 124.315 433.682V435.986C123.686 435.911 123.12 436.039 122.619 436.37C122.128 436.7 121.883 437.25 121.883 438.018V441.842H119.819V433.842H121.883V435.218ZM136.306 432.754H131.826V435.41H136.178V437.522H131.826V441.842H129.618V430.642H136.306V432.754ZM139.563 438.69C139.84 439.692 140.592 440.194 141.819 440.194C142.608 440.194 143.206 439.927 143.611 439.394L145.275 440.354C144.486 441.495 143.323 442.066 141.787 442.066C140.464 442.066 139.403 441.666 138.603 440.866C137.803 440.066 137.403 439.058 137.403 437.842C137.403 436.636 137.798 435.634 138.587 434.834C139.376 434.023 140.39 433.618 141.627 433.618C142.8 433.618 143.766 434.023 144.523 434.834C145.291 435.644 145.675 436.647 145.675 437.842C145.675 438.108 145.648 438.391 145.595 438.69H139.563ZM139.531 437.09H143.611C143.494 436.546 143.248 436.14 142.875 435.874C142.512 435.607 142.096 435.474 141.627 435.474C141.072 435.474 140.614 435.618 140.251 435.906C139.888 436.183 139.648 436.578 139.531 437.09ZM148.797 438.69C149.075 439.692 149.827 440.194 151.053 440.194C151.843 440.194 152.44 439.927 152.845 439.394L154.509 440.354C153.72 441.495 152.557 442.066 151.021 442.066C149.699 442.066 148.637 441.666 147.837 440.866C147.037 440.066 146.637 439.058 146.637 437.842C146.637 436.636 147.032 435.634 147.821 434.834C148.611 434.023 149.624 433.618 150.861 433.618C152.035 433.618 153 434.023 153.757 434.834C154.525 435.644 154.909 436.647 154.909 437.842C154.909 438.108 154.883 438.391 154.829 438.69H148.797ZM148.765 437.09H152.845C152.728 436.546 152.483 436.14 152.109 435.874C151.747 435.607 151.331 435.474 150.861 435.474C150.307 435.474 149.848 435.618 149.485 435.906C149.123 436.183 148.883 436.578 148.765 437.09ZM162.352 430.642H164.416V441.842H162.352V440.898C161.744 441.676 160.88 442.066 159.76 442.066C158.682 442.066 157.76 441.66 156.992 440.85C156.234 440.028 155.856 439.026 155.856 437.842C155.856 436.658 156.234 435.66 156.992 434.85C157.76 434.028 158.682 433.618 159.76 433.618C160.88 433.618 161.744 434.007 162.352 434.786V430.642ZM158.544 439.474C158.97 439.89 159.504 440.098 160.144 440.098C160.784 440.098 161.312 439.89 161.728 439.474C162.144 439.047 162.352 438.503 162.352 437.842C162.352 437.18 162.144 436.642 161.728 436.226C161.312 435.799 160.784 435.586 160.144 435.586C159.504 435.586 158.97 435.799 158.544 436.226C158.128 436.642 157.92 437.18 157.92 437.842C157.92 438.503 158.128 439.047 158.544 439.474ZM170.959 433.618C172.037 433.618 172.954 434.028 173.711 434.85C174.479 435.66 174.863 436.658 174.863 437.842C174.863 439.026 174.479 440.028 173.711 440.85C172.954 441.66 172.037 442.066 170.959 442.066C169.839 442.066 168.975 441.676 168.367 440.898V441.842H166.303V430.642H168.367V434.786C168.975 434.007 169.839 433.618 170.959 433.618ZM168.991 439.474C169.407 439.89 169.935 440.098 170.575 440.098C171.215 440.098 171.743 439.89 172.159 439.474C172.586 439.047 172.799 438.503 172.799 437.842C172.799 437.18 172.586 436.642 172.159 436.226C171.743 435.799 171.215 435.586 170.575 435.586C169.935 435.586 169.407 435.799 168.991 436.226C168.575 436.642 168.367 437.18 168.367 437.842C168.367 438.503 168.575 439.047 168.991 439.474ZM182.399 433.842H184.463V441.842H182.399V440.898C181.78 441.676 180.911 442.066 179.791 442.066C178.724 442.066 177.807 441.66 177.039 440.85C176.282 440.028 175.903 439.026 175.903 437.842C175.903 436.658 176.282 435.66 177.039 434.85C177.807 434.028 178.724 433.618 179.791 433.618C180.911 433.618 181.78 434.007 182.399 434.786V433.842ZM178.591 439.474C179.007 439.89 179.535 440.098 180.175 440.098C180.815 440.098 181.343 439.89 181.759 439.474C182.186 439.047 182.399 438.503 182.399 437.842C182.399 437.18 182.186 436.642 181.759 436.226C181.343 435.799 180.815 435.586 180.175 435.586C179.535 435.586 179.007 435.799 178.591 436.226C178.175 436.642 177.967 437.18 177.967 437.842C177.967 438.503 178.175 439.047 178.591 439.474ZM190.143 442.066C188.937 442.066 187.929 441.66 187.119 440.85C186.319 440.039 185.919 439.036 185.919 437.842C185.919 436.647 186.319 435.644 187.119 434.834C187.929 434.023 188.937 433.618 190.143 433.618C190.921 433.618 191.631 433.804 192.271 434.178C192.911 434.551 193.396 435.052 193.727 435.682L191.951 436.722C191.791 436.391 191.545 436.13 191.215 435.938C190.895 435.746 190.532 435.65 190.127 435.65C189.508 435.65 188.996 435.858 188.591 436.274C188.185 436.679 187.983 437.202 187.983 437.842C187.983 438.471 188.185 438.994 188.591 439.41C188.996 439.815 189.508 440.018 190.127 440.018C190.543 440.018 190.911 439.927 191.231 439.746C191.561 439.554 191.807 439.292 191.967 438.962L193.759 439.986C193.407 440.615 192.911 441.122 192.271 441.506C191.631 441.879 190.921 442.066 190.143 442.066ZM202.226 441.842H199.826L196.914 438.21V441.842H194.85V430.642H196.914V437.362L199.666 433.842H202.13L198.914 437.794L202.226 441.842Z" fill="#666666"/>
<rect x="155" y="293" width="40" height="31.6624" rx="4" fill="#DAF0FF"/>
<path d="M185 310.697C184.744 311.189 184.343 311.363 183.789 311.346C182.75 311.314 181.71 311.337 180.666 311.337H180.265C180.445 311.813 180.632 312.256 180.778 312.714C180.84 312.906 180.83 313.125 180.828 313.332C180.822 314.191 180.353 314.659 179.494 314.659C177.464 314.664 175.436 314.664 173.41 314.659C172.448 314.659 171.486 314.659 170.521 314.659C169.654 314.656 169.209 314.206 169.184 313.338C169.163 312.61 169.341 311.951 169.887 311.339C169.696 311.328 169.575 311.314 169.456 311.314C168.39 311.314 167.323 311.288 166.255 311.322C165.668 311.341 165.247 311.161 165 310.619V309.76C165.486 308.276 166.769 307.929 168.07 307.674C169.372 307.42 170.562 307.837 171.657 308.533C172.134 308.835 172.316 309.19 172.527 310.058C174.137 309.57 175.855 309.572 177.464 310.063C177.791 308.297 179.197 307.955 180.588 307.677C181.888 307.416 183.099 307.812 184.159 308.558C184.532 308.81 184.727 309.299 185 309.682V310.697ZM174.986 313.844H175.181C176.613 313.844 178.044 313.844 179.476 313.844C179.724 313.844 179.95 313.829 180.013 313.523C180.091 313.149 180.047 312.761 179.888 312.415C179.728 312.069 179.462 311.783 179.127 311.599C178.762 311.403 178.385 311.229 177.998 311.078C175.625 310.147 173.317 310.364 171.063 311.493C170.336 311.857 169.975 312.423 169.996 313.241C170.009 313.769 170.074 313.842 170.615 313.843L174.986 313.844ZM181.408 310.546C182.123 310.546 182.838 310.546 183.552 310.546C184.226 310.546 184.386 310.318 184.103 309.682C184.015 309.48 183.872 309.308 183.691 309.183C182.693 308.55 181.607 308.205 180.431 308.522C179.841 308.678 179.275 308.967 178.733 309.262C178.402 309.444 178.183 310.054 178.368 310.244C178.553 310.434 178.878 310.52 179.149 310.533C179.898 310.57 180.653 310.545 181.408 310.546ZM165.889 310.486C165.995 310.495 166.11 310.513 166.224 310.513C167.811 310.513 169.398 310.513 170.987 310.513C171.116 310.509 171.245 310.493 171.372 310.464C171.637 310.413 171.723 310.256 171.684 309.985C171.661 309.804 171.597 309.631 171.494 309.48C171.392 309.329 171.256 309.204 171.096 309.116C169.534 308.179 167.973 308.187 166.411 309.123C165.908 309.424 165.753 309.838 165.889 310.486Z" fill="#333333"/>
<path d="M177.903 305.922C177.902 306.684 177.6 307.415 177.064 307.955C176.528 308.496 175.8 308.804 175.038 308.812C173.395 308.822 172.116 307.523 172.116 305.861C172.116 304.293 173.431 303.007 175.02 303.015C175.401 303.014 175.778 303.089 176.13 303.235C176.482 303.381 176.801 303.596 177.069 303.866C177.337 304.137 177.549 304.458 177.692 304.811C177.835 305.164 177.907 305.542 177.903 305.922ZM175.005 303.814C174.59 303.817 174.185 303.942 173.841 304.175C173.498 304.408 173.231 304.738 173.075 305.123C172.919 305.508 172.881 305.93 172.965 306.336C173.05 306.743 173.253 307.115 173.549 307.406C173.846 307.696 174.222 307.893 174.629 307.969C175.037 308.046 175.459 308 175.841 307.837C176.222 307.674 176.547 307.401 176.774 307.054C177 306.706 177.118 306.298 177.113 305.883C177.103 305.331 176.876 304.805 176.482 304.419C176.088 304.032 175.558 303.815 175.006 303.815L175.005 303.814Z" fill="#333333"/>
<path d="M179.202 305.06C179.202 304.79 179.256 304.522 179.36 304.273C179.464 304.023 179.617 303.797 179.809 303.607C180.001 303.417 180.229 303.267 180.48 303.165C180.73 303.064 180.998 303.013 181.268 303.016C181.678 303.016 182.079 303.137 182.42 303.365C182.76 303.594 183.025 303.918 183.181 304.297C183.337 304.676 183.377 305.093 183.295 305.495C183.214 305.897 183.014 306.265 182.723 306.553C182.432 306.842 182.061 307.037 181.658 307.114C181.256 307.191 180.839 307.147 180.462 306.987C180.084 306.827 179.763 306.558 179.539 306.215C179.314 305.872 179.197 305.47 179.202 305.06V305.06ZM182.515 305.094C182.52 304.929 182.491 304.764 182.431 304.609C182.371 304.455 182.28 304.314 182.165 304.195C182.049 304.076 181.911 303.981 181.759 303.916C181.606 303.852 181.442 303.818 181.276 303.818C181.111 303.815 180.947 303.846 180.793 303.907C180.639 303.969 180.499 304.059 180.381 304.175C180.262 304.29 180.168 304.428 180.102 304.58C180.037 304.732 180.002 304.895 180 305.061C179.998 305.226 180.029 305.39 180.09 305.544C180.151 305.698 180.242 305.838 180.358 305.956C180.473 306.075 180.611 306.169 180.763 306.234C180.915 306.3 181.078 306.334 181.243 306.337C181.409 306.341 181.574 306.312 181.729 306.252C181.883 306.191 182.024 306.1 182.142 305.985C182.261 305.869 182.355 305.73 182.419 305.577C182.483 305.424 182.516 305.26 182.515 305.094V305.094Z" fill="#333333"/>
<path d="M166.698 305.067C166.698 304.519 166.915 303.993 167.303 303.605C167.69 303.218 168.216 303 168.764 303C169.313 303 169.838 303.218 170.226 303.605C170.613 303.993 170.831 304.519 170.831 305.067C170.831 305.338 170.778 305.607 170.674 305.858C170.57 306.109 170.418 306.336 170.226 306.528C170.034 306.72 169.806 306.872 169.555 306.976C169.305 307.08 169.036 307.134 168.764 307.134C168.493 307.134 168.224 307.08 167.973 306.976C167.723 306.872 167.495 306.72 167.303 306.528C167.111 306.336 166.959 306.109 166.855 305.858C166.751 305.607 166.698 305.338 166.698 305.067V305.067ZM168.772 306.336C169.106 306.333 169.426 306.197 169.66 305.959C169.894 305.72 170.024 305.399 170.021 305.064C170.019 304.73 169.883 304.411 169.645 304.177C169.406 303.942 169.085 303.812 168.75 303.815C168.585 303.817 168.421 303.851 168.269 303.915C168.116 303.98 167.978 304.074 167.862 304.192C167.746 304.31 167.655 304.45 167.593 304.603C167.531 304.757 167.5 304.921 167.501 305.086C167.502 305.252 167.536 305.415 167.601 305.568C167.666 305.72 167.76 305.858 167.878 305.974C167.996 306.09 168.136 306.182 168.289 306.244C168.442 306.306 168.607 306.337 168.772 306.336V306.336Z" fill="#333333"/>
<path d="M95.216 303.131C96.2933 303.131 97.2 303.494 97.936 304.219C98.672 304.944 99.04 305.835 99.04 306.891C99.04 307.947 98.672 308.838 97.936 309.563C97.2 310.288 96.2933 310.651 95.216 310.651H93.248V314.331H91.04V303.131H95.216ZM95.216 308.587C95.6853 308.587 96.0747 308.427 96.384 308.107C96.6933 307.776 96.848 307.371 96.848 306.891C96.848 306.4 96.6933 305.995 96.384 305.675C96.0747 305.355 95.6853 305.195 95.216 305.195H93.248V308.587H95.216ZM105.662 306.331H107.726V314.331H105.662V313.435C105.16 314.182 104.366 314.555 103.278 314.555C102.403 314.555 101.678 314.262 101.102 313.675C100.536 313.088 100.254 312.278 100.254 311.243V306.331H102.318V310.987C102.318 311.52 102.462 311.931 102.75 312.219C103.038 312.496 103.422 312.635 103.902 312.635C104.435 312.635 104.862 312.47 105.182 312.139C105.502 311.808 105.662 311.312 105.662 310.651V306.331ZM111.457 308.603C111.457 308.816 111.596 308.992 111.873 309.131C112.161 309.259 112.508 309.376 112.913 309.483C113.319 309.579 113.724 309.707 114.129 309.867C114.535 310.016 114.876 310.272 115.153 310.635C115.441 310.998 115.585 311.451 115.585 311.995C115.585 312.816 115.276 313.451 114.657 313.899C114.049 314.336 113.287 314.555 112.369 314.555C110.727 314.555 109.607 313.92 109.009 312.651L110.801 311.643C111.036 312.336 111.559 312.683 112.369 312.683C113.105 312.683 113.473 312.454 113.473 311.995C113.473 311.782 113.329 311.611 113.041 311.483C112.764 311.344 112.423 311.222 112.017 311.115C111.612 311.008 111.207 310.875 110.801 310.715C110.396 310.555 110.049 310.304 109.761 309.963C109.484 309.611 109.345 309.174 109.345 308.651C109.345 307.862 109.633 307.243 110.209 306.795C110.796 306.336 111.521 306.107 112.385 306.107C113.036 306.107 113.628 306.256 114.161 306.555C114.695 306.843 115.116 307.259 115.425 307.803L113.665 308.763C113.409 308.219 112.983 307.947 112.385 307.947C112.119 307.947 111.895 308.006 111.713 308.123C111.543 308.24 111.457 308.4 111.457 308.603ZM121.361 306.107C122.235 306.107 122.955 306.4 123.521 306.987C124.097 307.574 124.385 308.384 124.385 309.419V314.331H122.321V309.675C122.321 309.142 122.177 308.736 121.889 308.459C121.601 308.171 121.217 308.027 120.737 308.027C120.203 308.027 119.777 308.192 119.457 308.523C119.137 308.854 118.977 309.35 118.977 310.011V314.331H116.913V303.131H118.977V307.227C119.478 306.48 120.273 306.107 121.361 306.107ZM127.891 311.179C128.168 312.182 128.92 312.683 130.147 312.683C130.936 312.683 131.534 312.416 131.939 311.883L133.603 312.843C132.814 313.984 131.651 314.555 130.115 314.555C128.792 314.555 127.731 314.155 126.931 313.355C126.131 312.555 125.731 311.547 125.731 310.331C125.731 309.126 126.126 308.123 126.915 307.323C127.704 306.512 128.718 306.107 129.955 306.107C131.128 306.107 132.094 306.512 132.851 307.323C133.619 308.134 134.003 309.136 134.003 310.331C134.003 310.598 133.976 310.88 133.923 311.179H127.891ZM127.859 309.579H131.939C131.822 309.035 131.576 308.63 131.203 308.363C130.84 308.096 130.424 307.963 129.955 307.963C129.4 307.963 128.942 308.107 128.579 308.395C128.216 308.672 127.976 309.067 127.859 309.579ZM141.446 303.131H143.51V314.331H141.446V313.387C140.838 314.166 139.974 314.555 138.854 314.555C137.776 314.555 136.854 314.15 136.086 313.339C135.328 312.518 134.95 311.515 134.95 310.331C134.95 309.147 135.328 308.15 136.086 307.339C136.854 306.518 137.776 306.107 138.854 306.107C139.974 306.107 140.838 306.496 141.446 307.275V303.131ZM137.638 311.963C138.064 312.379 138.598 312.587 139.238 312.587C139.878 312.587 140.406 312.379 140.822 311.963C141.238 311.536 141.446 310.992 141.446 310.331C141.446 309.67 141.238 309.131 140.822 308.715C140.406 308.288 139.878 308.075 139.238 308.075C138.598 308.075 138.064 308.288 137.638 308.715C137.222 309.131 137.014 309.67 137.014 310.331C137.014 310.992 137.222 311.536 137.638 311.963Z" fill="#666666"/>
<rect x="305" y="516" width="40" height="35.9251" rx="4" fill="#D5D4FD"/>
<path d="M315.004 540.609C315.02 540.588 315.032 540.565 315.041 540.54C315.256 539.076 316.178 538.268 317.521 537.831C317.977 537.683 318.415 537.481 318.86 537.298C319.199 537.159 319.166 536.908 319.062 536.624C318.881 536.129 318.718 535.628 318.54 535.132C318.492 535 318.429 534.873 318.354 534.755C317.757 533.824 317.516 532.709 317.675 531.615C317.876 530.163 319.159 529.106 320.823 528.96C322.106 528.848 323.133 529.314 323.939 530.309C324.052 530.444 324.196 530.551 324.358 530.622C324.941 530.875 325.179 531.225 325.158 531.862C325.145 532.227 325.109 532.59 325.109 532.955C325.109 533.635 324.859 534.217 324.484 534.77C324.353 534.965 324.297 535.211 324.213 535.435C324.085 535.774 323.957 536.112 323.841 536.455C323.754 536.712 323.685 536.974 323.614 537.226C324.385 537.514 325.069 537.759 325.744 538.026C327.245 538.618 327.861 539.784 327.784 541.519C327.772 541.813 327.617 541.926 327.331 541.925C323.377 541.925 319.423 541.925 315.469 541.914C315.312 541.914 315.156 541.777 315 541.703L315.004 540.609ZM327.143 541.295C327.257 540.458 326.938 539.538 326.34 539.063C325.537 538.425 324.524 538.276 323.619 537.863C323.137 538.848 322.423 539.438 321.364 539.416C320.304 539.393 319.638 538.737 319.177 537.858C318.799 538.004 318.447 538.138 318.098 538.275C317.735 538.418 317.363 538.542 317.013 538.712C316.008 539.199 315.497 540.184 315.655 541.295H327.143ZM322.512 532.364C321.993 533.026 321.341 533.416 320.442 533.327C320.023 533.286 319.597 533.32 319.146 533.32C319.146 533.907 319.14 534.438 319.146 534.969C319.161 536.218 320.098 537.203 321.301 537.246C321.893 537.273 322.471 537.064 322.909 536.664C323.347 536.265 323.609 535.708 323.636 535.116C323.677 534.469 323.653 533.817 323.642 533.164C323.636 533.112 323.619 533.062 323.592 533.017C323.565 532.972 323.529 532.934 323.486 532.904C323.179 532.716 322.859 532.555 322.512 532.364ZM324.242 533.801L324.417 533.814C324.46 533.172 324.488 532.53 324.55 531.89C324.59 531.467 324.385 531.27 324.015 531.156C323.876 531.113 323.703 531.045 323.634 530.933C322.704 529.444 321.086 529.261 319.651 529.908C318.343 530.497 317.752 532.407 318.536 533.578C318.536 533.456 318.536 533.365 318.536 533.275C318.543 532.758 318.582 532.718 319.094 532.717C319.563 532.717 320.031 532.69 320.5 532.722C321.308 532.779 321.828 532.41 322.172 531.707C322.318 531.407 322.499 531.395 322.748 531.629C322.949 531.832 323.163 532.021 323.39 532.195C323.516 532.279 323.669 532.316 323.82 532.3C324.151 532.249 324.244 532.405 324.243 532.69C324.242 533.057 324.242 533.429 324.242 533.801V533.801ZM319.67 537.294C319.85 537.967 320.205 538.368 320.709 538.632C321.311 538.945 321.889 538.85 322.427 538.452C322.861 538.129 323.072 537.73 322.999 537.37C321.918 538.027 320.839 538.01 319.67 537.294Z" fill="#333333"/>
<path d="M334.998 531.701C334.697 532.417 334.159 532.678 333.39 532.651C332.248 532.61 331.103 532.63 329.959 532.651C329.732 532.66 329.511 532.726 329.315 532.841C328.911 533.076 328.534 533.36 328.143 533.61C327.813 533.82 327.604 533.7 327.588 533.303C327.58 533.097 327.588 532.892 327.588 532.658C327.458 532.65 327.358 532.645 327.259 532.638C326.583 532.591 326.077 532.114 326.066 531.432C326.043 530.026 326.043 528.62 326.066 527.214C326.078 526.517 326.603 526.013 327.298 526.009C329.457 525.997 331.614 525.997 333.771 526.009C334.396 526.009 334.745 526.418 335 526.932L334.998 531.701ZM328.214 532.826C328.464 532.661 328.689 532.536 328.887 532.377C329.228 532.102 329.599 532.009 330.04 532.019C331.222 532.045 332.406 532.029 333.589 532.027C334.171 532.027 334.385 531.81 334.386 531.225C334.389 529.962 334.389 528.7 334.386 527.437C334.386 526.83 334.172 526.62 333.563 526.619C331.532 526.619 329.503 526.619 327.477 526.619C326.875 526.619 326.656 526.84 326.655 527.447C326.655 528.579 326.655 529.711 326.655 530.843C326.655 531.926 326.689 531.967 327.782 532.025C328.078 532.041 328.208 532.173 328.197 532.463C328.193 532.56 328.203 532.662 328.214 532.823V532.826Z" fill="#333333"/>
<path d="M330.539 528.421C329.836 528.421 329.133 528.421 328.43 528.421C328.211 528.421 327.98 528.414 327.969 528.131C327.958 527.847 328.179 527.811 328.404 527.811C329.822 527.811 331.24 527.802 332.657 527.824C332.802 527.824 333.047 527.992 333.066 528.11C333.108 528.379 332.874 528.422 332.644 528.422C331.943 528.421 331.241 528.421 330.539 528.421Z" fill="#333333"/>
<path d="M330.493 530.307C330.309 530.103 330.102 529.98 330.094 529.842C330.074 529.565 330.329 529.563 330.542 529.561C330.768 529.561 331.004 529.607 330.957 529.873C330.932 530.012 330.708 530.115 330.493 530.307Z" fill="#333333"/>
<path d="M332.48 529.414C332.685 529.611 332.906 529.726 332.922 529.861C332.955 530.128 332.713 530.161 332.491 530.16C332.268 530.159 332.022 530.136 332.053 529.865C332.068 529.728 332.284 529.612 332.48 529.414Z" fill="#333333"/>
<path d="M328.53 530.308C328.347 530.102 328.146 529.979 328.135 529.84C328.113 529.56 328.369 529.562 328.58 529.56C328.791 529.559 329.042 529.601 328.99 529.873C328.964 530.013 328.745 530.115 328.53 530.308Z" fill="#333333"/>
<path d="M127.864 539.686C126.755 539.686 125.821 539.441 125.064 538.95C124.307 538.449 123.773 537.772 123.464 536.918L125.352 535.814C125.789 536.956 126.648 537.526 127.928 537.526C128.547 537.526 129 537.414 129.288 537.19C129.576 536.966 129.72 536.684 129.72 536.342C129.72 535.948 129.544 535.644 129.192 535.43C128.84 535.206 128.211 534.966 127.304 534.71C126.803 534.561 126.376 534.412 126.024 534.262C125.683 534.113 125.336 533.916 124.984 533.67C124.643 533.414 124.381 533.094 124.2 532.71C124.019 532.326 123.928 531.878 123.928 531.366C123.928 530.353 124.285 529.548 125 528.95C125.725 528.342 126.595 528.038 127.608 528.038C128.515 528.038 129.309 528.262 129.992 528.71C130.685 529.148 131.224 529.761 131.608 530.55L129.752 531.622C129.304 530.662 128.589 530.182 127.608 530.182C127.149 530.182 126.787 530.289 126.52 530.502C126.264 530.705 126.136 530.972 126.136 531.302C126.136 531.654 126.28 531.942 126.568 532.166C126.867 532.38 127.432 532.614 128.264 532.87C128.605 532.977 128.861 533.062 129.032 533.126C129.213 533.18 129.453 533.27 129.752 533.398C130.061 533.516 130.296 533.628 130.456 533.734C130.627 533.841 130.819 533.985 131.032 534.166C131.245 534.348 131.405 534.534 131.512 534.726C131.629 534.918 131.725 535.153 131.8 535.43C131.885 535.697 131.928 535.99 131.928 536.31C131.928 537.345 131.549 538.166 130.792 538.774C130.045 539.382 129.069 539.686 127.864 539.686ZM137.614 533.446H135.806V536.774C135.806 537.052 135.875 537.254 136.014 537.382C136.152 537.51 136.355 537.585 136.622 537.606C136.888 537.617 137.219 537.612 137.614 537.59V539.462C136.195 539.622 135.192 539.489 134.606 539.062C134.03 538.636 133.742 537.873 133.742 536.774V533.446H132.35V531.462H133.742V529.846L135.806 529.222V531.462H137.614V533.446ZM141.258 532.838C141.45 532.326 141.765 531.942 142.202 531.686C142.65 531.43 143.146 531.302 143.69 531.302V533.606C143.061 533.532 142.495 533.66 141.994 533.99C141.503 534.321 141.258 534.87 141.258 535.638V539.462H139.194V531.462H141.258V532.838ZM151.416 538.47C150.595 539.281 149.592 539.686 148.408 539.686C147.224 539.686 146.222 539.281 145.4 538.47C144.59 537.649 144.184 536.646 144.184 535.462C144.184 534.278 144.59 533.281 145.4 532.47C146.222 531.649 147.224 531.238 148.408 531.238C149.592 531.238 150.595 531.649 151.416 532.47C152.238 533.281 152.648 534.278 152.648 535.462C152.648 536.646 152.238 537.649 151.416 538.47ZM146.856 537.046C147.272 537.462 147.79 537.67 148.408 537.67C149.027 537.67 149.544 537.462 149.96 537.046C150.376 536.63 150.584 536.102 150.584 535.462C150.584 534.822 150.376 534.294 149.96 533.878C149.544 533.462 149.027 533.254 148.408 533.254C147.79 533.254 147.272 533.462 146.856 533.878C146.451 534.294 146.248 534.822 146.248 535.462C146.248 536.102 146.451 536.63 146.856 537.046ZM158.548 531.238C159.423 531.238 160.143 531.532 160.708 532.118C161.284 532.705 161.572 533.516 161.572 534.55V539.462H159.508V534.806C159.508 534.273 159.364 533.868 159.076 533.59C158.788 533.302 158.404 533.158 157.924 533.158C157.391 533.158 156.964 533.324 156.644 533.654C156.324 533.985 156.164 534.481 156.164 535.142V539.462H154.1V531.462H156.164V532.358C156.666 531.612 157.46 531.238 158.548 531.238ZM169.463 531.462H171.479V539.078C171.479 540.316 171.068 541.26 170.247 541.91C169.436 542.561 168.455 542.886 167.303 542.886C166.439 542.886 165.676 542.721 165.015 542.39C164.364 542.06 163.863 541.574 163.511 540.934L165.271 539.926C165.676 540.673 166.375 541.046 167.367 541.046C168.017 541.046 168.529 540.876 168.903 540.534C169.276 540.193 169.463 539.708 169.463 539.078V538.214C168.855 539.025 168.001 539.43 166.903 539.43C165.772 539.43 164.823 539.036 164.055 538.246C163.297 537.446 162.919 536.476 162.919 535.334C162.919 534.204 163.303 533.238 164.071 532.438C164.839 531.638 165.783 531.238 166.903 531.238C168.001 531.238 168.855 531.644 169.463 532.454V531.462ZM165.607 536.918C166.033 537.324 166.572 537.526 167.223 537.526C167.873 537.526 168.407 537.324 168.823 536.918C169.249 536.502 169.463 535.974 169.463 535.334C169.463 534.705 169.249 534.188 168.823 533.782C168.407 533.366 167.873 533.158 167.223 533.158C166.572 533.158 166.033 533.366 165.607 533.782C165.191 534.188 164.983 534.705 164.983 535.334C164.983 535.974 165.191 536.502 165.607 536.918ZM182.758 539.686C181.073 539.686 179.681 539.126 178.582 538.006C177.484 536.886 176.934 535.505 176.934 533.862C176.934 532.209 177.484 530.828 178.582 529.718C179.681 528.598 181.073 528.038 182.758 528.038C183.772 528.038 184.705 528.278 185.558 528.758C186.422 529.228 187.094 529.868 187.574 530.678L185.67 531.782C185.393 531.281 184.998 530.892 184.486 530.614C183.974 530.326 183.398 530.182 182.758 530.182C181.67 530.182 180.79 530.524 180.118 531.206C179.457 531.889 179.126 532.774 179.126 533.862C179.126 534.94 179.457 535.82 180.118 536.502C180.79 537.185 181.67 537.526 182.758 537.526C183.398 537.526 183.974 537.388 184.486 537.11C185.009 536.822 185.404 536.433 185.67 535.942L187.574 537.046C187.094 537.857 186.428 538.502 185.574 538.982C184.721 539.452 183.782 539.686 182.758 539.686ZM195.698 538.47C194.876 539.281 193.874 539.686 192.69 539.686C191.506 539.686 190.503 539.281 189.682 538.47C188.871 537.649 188.465 536.646 188.465 535.462C188.465 534.278 188.871 533.281 189.682 532.47C190.503 531.649 191.506 531.238 192.69 531.238C193.874 531.238 194.876 531.649 195.698 532.47C196.519 533.281 196.93 534.278 196.93 535.462C196.93 536.646 196.519 537.649 195.698 538.47ZM191.138 537.046C191.554 537.462 192.071 537.67 192.69 537.67C193.308 537.67 193.826 537.462 194.242 537.046C194.658 536.63 194.866 536.102 194.866 535.462C194.866 534.822 194.658 534.294 194.242 533.878C193.826 533.462 193.308 533.254 192.69 533.254C192.071 533.254 191.554 533.462 191.138 533.878C190.732 534.294 190.53 534.822 190.53 535.462C190.53 536.102 190.732 536.63 191.138 537.046ZM207.23 531.238C208.147 531.238 208.878 531.537 209.422 532.134C209.976 532.732 210.254 533.532 210.254 534.534V539.462H208.19V534.678C208.19 534.198 208.072 533.825 207.838 533.558C207.603 533.292 207.272 533.158 206.845 533.158C206.376 533.158 206.008 533.313 205.742 533.622C205.486 533.932 205.358 534.38 205.358 534.966V539.462H203.294V534.678C203.294 534.198 203.176 533.825 202.942 533.558C202.707 533.292 202.376 533.158 201.95 533.158C201.491 533.158 201.123 533.313 200.846 533.622C200.579 533.932 200.446 534.38 200.446 534.966V539.462H198.382V531.462H200.446V532.31C200.926 531.596 201.667 531.238 202.67 531.238C203.651 531.238 204.376 531.622 204.846 532.39C205.379 531.622 206.174 531.238 207.23 531.238ZM220.855 531.238C221.772 531.238 222.503 531.537 223.047 532.134C223.601 532.732 223.879 533.532 223.879 534.534V539.462H221.815V534.678C221.815 534.198 221.697 533.825 221.463 533.558C221.228 533.292 220.897 533.158 220.47 533.158C220.001 533.158 219.633 533.313 219.367 533.622C219.111 533.932 218.983 534.38 218.983 534.966V539.462H216.919V534.678C216.919 534.198 216.801 533.825 216.567 533.558C216.332 533.292 216.001 533.158 215.575 533.158C215.116 533.158 214.748 533.313 214.471 533.622C214.204 533.932 214.071 534.38 214.071 534.966V539.462H212.007V531.462H214.071V532.31C214.551 531.596 215.292 531.238 216.295 531.238C217.276 531.238 218.001 531.622 218.471 532.39C219.004 531.622 219.799 531.238 220.855 531.238ZM230.912 531.462H232.976V539.462H230.912V538.566C230.41 539.313 229.616 539.686 228.528 539.686C227.653 539.686 226.928 539.393 226.352 538.806C225.786 538.22 225.504 537.409 225.504 536.374V531.462H227.568V536.118C227.568 536.652 227.712 537.062 228 537.35C228.288 537.628 228.672 537.766 229.152 537.766C229.685 537.766 230.112 537.601 230.432 537.27C230.752 536.94 230.912 536.444 230.912 535.782V531.462ZM239.314 531.238C240.189 531.238 240.909 531.532 241.474 532.118C242.05 532.705 242.338 533.516 242.338 534.55V539.462H240.274V534.806C240.274 534.273 240.13 533.868 239.842 533.59C239.554 533.302 239.17 533.158 238.69 533.158C238.157 533.158 237.73 533.324 237.41 533.654C237.09 533.985 236.93 534.481 236.93 535.142V539.462H234.866V531.462H236.93V532.358C237.431 531.612 238.226 531.238 239.314 531.238ZM245.124 530.502C244.783 530.502 244.484 530.38 244.228 530.134C243.983 529.878 243.86 529.58 243.86 529.238C243.86 528.897 243.983 528.598 244.228 528.342C244.484 528.086 244.783 527.958 245.124 527.958C245.476 527.958 245.775 528.086 246.02 528.342C246.276 528.598 246.404 528.897 246.404 529.238C246.404 529.58 246.276 529.878 246.02 530.134C245.775 530.38 245.476 530.502 245.124 530.502ZM244.1 539.462V531.462H246.164V539.462H244.1ZM251.861 539.686C250.656 539.686 249.648 539.281 248.837 538.47C248.037 537.66 247.637 536.657 247.637 535.462C247.637 534.268 248.037 533.265 248.837 532.454C249.648 531.644 250.656 531.238 251.861 531.238C252.64 531.238 253.349 531.425 253.989 531.798C254.629 532.172 255.115 532.673 255.445 533.302L253.669 534.342C253.509 534.012 253.264 533.75 252.933 533.558C252.613 533.366 252.251 533.27 251.845 533.27C251.227 533.27 250.715 533.478 250.309 533.894C249.904 534.3 249.701 534.822 249.701 535.462C249.701 536.092 249.904 536.614 250.309 537.03C250.715 537.436 251.227 537.638 251.845 537.638C252.261 537.638 252.629 537.548 252.949 537.366C253.28 537.174 253.525 536.913 253.685 536.582L255.477 537.606C255.125 538.236 254.629 538.742 253.989 539.126C253.349 539.5 252.64 539.686 251.861 539.686ZM262.524 531.462H264.588V539.462H262.524V538.518C261.905 539.297 261.036 539.686 259.916 539.686C258.849 539.686 257.932 539.281 257.164 538.47C256.407 537.649 256.028 536.646 256.028 535.462C256.028 534.278 256.407 533.281 257.164 532.47C257.932 531.649 258.849 531.238 259.916 531.238C261.036 531.238 261.905 531.628 262.524 532.406V531.462ZM258.716 537.094C259.132 537.51 259.66 537.718 260.3 537.718C260.94 537.718 261.468 537.51 261.884 537.094C262.311 536.668 262.524 536.124 262.524 535.462C262.524 534.801 262.311 534.262 261.884 533.846C261.468 533.42 260.94 533.206 260.3 533.206C259.66 533.206 259.132 533.42 258.716 533.846C258.3 534.262 258.092 534.801 258.092 535.462C258.092 536.124 258.3 536.668 258.716 537.094ZM271.036 533.446H269.228V536.774C269.228 537.052 269.297 537.254 269.436 537.382C269.574 537.51 269.777 537.585 270.044 537.606C270.31 537.617 270.641 537.612 271.036 537.59V539.462C269.617 539.622 268.614 539.489 268.028 539.062C267.452 538.636 267.164 537.873 267.164 536.774V533.446H265.772V531.462H267.164V529.846L269.228 529.222V531.462H271.036V533.446ZM273.515 530.502C273.174 530.502 272.875 530.38 272.619 530.134C272.374 529.878 272.251 529.58 272.251 529.238C272.251 528.897 272.374 528.598 272.619 528.342C272.875 528.086 273.174 527.958 273.515 527.958C273.867 527.958 274.166 528.086 274.411 528.342C274.667 528.598 274.795 528.897 274.795 529.238C274.795 529.58 274.667 529.878 274.411 530.134C274.166 530.38 273.867 530.502 273.515 530.502ZM272.491 539.462V531.462H274.555V539.462H272.491ZM283.26 538.47C282.439 539.281 281.436 539.686 280.252 539.686C279.068 539.686 278.065 539.281 277.244 538.47C276.433 537.649 276.028 536.646 276.028 535.462C276.028 534.278 276.433 533.281 277.244 532.47C278.065 531.649 279.068 531.238 280.252 531.238C281.436 531.238 282.439 531.649 283.26 532.47C284.081 533.281 284.492 534.278 284.492 535.462C284.492 536.646 284.081 537.649 283.26 538.47ZM278.7 537.046C279.116 537.462 279.633 537.67 280.252 537.67C280.871 537.67 281.388 537.462 281.804 537.046C282.22 536.63 282.428 536.102 282.428 535.462C282.428 534.822 282.22 534.294 281.804 533.878C281.388 533.462 280.871 533.254 280.252 533.254C279.633 533.254 279.116 533.462 278.7 533.878C278.295 534.294 278.092 534.822 278.092 535.462C278.092 536.102 278.295 536.63 278.7 537.046ZM290.392 531.238C291.267 531.238 291.987 531.532 292.552 532.118C293.128 532.705 293.416 533.516 293.416 534.55V539.462H291.352V534.806C291.352 534.273 291.208 533.868 290.92 533.59C290.632 533.302 290.248 533.158 289.768 533.158C289.235 533.158 288.808 533.324 288.488 533.654C288.168 533.985 288.008 534.481 288.008 535.142V539.462H285.944V531.462H288.008V532.358C288.509 531.612 289.304 531.238 290.392 531.238Z" fill="#666666"/>
</svg>
