<svg width="18" height="18" viewBox="0 0 18 18" fill="none" xmlns="http://www.w3.org/2000/svg">
<path d="M15.3271 8.45093C15.4943 8.32634 15.6184 8.15253 15.6819 7.95387C15.7453 7.75521 15.745 7.54166 15.681 7.34317C15.617 7.14468 15.4925 6.97121 15.3249 6.84706C15.1573 6.72292 14.9551 6.65434 14.7466 6.65093L10.6966 6.49793C10.6767 6.49656 10.6576 6.48945 10.6416 6.47748C10.6256 6.4655 10.6135 6.44916 10.6066 6.43043L9.21157 2.63693C9.14125 2.44462 9.01354 2.27856 8.84572 2.16123C8.6779 2.04391 8.47808 1.98099 8.27332 1.98099C8.06856 1.98099 7.86874 2.04391 7.70092 2.16123C7.5331 2.27856 7.40539 2.44462 7.33507 2.63693L5.94007 6.43043C5.93317 6.44916 5.92101 6.4655 5.90504 6.47748C5.88907 6.48945 5.86998 6.49656 5.85007 6.49793L1.80007 6.65093C1.59154 6.65434 1.38931 6.72292 1.22173 6.84706C1.05414 6.97121 0.929616 7.14468 0.865604 7.34317C0.801591 7.54166 0.801304 7.75521 0.864782 7.95387C0.928261 8.15253 1.05232 8.32634 1.21957 8.45093L4.39657 10.9484C4.41247 10.9609 4.42435 10.9778 4.43075 10.997C4.43715 11.0162 4.43778 11.0369 4.43257 11.0564L3.33007 14.9444C3.2786 15.1405 3.28798 15.3476 3.35697 15.5382C3.42597 15.7287 3.55131 15.8938 3.71635 16.0115C3.88139 16.1292 4.07832 16.1939 4.281 16.197C4.48367 16.2001 4.6825 16.1415 4.85107 16.0289L8.20807 13.7789C8.22461 13.7675 8.24423 13.7614 8.26432 13.7614C8.28441 13.7614 8.30403 13.7675 8.32057 13.7789L11.6776 16.0289C11.8424 16.1402 12.0367 16.1997 12.2356 16.1999C12.3896 16.2014 12.542 16.1674 12.6808 16.1005C12.8196 16.0337 12.9411 15.9357 13.036 15.8143C13.1308 15.6929 13.1965 15.5513 13.2278 15.4005C13.2591 15.2496 13.2553 15.0936 13.2166 14.9444" stroke="#FFE55F" stroke-linecap="round"/>
<rect x="9.8999" y="9.89993" width="7.65" height="0.9" rx="0.45" fill="#FFE55F"/>
<rect x="9.8999" y="12.1499" width="7.65" height="0.9" rx="0.45" fill="#FFE55F"/>
</svg>
