<svg width="84" height="90" viewBox="0 0 84 90" fill="none" xmlns="http://www.w3.org/2000/svg">
<path d="M20.736 66.8824C20.3633 66.2408 20.0708 65.7454 19.7924 65.2454C17.344 60.8911 15.6801 56.1403 14.8765 51.2099C14.6772 50.4384 14.3081 49.7211 13.7961 49.1105C10.8051 45.0013 10.5833 39.7976 13.381 35.6507C14.1166 34.5845 15.0034 33.631 16.0135 32.82C18.9291 30.4753 21.9202 28.1966 24.8924 25.9084C25.1427 25.7645 25.3448 25.5498 25.4733 25.2912C25.6017 25.0326 25.6508 24.7418 25.6142 24.4554C25.5646 24.0685 25.5646 23.6769 25.6142 23.2901C25.8359 21.1199 25.5057 19.2328 23.7837 17.5863C22.6514 16.5106 22.7411 14.8877 23.5761 13.5337C23.7939 13.1735 24.0334 12.8269 24.2932 12.4958C24.9679 11.6183 25.4774 10.7643 25.2887 9.51884C25.1 8.27335 25.935 7.4383 27.2513 6.96652C30.2612 5.87199 33.2806 4.80577 36.2811 3.69237C36.6983 3.54645 37.0683 3.29054 37.3521 2.95168C40.3856 -1.00182 45.8016 -0.997108 48.7974 3.04604C52.1518 7.57511 55.4306 12.1608 58.7661 16.7276C59.217 17.3087 59.7366 17.8331 60.3135 18.2892C62.2006 19.8555 64.1491 21.3746 66.0692 22.9174C67.3761 23.9694 67.6591 25.0309 67.0411 26.6114C66.4231 28.1918 65.8192 29.6685 65.154 31.2773C67.2676 32.0652 67.8667 33.7966 68.2017 35.7781C68.9377 40.1514 69.7538 44.5107 70.5606 48.8699C70.6669 49.3405 70.8251 49.7977 71.0324 50.2334C74.7751 58.7254 78.5179 67.2174 82.2607 75.7094C84.6856 81.2387 82.2607 87.3057 76.7739 89.3155C75.6078 89.7787 74.3628 90.011 73.1082 89.9996C67.4138 89.7165 61.7147 89.4335 56.0439 88.8768C50.4534 88.3342 45.193 86.565 40.1497 84.0505C39.9133 83.8974 39.6359 83.82 39.3545 83.8284C39.073 83.8369 38.8008 83.9308 38.574 84.0976C36.7095 85.231 34.6128 85.9278 32.4408 86.1357C31.9728 86.1946 31.5234 86.3557 31.1246 86.6075C29.577 87.6954 27.7369 88.2906 25.8454 88.3153C22.6042 88.3153 19.3631 88.3153 16.122 88.3153C14.0839 88.3153 12.7205 87.2491 12.0458 85.3337C11.8854 84.9582 11.5863 84.6591 11.2108 84.4986C8.30332 83.4861 5.55868 82.0557 3.06317 80.2526C1.8083 79.3957 0.865141 78.1549 0.375182 76.7165C-0.114777 75.2781 -0.125113 73.7196 0.345725 72.2749C1.39779 69.029 4.09165 66.939 7.32805 66.9249C11.7109 66.8824 16.1173 66.8824 20.736 66.8824ZM64.6397 52.5215C64.7435 53.6538 64.8426 54.6822 64.937 55.7107C65.2908 59.7444 65.6824 63.7923 67.1071 67.6137C68.0507 70.1566 69.2349 72.6098 70.3483 75.0819C70.6927 75.8415 70.9286 76.5492 70.3058 77.2474C69.6831 77.9456 68.999 77.856 68.2489 77.5588C68.1595 77.5209 68.0682 77.4878 67.9752 77.4597C63.064 75.8226 58.1952 74.0488 53.2274 72.6004C50.5619 71.822 48.8163 70.5434 47.6085 67.9298C45.7214 63.8017 42.117 61.5891 37.6398 60.8956C37.141 60.8418 36.6393 60.9672 36.2245 61.2494C32.9881 63.58 29.7753 65.9389 26.5578 68.2978C26.3549 68.444 26.1756 68.6186 25.9539 68.812C26.1001 69.0054 26.2039 69.1658 26.3266 69.3121C34.5591 78.9128 44.9618 84.5175 57.5206 85.9329C62.5026 86.4896 67.5412 86.6169 72.5515 86.8764C78.1892 87.1925 81.6898 82.0831 79.4159 76.8983C77.5854 72.7183 75.7454 68.5447 73.896 64.3773C72.1316 60.3813 70.3624 56.3853 68.6263 52.3799C68.3715 51.7949 68.0885 51.5921 67.4563 51.7949C66.5646 52.0827 65.6494 52.2809 64.6397 52.5404V52.5215ZM35.7433 43.6568C35.1724 45.9779 34.545 48.2896 34.0543 50.6297C33.9222 51.3021 33.9382 51.9953 34.1011 52.6609C34.2641 53.3265 34.5701 53.9487 34.9979 54.4841C35.6489 55.371 36.2811 56.2768 36.9888 57.1166C37.267 57.4481 37.6467 57.6786 38.0692 57.7724C41.3902 58.2657 44.4937 59.7223 46.9952 61.9618C48.7852 63.6579 50.2274 65.6866 51.2412 67.9345C51.4585 68.3815 51.8282 68.7362 52.2839 68.9347C55.492 70.0528 58.7189 71.1001 61.9412 72.1711C63.2716 72.6098 64.602 73.058 66.0504 73.5439C65.5078 72.1711 65.0266 70.9775 64.5643 69.7697C62.6111 64.717 62.1252 59.3906 61.7006 54.0689C61.7019 53.4861 61.549 52.9132 61.2573 52.4086C60.9657 51.904 60.5456 51.4855 60.0399 51.1958C59.029 50.5668 58.1676 49.7247 57.5159 48.7284C56.4072 46.9639 56.4638 45.0202 57.464 43.1803C58.6812 40.9393 59.6578 38.6418 59.8465 36.0611C59.922 34.9855 60.1578 33.9192 60.3654 32.5935C56.8485 30.4946 53.9256 27.5327 51.8734 23.9883C50.4581 25.1253 50.0854 26.6822 50.6326 28.4844C52.6801 35.193 48.2266 42.3641 41.3008 43.3643C39.5175 43.6285 37.6729 43.5671 35.7433 43.6568ZM32.9551 42.0008C33.2617 40.7648 33.5401 39.6042 33.842 38.4483C34.2855 36.7641 34.4129 34.8864 35.2574 33.438C37.2825 30.0196 38.2662 26.0846 38.088 22.1153C38.0926 21.6022 38.2326 21.0993 38.4938 20.6575C39.9091 18.2562 41.3244 15.8737 42.7775 13.4959C43.5371 12.2457 44.542 12.0806 45.5563 13.0996C49.6891 17.2041 53.869 21.2425 57.2847 26.0264C58.4925 27.7201 60.4739 28.8571 62.2054 30.3337C62.9319 28.5127 63.5499 26.9652 64.1821 25.3895C62.295 23.8704 60.4079 22.4361 58.6104 20.9076C57.6932 20.1486 56.8654 19.2875 56.143 18.3411C52.883 13.9441 49.7079 9.49054 46.4432 5.09828C45.9134 4.37292 45.2114 3.79085 44.4004 3.40459C42.4756 2.55539 40.4328 3.5131 39.4562 5.58893C36.8473 11.1229 34.2242 16.6474 31.7049 22.2144C30.6591 24.7034 28.9384 26.8506 26.737 28.4136C25.9677 28.9523 25.229 29.5335 24.5244 30.1545C24.263 30.3717 24.0942 30.6805 24.0526 31.0178C24.0196 33.0606 24.0007 35.0987 24.0526 37.1509C24.0964 38.3943 24.5996 39.5774 25.4649 40.4714C26.3301 41.3654 27.4961 41.907 28.7374 41.9914C30.115 42.0669 31.4973 42.0008 32.9409 42.0008H32.9551ZM29.9027 77.3182C29.9404 77.4125 29.931 77.3182 29.9027 77.2946C27.6759 74.9923 25.4585 72.6853 23.2176 70.3972C22.9975 70.1791 22.7058 70.0484 22.3967 70.0292C17.3439 70.0292 12.2864 69.9915 7.22898 70.0292C5.34186 70.0292 4.13411 71.2086 3.45475 72.8599C2.79897 74.4167 3.00656 75.9595 4.24262 77.0729C6.70059 79.2855 9.65392 80.6537 12.8101 81.6916C14.4 78.743 16.9052 77.7617 20.0566 77.8654C21.8919 77.9221 23.7412 77.705 25.5812 77.5965C27.0012 77.5352 28.4637 77.4173 29.8885 77.3182H29.9027ZM44.5514 16.5672C43.6692 18.0392 42.8483 19.5017 41.9283 20.9076C41.3911 21.7115 41.1189 22.6634 41.1499 23.6297C41.2614 27.0483 40.4307 30.4316 38.7485 33.4097C37.47 35.5988 37.3096 38.0567 36.517 40.4487C37.6446 40.4487 38.6447 40.477 39.6449 40.4487C40.9673 40.4063 42.2622 40.0599 43.4291 39.4363C44.596 38.8127 45.6036 37.9287 46.3738 36.8529C47.1439 35.7771 47.6559 34.5383 47.87 33.2327C48.0842 31.927 47.9947 30.5896 47.6085 29.3241C47.2854 28.3539 47.1733 27.3258 47.2799 26.3087C47.3865 25.2916 47.7093 24.3091 48.2266 23.4269C48.6447 22.7747 49.0967 22.1448 49.5806 21.5398L44.8958 16.8503C44.8062 16.7559 44.7071 16.6852 44.5514 16.5672ZM20.9436 32.9144C19.6226 33.957 18.4762 34.8015 17.4052 35.745C15.8825 37.0804 14.8908 38.9189 14.611 40.9248C14.3313 42.9307 14.7822 44.9704 15.8814 46.6714C16.7495 48.0349 18.1365 49.1341 17.9667 50.9693C18.1068 50.9954 18.2488 51.0096 18.3913 51.0118C22.5476 50.2051 26.704 49.403 30.8604 48.5727C30.981 48.5397 31.0927 48.4803 31.1873 48.3987C31.282 48.3171 31.3573 48.2153 31.4076 48.1009C31.6766 47.1574 31.8794 46.1855 32.1389 45.1334H29.4922C24.515 45.1334 21.0002 41.6234 20.9483 36.665C20.9342 35.495 20.9436 34.3297 20.9436 32.9144ZM18.6602 54.1444C19.7379 58.4745 21.5679 62.5816 24.0668 66.2786L34.2949 58.8197C32.6531 56.6496 30.8698 54.6634 30.8651 51.743L18.6602 54.1444ZM67.3525 48.6246C66.5174 44.0012 65.7201 39.5145 64.8473 35.0374C64.8186 34.7871 64.6915 34.5585 64.4942 34.4019C64.2969 34.2453 64.0455 34.1735 63.7953 34.2023C63.545 34.2311 63.3165 34.3581 63.1599 34.5554C63.0033 34.7527 62.9314 35.0041 62.9602 35.2544C62.8447 38.4417 61.9367 41.5501 60.3182 44.2984C59.7663 45.2419 59.436 46.3789 60.1767 47.2093C61.0306 48.1528 62.2195 48.8275 63.2716 49.6059C63.3282 49.6484 63.465 49.6059 63.5547 49.6059L67.3525 48.6246ZM21.2314 85.2016C22.7835 85.2016 24.3451 85.2818 25.8878 85.1733C26.8166 85.1 27.7261 84.8686 28.577 84.4892C30.1103 83.8051 30.6339 82.8238 30.2801 81.7246C29.9546 80.7244 29.1054 80.4083 27.4494 80.5357C24.7461 80.7339 22.0381 80.9697 19.3301 81.0075C18.4703 80.9615 17.6181 81.1892 16.8959 81.658C16.1736 82.1267 15.6186 82.8124 15.3105 83.6164C14.8671 84.593 15.2162 85.1922 16.3013 85.2016C17.9336 85.2205 19.5801 85.2016 21.2314 85.2016ZM28.6666 20.7377L28.9733 20.6906C30.9783 16.3596 32.9975 12.024 35.1394 7.4383L28.3175 9.88211C29.0299 11.3493 28.2137 12.3825 27.4258 13.4299C27.2388 13.7323 27.0323 14.0223 26.8078 14.298C26.0388 15.0953 26.0718 15.751 26.8833 16.5719C27.9825 17.6853 29.2044 18.8176 28.6666 20.7377ZM33.6439 82.8003L36.2151 81.9086L32.9645 79.7337C33.1862 80.7433 33.3844 81.6963 33.6439 82.8003Z" fill="#333333"/>
</svg>
