<svg width="90" height="90" viewBox="0 0 90 90" fill="none" xmlns="http://www.w3.org/2000/svg">
<path d="M86.8137 86.8238C87.4916 86.8238 88.033 86.7975 88.5745 86.8238C88.7644 86.8162 88.9537 86.8482 89.1305 86.9175C89.3073 86.9868 89.4677 87.092 89.6015 87.2265C89.7352 87.3609 89.8394 87.5216 89.9074 87.6983C89.9754 87.875 90.0057 88.0638 89.9963 88.2528C90.0103 88.4426 89.9836 88.6332 89.918 88.8119C89.8524 88.9905 89.7493 89.1533 89.6156 89.2893C89.482 89.4253 89.3208 89.5314 89.1428 89.6006C88.9649 89.6698 88.7741 89.7005 88.5833 89.6907C87.0426 89.7257 85.5019 89.6907 83.9567 89.6907H65.719C65.0235 89.6907 64.3764 89.6337 64.0242 88.9148C63.5004 87.8408 64.2003 86.8106 65.4945 86.8018C68.8533 86.8018 72.2121 86.8018 75.5664 86.8018H76.7506C76.4644 86.5651 76.3104 86.4117 76.1387 86.2977C65.6677 79.6522 55.1893 73.0154 44.7036 66.3873C44.5204 66.2852 44.3183 66.221 44.1096 66.1984C43.9008 66.1758 43.6896 66.1953 43.4886 66.2558C39.628 67.7287 35.7895 69.2674 31.9333 70.7447C31.689 70.8052 31.4767 70.9553 31.3388 71.165C31.2009 71.3747 31.1475 71.6284 31.1893 71.8756C31.2187 75.7887 31.2187 79.7033 31.1893 83.6193C31.1893 84.7459 31.0837 85.8725 31.0264 87.1262H58.6361C58.9988 87.1168 59.3618 87.127 59.7234 87.1569C59.8903 87.1631 60.0544 87.2021 60.2061 87.2716C60.3578 87.3412 60.4943 87.4399 60.6076 87.5621C60.7209 87.6843 60.8089 87.8276 60.8664 87.9837C60.9239 88.1399 60.9499 88.3058 60.9428 88.472C60.9921 88.806 60.9069 89.1459 60.7057 89.4177C60.5046 89.6895 60.2037 89.8711 59.8687 89.923C59.5419 89.9808 59.2101 90.0058 58.8782 89.9975H19.5151C19.2431 90.0056 18.9709 89.9939 18.7007 89.9624C18.5184 89.9526 18.3399 89.9062 18.1759 89.8262C18.012 89.7462 17.8659 89.6341 17.7463 89.4967C17.6268 89.3592 17.5363 89.1992 17.4801 89.0262C17.424 88.8532 17.4035 88.6707 17.4197 88.4895C17.4147 88.309 17.4471 88.1294 17.5148 87.9619C17.5826 87.7943 17.6843 87.6425 17.8135 87.5159C17.9428 87.3892 18.0969 87.2904 18.2662 87.2256C18.4355 87.1608 18.6163 87.1315 18.7975 87.1394C19.788 87.1043 20.7785 87.1394 21.9054 87.1394C21.4652 85.0835 21.025 83.1547 20.5848 81.2259C19.5943 76.8423 18.5862 72.4893 17.6046 68.1189C17.2569 66.7622 17.401 65.327 18.0113 64.0657C18.6217 62.8044 19.6592 61.798 20.9413 61.2234C24.9707 59.2245 29.0074 57.2431 33.0514 55.2792C33.1773 55.2421 33.2942 55.1798 33.3952 55.0963C33.4962 55.0127 33.579 54.9095 33.6387 54.7931C33.6984 54.6767 33.7337 54.5494 33.7425 54.4189C33.7513 54.2885 33.7333 54.1576 33.6897 54.0343C33.3243 52.1142 33.0118 50.1855 32.6904 48.2567C32.5099 47.1651 32.9545 46.3848 33.8305 46.2139C34.7066 46.0429 35.3889 46.6172 35.5914 47.7131C36.0316 49.9268 36.4278 52.1449 36.8504 54.4113H51.8173C52.2047 52.1975 52.5965 49.9838 52.9795 47.7701C53.4813 44.8681 53.9699 41.9618 54.4894 39.0598C54.5802 38.6177 54.7159 38.1859 54.8944 37.771C57.2627 31.8532 59.6339 25.9353 62.0081 20.0174C62.4923 18.8031 62.4703 17.6634 61.6031 16.6244C58.011 12.346 54.4233 8.07053 50.8401 3.79796C49.8584 2.6363 48.529 2.66261 47.8071 3.79796C47.2876 4.63085 47.587 5.34538 48.1416 6.02485C50.4043 8.80698 52.6655 11.5935 54.9252 14.3844C55.5327 15.134 56.1225 15.8968 56.7564 16.6288C57.0107 16.8896 57.1808 17.22 57.2451 17.5777C57.3095 17.9354 57.265 18.3041 57.1174 18.6365C55.2113 23.3796 53.3184 28.1271 51.3595 32.8526C51.2384 33.0777 51.0664 33.2717 50.8571 33.4193C50.6477 33.5669 50.4068 33.664 50.1534 33.703C46.2531 33.7688 42.3529 33.7469 38.4527 33.7469C37.6075 33.7469 37.2641 33.1639 36.9912 32.4844C35.427 28.6122 33.8672 24.7356 32.3118 20.8546C32.079 20.1668 31.8086 19.4922 31.5019 18.8338C31.0176 17.9571 31.2597 17.2557 31.854 16.5368C34.6978 13.0606 37.5195 9.56243 40.3544 6.07745C40.7946 5.52073 41.1952 4.95963 40.9619 4.19688C40.5217 2.78097 39.0206 2.47411 37.9685 3.63577C37.022 4.68784 36.1372 5.7969 35.226 6.88404C32.5319 10.0972 29.8599 13.3236 27.135 16.528C26.6905 16.9842 26.3991 17.5667 26.3014 18.1949C26.2036 18.8231 26.3041 19.4661 26.5892 20.0349C29.0675 26.0405 31.5283 32.0504 33.8834 38.1042C34.3852 39.3974 34.482 40.8571 34.6625 42.2555C34.6864 42.4365 34.6729 42.6206 34.6228 42.7962C34.5728 42.9719 34.4872 43.1356 34.3714 43.2772C34.2556 43.4188 34.1119 43.5353 33.9493 43.6197C33.7867 43.704 33.6084 43.7545 33.4256 43.7678C33.0741 43.8329 32.711 43.7589 32.4135 43.5616C32.1159 43.3644 31.9073 43.0594 31.832 42.7114C30.2913 35.3118 26.5495 28.7276 23.9743 21.7182C22.9443 18.9434 23.1908 16.5455 25.1585 14.266C28.6405 10.22 32.0301 6.09498 35.4637 1.99191C37.2245 -0.0815391 39.9978 -0.576887 41.8291 0.856558C42.8604 1.68397 43.5303 2.87662 43.6985 4.1848C43.8668 5.49298 43.5202 6.81525 42.7315 7.87473C40.1563 11.1405 37.5415 14.38 34.9267 17.6151C34.7371 17.7993 34.6115 18.0389 34.568 18.299C34.5244 18.5591 34.5653 18.8263 34.6845 19.0617C36.2106 22.7907 37.7088 26.5329 39.179 30.2882C39.2299 30.5164 39.3648 30.7172 39.5571 30.8511C39.7495 30.9851 39.9853 31.0423 40.2179 31.0115C42.9061 30.9823 45.5972 30.9823 48.2913 31.0115C48.5235 31.0485 48.7613 30.9981 48.9582 30.87C49.1552 30.742 49.2972 30.5455 49.3566 30.3189C50.8239 26.5402 52.3309 22.7703 53.8775 19.0091C53.9862 18.785 54.0217 18.5326 53.9791 18.2873C53.9365 18.042 53.8178 17.8162 53.6398 17.6414C51.0191 14.4063 48.416 11.1595 45.8305 7.90103C44.7344 6.51581 44.3206 4.97278 44.9193 3.24563C46.1651 -0.322638 50.4263 -1.13799 52.8958 1.75081C55.4446 4.73168 57.9406 7.75637 60.4586 10.7592C61.5459 12.0523 62.6596 13.3411 63.7117 14.643C64.47 15.4939 64.965 16.5451 65.1368 17.6699C65.3086 18.7946 65.15 19.9448 64.6801 20.9818C62.3074 26.8997 59.8379 32.7869 57.584 38.7442C56.9325 40.4626 56.7873 42.3738 56.4483 44.2062C55.854 47.4588 55.3082 50.7246 54.6875 53.9729C54.6227 54.199 54.6304 54.4395 54.7093 54.661C54.7881 54.8826 54.9344 55.0741 55.1277 55.2091C56.8885 56.6995 58.5965 58.2163 60.3177 59.7286C60.9384 60.2722 61.2774 60.9253 60.8195 61.7188C60.3265 62.5955 59.3404 62.6875 58.4997 61.9511C56.8885 60.5396 55.2935 59.1091 53.7146 57.6595C53.4943 57.4399 53.2309 57.2677 52.9408 57.1539C52.6507 57.04 52.3402 56.9868 52.0286 56.9976C46.7462 57.0283 41.4417 56.9976 36.1504 57.0283C35.6145 57.0318 35.0857 57.1515 34.6009 57.379C30.6391 59.299 26.6772 61.2541 22.7374 63.2004C20.8665 64.121 20.215 65.4668 20.6596 67.4788C21.9479 73.2915 23.2392 79.1027 24.5334 84.9125C24.8327 86.2539 25.5107 86.8808 26.5495 86.7931C27.5884 86.7054 28.3104 85.8374 28.3104 84.461C28.3104 79.7048 28.3104 74.9485 28.3104 70.1879C28.2675 69.7695 28.3731 69.3494 28.6086 69.0003C28.8442 68.6513 29.195 68.3952 29.6002 68.2767C34.1783 66.4765 38.7462 64.6543 43.3038 62.8103C43.6635 62.6575 44.058 62.6045 44.4456 62.6569C44.8331 62.7094 45.1991 62.8654 45.5048 63.1084C55.7205 69.7043 65.9435 76.2928 76.1739 82.8741L81.65 86.4073C82.5305 86.9772 83.3801 86.8457 83.9523 86.0654C84.3925 85.4605 84.2473 84.8774 83.4065 84.1366L70.4292 72.7085C70.1458 72.484 69.8876 72.2297 69.6589 71.9501C69.5441 71.8186 69.4567 71.6656 69.4019 71.5001C69.347 71.3346 69.3257 71.1599 69.3392 70.9862C69.3527 70.8124 69.4008 70.6431 69.4806 70.488C69.5604 70.3329 69.6704 70.1951 69.8041 70.0827C69.9139 69.9459 70.0517 69.8339 70.2082 69.7541C70.3647 69.6743 70.5365 69.6286 70.7121 69.6199C70.8878 69.6112 71.0633 69.6397 71.227 69.7036C71.3907 69.7676 71.5389 69.8654 71.6618 69.9907C72.6743 70.8674 73.6647 71.7441 74.6596 72.6208C78.0844 75.6324 81.474 78.6746 84.9384 81.6379C86.5055 83.01 87.4916 84.5136 86.8137 86.8238Z" fill="#333333"/>
<path d="M50.1404 21.3939C50.1168 22.264 50.0418 23.132 49.9159 23.9934C49.638 25.3337 48.889 26.5314 47.8034 27.3708C46.7179 28.2102 45.3672 28.6362 43.9943 28.5723C42.6214 28.5083 41.3165 27.9586 40.3144 27.0219C39.3123 26.0853 38.6787 24.8233 38.5278 23.4629C38.3667 21.8759 38.4066 20.275 38.6466 18.6979C39.1572 15.7215 41.8997 13.876 44.9944 14.1784C46.3681 14.3548 47.6331 15.0148 48.5607 16.0391C49.4884 17.0634 50.0175 18.3843 50.0523 19.7632C50.0523 20.3067 50.0523 20.8503 50.0523 21.3895L50.1404 21.3939ZM47.169 21.3237C47.169 20.8108 47.191 20.298 47.169 19.7895C47.1282 19.0531 46.8057 18.3603 46.2678 17.8534C45.7299 17.3465 45.0174 17.064 44.2768 17.064C43.5363 17.064 42.8238 17.3465 42.2859 17.8534C41.748 18.3603 41.4255 19.0531 41.3847 19.7895C41.3451 20.8415 41.3407 21.898 41.3847 22.9457C41.4138 23.6895 41.7311 24.3932 42.2699 24.9092C42.8086 25.4252 43.5271 25.7134 44.2746 25.7134C45.0221 25.7134 45.7406 25.4252 46.2794 24.9092C46.8182 24.3932 47.1354 23.6895 47.1646 22.9457C47.1954 22.4065 47.169 21.8629 47.169 21.3237Z" fill="#333333"/>
<path d="M7.24661 86.8193H12.7712C13.9289 86.8193 14.532 87.3541 14.5056 88.3054C14.4792 89.2566 13.9025 89.7038 12.78 89.7081H1.73524C0.577501 89.7081 -0.0255805 89.1777 0.000831849 88.2221C0.0272442 87.2665 0.599511 86.8281 1.72644 86.8237C3.5665 86.815 5.40655 86.8193 7.24661 86.8193Z" fill="#333333"/>
<path d="M63.8482 63.4591C64.247 63.6425 64.6324 63.8534 65.0016 64.0903C65.8248 64.7435 66.6303 65.4274 67.4271 66.1156C68.2239 66.8038 68.3648 67.6192 67.8409 68.2416C67.3171 68.8641 66.3574 68.943 65.5871 68.3162C64.6918 67.6485 63.8472 66.9159 63.0603 66.1244C62.8825 65.9033 62.7544 65.647 62.6845 65.3725C62.6147 65.098 62.6047 64.8118 62.6553 64.5331C62.7697 64.121 63.408 63.8317 63.8482 63.4591Z" fill="#333333"/>
</svg>
