<svg width="76" height="90" viewBox="0 0 76 90" fill="none" xmlns="http://www.w3.org/2000/svg">
<path d="M0.9262 90C0.265026 89.6076 -0.182867 89.0786 0.0730719 88.2937C0.32901 87.5089 1.02004 87.3766 1.77933 87.3809C10.012 87.3809 18.2447 87.3809 26.4774 87.3809H27.5438V71.7345C26.6608 71.7345 25.8375 71.7345 24.9844 71.7345C22.8516 71.7345 20.6889 71.871 18.586 71.6492C14.1284 71.1842 11.0955 67.5201 10.9846 62.8876C10.8609 57.9096 11.8718 53.1193 13.1174 48.3417C14.9644 41.2096 16.7176 34.0476 18.5433 26.9069C18.7182 26.2244 19.2002 25.6272 19.4263 24.9532C19.6364 24.2663 19.7792 23.5606 19.8529 22.846C19.8529 22.7052 19.5543 22.445 19.3452 22.3725C15.8261 21.1184 14.3416 19.0496 14.3544 15.3171C14.3544 13.1843 14.2947 11.0515 14.4483 8.91867C14.6487 6.54492 15.7163 4.32811 17.4473 2.69151C19.1783 1.05492 21.4515 0.113188 23.8327 0.0461374C28.3116 -0.0349098 32.7905 0.00774662 37.278 0.0461374C39.0098 0.0461374 39.9995 1.50499 39.381 3.13873C38.8307 4.58478 38.0415 5.95832 37.632 7.44276C37.133 9.25566 36.8088 11.1496 38.1951 12.8303C38.771 13.5298 39.2829 14.2849 39.7947 15.0356C40.81 16.5286 40.0421 18.1666 38.242 18.205C37.4102 18.205 37.1458 18.4993 36.8898 19.2543C35.9045 22.0654 33.938 23.9508 30.999 24.5693C29.8771 24.8082 29.4761 25.2945 29.442 26.5315C30.2122 26.7602 31.0019 26.9173 31.8009 27.0007C34.612 27.0604 37.4273 27.0349 40.2383 27.0007C40.6038 26.9828 40.9687 27.0449 41.3076 27.1827C41.6465 27.3205 41.9513 27.5306 42.2006 27.7984C42.4215 28.0107 42.7133 28.1338 43.0196 28.1439C46.3894 28.1695 49.755 28.1738 53.1249 28.1439C53.5182 28.1181 53.8906 27.9568 54.1785 27.6875C55.2662 26.6637 56.3113 25.5845 57.3649 24.5352C58.5977 23.3067 60.0054 22.9398 61.3448 23.5541C62.8164 24.2366 63.4477 25.431 63.324 27.0391C63.3264 27.1226 63.3378 27.2055 63.3581 27.2865C66.0242 28.1397 66.8005 29.2658 66.8389 32.1366C66.8793 32.7065 67.0044 33.2671 67.21 33.8002C67.8689 35.6939 67.8689 37.7546 67.21 39.6484C66.6555 41.1883 65.3118 41.9177 63.6823 41.9603C61.9761 42.003 60.2698 41.9859 58.5636 41.9603C58.1246 41.9712 57.6883 41.8883 57.2839 41.7172C56.1364 41.1413 54.9292 41.1072 53.6922 41.1115C50.0621 41.1115 46.4406 41.1115 42.8361 41.1115C42.7679 41.2096 42.7124 41.2522 42.7082 41.2992C42.4906 43.513 41.855 44.0718 39.6369 44.0718C38.289 44.0718 36.941 44.0505 35.5931 44.0718C35.3499 44.0718 34.9447 44.2936 34.8978 44.4984C34.0148 48.1029 33.1915 51.7201 32.3384 55.3374C32.3433 55.4021 32.3533 55.4662 32.3683 55.5293C32.6498 55.5293 32.9569 55.5677 33.264 55.5677C35.6101 55.5677 37.9562 55.5677 40.2981 55.5677C43.284 55.5677 45.1268 57.3977 45.1396 60.3794C45.1396 62.7212 45.1822 65.0716 45.114 67.4092C45.0947 67.974 44.8542 68.5087 44.4443 68.8979C43.5912 69.5548 42.529 68.8339 42.5162 67.6523C42.4906 65.3361 42.5162 63.0198 42.5162 60.7078C42.5162 58.6689 41.71 57.9864 39.5303 58.302V59.2191C39.5303 62.3544 39.4663 65.4896 39.5516 68.6035C39.607 70.6425 38.7368 71.8796 36.54 71.6791C36.3396 71.6577 36.1391 71.6791 35.8661 71.6791V76.1964H42.4992C42.4992 75.5608 42.4992 74.9167 42.4992 74.2982C42.4992 73.2232 42.9471 72.6687 43.7789 72.6559C44.6106 72.6431 45.1268 73.2403 45.1311 74.3366C45.1311 76.3841 45.1311 78.4358 45.1311 80.4876C45.1311 80.6582 45.1566 80.8331 45.178 81.0592C45.9292 81.1179 46.6607 81.3285 47.3281 81.6783C47.9955 82.028 48.585 82.5096 49.0608 83.0939C49.5366 83.6782 49.8889 84.353 50.0962 85.0774C50.3035 85.8019 50.3615 86.5608 50.2669 87.3084H73.954C75.1526 87.3084 75.865 87.9696 75.5835 88.8995C75.4598 89.2962 75.0247 89.5948 74.7304 89.9403L0.9262 90ZM13.6293 58.2423C13.6293 59.7779 13.6293 61.2069 13.6293 62.6316C13.6293 66.6371 16.0906 69.0941 20.0917 69.0984C25.3925 69.0984 30.6961 69.0984 36.0026 69.0984C36.2841 69.0984 36.5699 69.0728 36.8557 69.06V58.2679H35.8447C32.9441 58.2679 30.0435 58.2679 27.1428 58.2679C26.1617 58.2679 25.6157 57.7603 25.6243 56.9541C25.6328 56.1479 26.1831 55.6744 27.1642 55.6403C27.7197 55.6083 28.2765 55.6083 28.832 55.6403C29.3866 55.6872 29.5998 55.4483 29.715 54.9407C30.1757 52.9145 30.6663 50.8969 31.144 48.8792C31.5109 47.3265 31.882 45.7738 32.2744 44.123C30.7388 44.123 29.3354 44.1486 27.9362 44.123C26.2393 44.1445 24.6033 43.491 23.3881 42.3063C22.173 41.1215 21.4782 39.5026 21.4567 37.8056C21.4352 36.1086 22.0887 34.4726 23.2735 33.2575C24.4582 32.0423 26.0772 31.3476 27.7742 31.3261C29.1008 31.292 30.4274 31.3261 31.754 31.3261L31.8521 31.0446C31.2041 30.475 30.5028 29.9694 29.7577 29.5345C28.7229 29.0602 27.6461 28.6831 26.5414 28.4084C24.7711 27.9477 22.9796 27.5766 21.1411 27.1586C18.7566 36.6837 16.402 46.0809 14.0175 55.6104H15.2076C17.0247 55.6104 18.8419 55.6104 20.6591 55.6104C20.8435 55.5921 21.0297 55.6141 21.2048 55.6749C21.3799 55.7357 21.5396 55.8337 21.6731 55.9623C21.8066 56.0909 21.9105 56.247 21.9777 56.4197C22.045 56.5924 22.0739 56.7776 22.0625 56.9626C22.0411 57.7134 21.5421 58.2039 20.6719 58.221C19.3922 58.2508 18.0911 58.221 16.8029 58.221L13.6293 58.2423ZM34.7869 9.08503H26.9466C25.2958 9.08503 25.2958 9.08503 24.9588 10.7316C24.6645 12.1478 24.3915 12.3781 22.9582 12.3866C21.3288 12.3866 21.1411 12.5786 21.1411 14.2038C21.1411 14.3787 21.1411 14.5579 21.1411 14.7327C21.1112 15.0116 21.1833 15.2918 21.3441 15.5216C21.5048 15.7513 21.7434 15.9151 22.0155 15.9826C22.971 16.3324 23.2952 16.8357 23.0094 17.8083C22.3568 20.0605 22.4336 22.3597 22.4805 24.7399L26.8357 25.7253C27.0839 24.964 27.289 24.1892 27.45 23.4048C27.5907 22.4536 28.013 22.155 29.0027 22.1635C31.835 22.1976 33.9892 20.5127 34.5224 17.8552C34.7869 16.5371 35.2859 15.5987 37.0007 15.5176C35.2561 13.6407 34.1342 11.7041 34.7869 9.08503ZM42.738 38.518H43.7234C46.8586 38.518 49.9896 38.518 53.1078 38.518C54.8397 38.518 56.5672 38.4582 58.1711 39.273C58.333 39.3408 58.5076 39.3729 58.683 39.3668C60.321 39.3668 61.9633 39.3924 63.6013 39.3668C63.7779 39.3758 63.9545 39.348 64.1199 39.2852C64.2852 39.2225 64.4358 39.1262 64.562 39.0023C64.6883 38.8784 64.7875 38.7298 64.8534 38.5656C64.9193 38.4015 64.9505 38.2255 64.945 38.0487C64.9834 37.2297 64.9876 36.4065 64.945 35.5917C64.898 34.7045 64.4331 34.312 63.516 34.2822C63.051 34.2822 62.5818 34.2822 62.1126 34.2822C61.3959 34.2822 60.7646 34.1627 60.4575 33.4291C60.1504 32.6954 60.5513 32.2048 61.0376 31.7228C61.413 31.3602 61.7756 30.9337 61.285 30.4431C60.7945 29.9526 60.3893 30.3066 60.0053 30.682C58.747 31.9617 57.5014 33.2414 56.2047 34.4571C55.8541 34.7932 55.4062 35.0098 54.925 35.0756C53.7556 35.1375 52.5837 35.1375 51.4143 35.0756C51.2389 35.0879 51.0628 35.0639 50.8971 35.0051C50.7313 34.9464 50.5795 34.8541 50.451 34.734C50.3225 34.6139 50.2201 34.4686 50.1503 34.3072C50.0805 34.1458 50.0446 33.9718 50.0451 33.7959C50.0451 33.0366 50.5228 32.5162 51.3802 32.4778C52.1404 32.4373 52.9022 32.4373 53.6623 32.4778C53.9349 32.4887 54.2065 32.4401 54.4584 32.3355C54.7103 32.2309 54.9365 32.0728 55.1212 31.8721C56.7635 30.409 57.9621 28.434 60.1163 27.5382C60.247 27.5006 60.3663 27.4309 60.4632 27.3354C60.5601 27.2398 60.6315 27.1216 60.6709 26.9914C60.7104 26.8612 60.7166 26.7231 60.689 26.5899C60.6614 26.4567 60.6009 26.3325 60.513 26.2286C60.0864 25.7168 59.6342 26.0196 59.2333 26.4078C58.0176 27.632 56.772 28.8307 55.5819 30.0805C55.3478 30.3396 55.0592 30.5436 54.7369 30.6778C54.4146 30.8121 54.0666 30.8732 53.7178 30.8569C50.3821 30.8313 47.0463 30.8569 43.7063 30.8569H42.7252V32.4821C43.4205 32.4821 44.0604 32.4821 44.7002 32.4821C45.8946 32.4821 46.4833 32.93 46.4662 33.8258C46.4662 34.6789 45.8647 35.1054 44.7344 35.1054C44.0689 35.1054 43.4077 35.1054 42.7082 35.1054L42.738 38.518ZM39.991 41.4783V33.9537C39.7819 33.9537 39.6369 33.9111 39.4919 33.9111C35.6869 33.9111 31.8806 33.9111 28.0728 33.9111C27.7501 33.9052 27.4278 33.9382 27.113 34.0092C26.214 34.2275 25.4265 34.7682 24.8999 35.5288C24.3734 36.2894 24.1444 37.2168 24.2565 38.1351C24.3686 39.0533 24.8139 39.8985 25.508 40.5101C26.202 41.1216 27.0965 41.4571 28.0216 41.4527C31.6815 41.4826 35.3457 41.4527 39.0056 41.4527L39.991 41.4783ZM36.6894 2.66098C32.219 2.66098 27.9149 2.5586 23.6194 2.69084C21.9468 2.77287 20.3609 3.45951 19.1565 4.62308C17.9521 5.78665 17.2113 7.34798 17.0717 9.01678C16.8925 11.461 16.9394 13.9265 16.9949 16.3835C17.0346 17.1789 17.3439 17.9371 17.8719 18.5333C18.3998 19.1295 19.115 19.5282 19.8998 19.6638C20.1898 18.8107 20.3946 18.0941 19.4732 17.3988C18.0826 16.358 18.0528 12.0027 19.5756 10.851C20.1216 10.4244 20.7614 9.95949 21.3928 9.8955C22.3525 9.80593 22.6341 9.35377 22.6724 8.53903C22.6724 8.394 22.7108 8.24897 22.7364 8.11247C23.018 6.7048 23.308 6.46166 24.7285 6.4574C27.9448 6.4574 31.1653 6.4574 34.3816 6.4574C34.5421 6.46271 34.7017 6.43259 34.8491 6.36918C34.9966 6.30578 35.1283 6.21064 35.2348 6.09055C35.7552 4.99428 36.1817 3.88095 36.6894 2.66098ZM47.6435 87.3254C47.78 84.9836 46.6965 83.7978 44.4869 83.7935C41.8877 83.7935 39.2886 83.7935 36.6894 83.7935C36.4121 83.7935 36.1348 83.8233 35.8917 83.8361V87.3254H47.6435ZM42.448 81.1061V78.9733H35.8789V81.1061H42.448ZM33.1105 76.2518V71.7985H30.2695V76.2518H33.1105ZM33.1105 87.3425V83.8617H30.2695V87.3254L33.1105 87.3425ZM34.0361 29.7307C34.5736 30.345 34.9404 31.1597 35.3883 31.2067C36.9201 31.3135 38.4568 31.3349 39.991 31.2706V29.7222L34.0361 29.7307ZM30.2781 78.9776V81.1573C31.1312 81.1573 31.9161 81.1786 32.6924 81.1573C32.7893 81.1355 32.8791 81.0896 32.9536 81.0241C33.0281 80.9585 33.085 80.8752 33.119 80.7819C33.1702 80.1933 33.1403 79.5961 33.1403 78.9946L30.2781 78.9776Z" fill="#333333"/>
<path d="M29.506 13.8198C29.506 13.4402 29.4804 13.0605 29.506 12.6852C29.5014 12.5231 29.5295 12.3617 29.5887 12.2107C29.6478 12.0597 29.7368 11.9222 29.8503 11.8063C29.9637 11.6905 30.0994 11.5987 30.2491 11.5364C30.3988 11.4741 30.5596 11.4427 30.7217 11.4439C30.8831 11.4178 31.0482 11.4262 31.2061 11.4685C31.3641 11.5107 31.5113 11.5858 31.6381 11.6889C31.765 11.792 31.8687 11.9208 31.9423 12.0667C32.0159 12.2127 32.0579 12.3726 32.0654 12.5359C32.1422 13.4357 32.1422 14.3404 32.0654 15.2403C32.0553 15.3963 32.0139 15.5487 31.9434 15.6883C31.873 15.8279 31.7751 15.9518 31.6556 16.0526C31.536 16.1534 31.3974 16.229 31.2479 16.2749C31.0984 16.3207 30.9412 16.3359 30.7857 16.3195C30.6225 16.3299 30.4588 16.307 30.3048 16.252C30.1507 16.1971 30.0095 16.1113 29.8897 15.9999C29.7699 15.8885 29.6741 15.7539 29.6081 15.6042C29.5422 15.4545 29.5074 15.2929 29.506 15.1294C29.4634 14.7028 29.506 14.2763 29.506 13.8198Z" fill="#333333"/>
</svg>
