<svg width="90" height="90" viewBox="0 0 90 90" fill="none" xmlns="http://www.w3.org/2000/svg">
<path d="M0.00852438 88.2417C0.388068 87.4144 1.03628 87.1671 1.92756 87.1713C5.49698 87.2055 9.06639 87.1713 12.8277 87.1713L12.1411 86.3824C7.74866 81.3375 9.42462 73.222 15.5528 70.5397C17.6211 69.6313 19.8941 69.1835 22.0818 68.5353C24.9646 67.6824 27.8517 66.8295 30.7516 66.0107C30.8711 65.999 30.9869 65.9621 31.0912 65.9025C31.1955 65.8429 31.2861 65.7619 31.357 65.6649C31.4278 65.5679 31.4774 65.457 31.5024 65.3394C31.5274 65.2219 31.5273 65.1004 31.5021 64.983C31.4467 63.7036 31.5021 62.4242 31.5021 61.0169C31.1396 61.0169 30.8326 60.9743 30.5255 60.9743C27.5404 60.9743 24.5552 60.9743 21.57 60.9743C18.7 60.9743 16.5293 59.7205 15.267 57.1362C14.0047 54.5519 14.3374 52.07 16.1199 49.8183C19.8599 45.1273 23.5189 40.3638 27.4252 35.8136C28.5041 34.5555 30.2398 33.7154 31.8305 33.0757C33.8689 32.2612 36.0609 31.839 38.061 31.2846C37.2976 29.6257 36.385 27.7834 35.5918 25.8942C34.5449 23.3753 33.9835 20.6812 33.9372 17.9537C33.8519 14.3587 35.3274 11.5569 38.1761 9.44594C38.3742 9.33216 38.5357 9.16413 38.6414 8.96164C38.7472 8.75915 38.7929 8.53064 38.7731 8.30305C38.7369 7.59987 38.7369 6.89528 38.7731 6.1921C38.7706 4.80308 39.2358 3.45366 40.0937 2.36129C40.9517 1.26892 42.1524 0.497235 43.5025 0.170579C43.6487 0.120505 43.7924 0.0635845 43.9332 0H46.0655C46.6204 0.172472 47.1656 0.374624 47.6988 0.60557C50.2916 1.91052 51.4004 4.12807 51.2597 6.93414C51.1924 7.56481 51.294 8.20202 51.554 8.78052C51.814 9.35901 52.2232 9.858 52.7395 10.2264C55.6735 12.6657 56.424 15.9792 56.0104 19.668C55.5285 23.9326 53.9037 27.7706 51.7459 31.4765C52.7949 31.6471 53.8781 31.7793 54.9144 31.9925C57.2003 32.4002 59.3666 33.3121 61.2558 34.6621C62.3773 35.5868 63.3799 36.6468 64.2409 37.8179C64.7186 38.4107 64.5096 39.1271 63.8955 39.6047C63.6489 39.8226 63.3279 39.937 62.9991 39.9243C62.6703 39.9116 62.359 39.7727 62.13 39.5365C61.9948 39.424 61.8757 39.2934 61.776 39.1484C59.8357 36.2656 56.8889 34.9905 53.6734 34.692C49.6307 34.321 45.5708 34.402 41.4854 34.2996C38.7774 34.2357 36.095 34.3849 33.532 35.3786C31.4104 36.0998 29.5428 37.4194 28.1544 39.1783C25.0158 43.3021 21.7278 47.3107 18.4697 51.3407C17.3311 52.7438 16.9473 54.2406 17.7319 55.8995C18.5166 57.5584 19.941 58.1896 21.7449 58.1853C28.4188 58.164 35.0971 58.1853 41.7882 58.1853C43.4641 58.1853 43.5878 58.0531 43.5921 56.3729C43.5921 52.5661 43.5921 48.7578 43.5921 44.9482C43.5921 44.7776 43.5921 44.6113 43.5665 44.4407L43.3319 44.2957C42.8548 44.8746 42.4269 45.4922 42.0526 46.1423C41.1741 47.9334 40.9097 49.878 40.8158 51.8482C40.7434 53.3024 40.3467 53.7246 38.8925 53.7289C35.0886 53.7289 31.2804 53.7289 27.4721 53.7289C26.7642 53.7289 26.099 53.6606 25.7663 52.9229C25.4337 52.1851 25.7407 51.6435 26.1928 51.0806C28.2852 48.4423 30.3635 45.7926 32.4275 43.1315C32.9051 42.5174 33.4467 42.1549 34.2357 42.398C34.4451 42.4675 34.6345 42.5867 34.7878 42.7454C34.941 42.9042 35.0534 43.0977 35.1155 43.3094C35.1775 43.5211 35.1873 43.7448 35.144 43.9611C35.1007 44.1775 35.0056 44.3801 34.8668 44.5516C34.3295 45.3192 33.7111 46.0229 33.161 46.7819C32.9827 47.0006 32.8889 47.276 32.8966 47.5581C33.1013 48.6754 33.3785 49.7756 33.6386 50.9271C34.9692 50.9271 36.2571 50.9271 37.5407 50.9271C38.1249 50.9271 38.0524 50.5006 38.142 50.1594C38.5684 48.4323 38.82 46.6327 39.4981 45.0079C40.7775 41.9502 43.0888 40.786 46.2531 41.2807C46.9778 41.4045 47.668 41.6806 48.2782 42.0908C48.8883 42.501 49.4045 43.0359 49.7927 43.6603C51.1062 45.5708 51.6435 47.75 51.8652 50.0145C51.9335 50.7181 52.151 50.974 52.8759 50.9356C54.0402 50.8802 55.2087 50.9356 56.3899 50.9356C56.6543 49.7842 56.9315 48.7095 57.1277 47.6221C57.1412 47.3136 57.0428 47.0107 56.8505 46.7691C56.343 46.057 55.763 45.3917 55.2428 44.6838C54.6671 43.9034 54.7566 43.0974 55.4347 42.5942C55.5897 42.4822 55.7659 42.4027 55.9525 42.3607C56.1391 42.3186 56.3323 42.3148 56.5204 42.3495C56.7085 42.3842 56.8877 42.4566 57.047 42.5624C57.2064 42.6682 57.3426 42.8052 57.4475 42.9652C59.6694 45.7627 61.8912 48.5602 64.0448 51.409C64.1811 51.6356 64.2659 51.8895 64.2931 52.1526C64.3204 52.4157 64.2895 52.6816 64.2026 52.9314C64.0703 53.1454 63.8901 53.3257 63.6762 53.4581C63.4623 53.5906 63.2206 53.6716 62.9701 53.6947C58.9017 53.7502 54.8291 53.7417 50.7565 53.7203C49.7543 53.7203 49.3577 53.1787 49.217 52.1766C48.9696 50.4153 48.7095 48.6498 48.3001 46.9227C48.1909 46.3886 47.972 45.8831 47.657 45.4382C47.3421 44.9933 46.938 44.6188 46.4706 44.3384C46.4706 44.5772 46.4237 44.735 46.4237 44.8927C46.4237 48.8204 46.4237 52.7438 46.4237 56.6714C46.4237 57.9508 46.6412 58.181 47.9035 58.1853C54.8405 58.1853 61.7817 58.1853 68.7272 58.1853C69.4671 58.2101 70.1975 58.013 70.8245 57.6194C71.4515 57.2257 71.9464 56.6535 72.2455 55.9763C72.5965 55.3091 72.7432 54.5533 72.6673 53.8032C72.5915 53.0532 72.2965 52.3421 71.819 51.7586C71.0215 50.7096 70.1729 49.6989 69.3584 48.6626C68.6846 47.8097 68.6931 46.9568 69.3584 46.4152C70.0236 45.8736 70.8296 46.0271 71.5461 46.9099C72.399 47.9589 73.2519 48.9995 74.0579 50.0784C74.8582 51.0654 75.3508 52.2659 75.4744 53.5306C75.598 54.7953 75.3471 56.0684 74.753 57.1917C73.5547 59.6821 71.4693 60.9615 68.7102 60.9999C65.371 61.0425 62.0319 60.9999 58.5307 60.9999C58.5307 62.5479 58.5307 64.0576 58.5648 65.5629C58.5648 65.7293 59.0169 65.9467 59.2941 66.0278C63.8913 67.3896 68.4927 68.7386 73.0984 70.0748C80.1434 72.1303 82.685 80.9281 77.8277 86.4464C77.6572 86.6425 77.478 86.8387 77.1966 87.15C77.5761 87.1713 77.8405 87.1969 78.1092 87.1969H88.3014C89.2951 87.1969 89.9134 87.7044 89.9689 88.5147C89.9849 88.869 89.8677 89.2164 89.6404 89.4887C89.4131 89.761 89.0921 89.9384 88.7407 89.9859C88.4467 90.006 88.1517 90.0046 87.8579 89.9817C59.2685 89.9817 30.6805 89.9817 2.09389 89.9817C1.17275 89.9817 0.388073 89.8495 0 88.9155L0.00852438 88.2417ZM55.7161 60.9828C53.6692 60.9828 51.7117 60.9828 49.7458 60.9828C48.1253 60.9828 46.4493 61.2302 44.9951 60.1939C43.5409 61.2131 41.8692 60.9743 40.2444 60.9828C38.5386 60.9828 36.7901 60.9828 35.063 60.9828C34.8071 60.9828 34.5555 61.0169 34.321 61.0297V65.4137H35.3487C39.4484 65.4137 43.548 65.4137 47.6476 65.4137C48.0268 65.3971 48.4062 65.4374 48.7735 65.5331C49.0913 65.6132 49.3663 65.8123 49.5417 66.0892C49.717 66.3661 49.7794 66.6998 49.7159 67.0214C49.6922 67.3334 49.5551 67.6259 49.3303 67.8435C49.1056 68.0612 48.8089 68.189 48.4963 68.2027C48.2037 68.2198 47.9104 68.2198 47.6178 68.2027C43.0505 68.2027 38.4832 68.2027 33.9116 68.2027C33.417 68.2008 32.9246 68.2682 32.4488 68.4031C28.5169 69.5403 24.5879 70.6889 20.6617 71.8489C19.233 72.2753 17.7447 72.5738 16.3971 73.205C13.6891 74.4844 12.1326 77.6273 12.5036 80.5698C12.9301 83.7171 15.2031 86.3909 18.2522 86.8984C20.1627 87.214 22.1372 87.1202 24.2012 87.2182C24.2012 85.2054 24.1543 83.3802 24.2226 81.5336C24.2524 80.7191 23.9965 80.3694 23.2076 80.2543C22.8651 80.2477 22.5358 80.1212 22.2771 79.8967C22.0184 79.6723 21.8466 79.3642 21.7918 79.0261C21.6041 77.9301 22.5679 77.2094 23.8217 77.5207C27.5958 78.4546 31.3912 79.3289 35.1312 80.3865C36.7134 80.8129 38.0652 80.9238 39.2977 79.7041C39.4805 79.5563 39.6828 79.4343 39.899 79.3416C41.2375 78.6116 42.8022 78.4134 44.2805 78.7865C45.7588 79.1597 47.0419 80.0767 47.8736 81.3545C47.9748 81.5724 48.1578 81.7416 48.3829 81.8255C48.6081 81.9093 48.8572 81.901 49.0762 81.8023C52.4196 80.9494 55.7673 80.0965 59.115 79.2692C61.4946 78.6721 63.8784 78.0666 66.2623 77.4866C67.2048 77.2606 67.9426 77.6742 68.143 78.4632C68.3434 79.2521 67.87 79.9557 66.9574 80.2201C66.5736 80.331 66.1856 80.4206 65.8274 80.5101V86.9624C67.7379 86.9624 69.5972 87.15 71.4096 86.924C74.7317 86.4975 77.3075 83.5124 77.4823 80.1519C77.5972 78.4887 77.1353 76.8366 76.1744 75.4742C75.2135 74.1117 73.8124 73.122 72.2071 72.6719C67.2631 71.2504 62.3262 69.8019 57.3964 68.3264C55.7844 67.8487 55.6905 67.6952 55.6905 66.0534L55.7161 60.9828ZM37.0332 20.7427C37.0586 21.0898 37.1157 21.4338 37.2038 21.7704C38.0183 23.9539 38.7646 26.1714 39.7028 28.3037C40.6794 30.5213 42.5984 31.4424 44.9396 31.4595C47.2809 31.4765 49.2298 30.5597 50.2959 28.3336C50.991 26.8879 51.6179 25.4038 52.1723 23.8985C52.9119 21.956 53.278 19.8913 53.2512 17.813C53.0039 17.7277 52.8248 17.6509 52.6243 17.5997C51.7066 17.3412 50.7443 17.2812 49.8016 17.4239C48.8588 17.5665 47.9574 17.9085 47.1572 18.427C45.9376 19.1733 44.7136 19.9239 43.4385 20.5593C41.3958 21.5999 39.2678 21.489 37.0332 20.7512V20.7427ZM32.3934 86.9538L32.483 87.1202H62.9104V81.3289C62.5948 81.3972 62.339 81.4483 62.0873 81.508L48.3044 84.9197C46.88 85.2736 46.4663 85.0647 45.9461 83.7384C45.0932 81.6061 42.995 80.8811 40.995 82.007C38.5002 83.41 35.9927 84.7832 33.4937 86.182C33.1098 86.4165 32.7601 86.7022 32.3934 86.9538ZM52.7182 14.7553C52.441 14.2691 52.2917 13.9664 52.1083 13.6892C50.1125 10.6699 45.9205 9.30095 42.2146 10.5249C39.3105 11.4844 37.3999 13.4077 36.7816 16.4952C36.6409 17.2159 36.7816 17.6339 37.562 17.9537C39.9416 18.9516 42.0568 18.474 44.0825 17.0539C46.6113 15.2798 49.298 14.0218 52.7182 14.7553ZM48.4067 7.75292C48.556 5.95755 48.4323 4.36689 46.8075 3.33487C46.2367 2.97336 45.5703 2.79184 44.895 2.81389C44.2197 2.83595 43.5666 3.06055 43.0206 3.45853C41.5152 4.51614 41.4513 6.05137 41.6048 7.75719C43.8283 7.12879 46.1824 7.12731 48.4067 7.75292ZM33.6514 82.9367L27.084 81.3033V87.1756C27.5015 87.1477 27.9204 87.1477 28.3378 87.1756C29.0031 87.2694 29.3187 87.0093 29.5404 86.3781C29.9669 85.2224 30.8198 84.4591 31.8816 83.8663C32.3849 83.5849 32.9009 83.3333 33.6514 82.9367Z" fill="#333333"/>
<path d="M66.7614 44.5601C66.3378 44.5191 65.9435 44.3257 65.6517 44.0159C65.3599 43.7061 65.1905 43.3009 65.175 42.8756C65.1738 42.6924 65.2093 42.5108 65.2794 42.3415C65.3495 42.1722 65.4528 42.0187 65.5831 41.8899C65.7135 41.7612 65.8682 41.6598 66.0384 41.5918C66.2085 41.5238 66.3905 41.4905 66.5737 41.4939C66.9945 41.546 67.3843 41.7423 67.6766 42.0494C67.969 42.3566 68.1459 42.7555 68.1772 43.1784C68.1683 43.5479 68.0152 43.8994 67.7506 44.1575C67.4861 44.4157 67.131 44.5602 66.7614 44.5601Z" fill="#333333"/>
</svg>
