<svg width="71" height="90" viewBox="0 0 71 90" fill="none" xmlns="http://www.w3.org/2000/svg">
<path d="M57.689 0C59.0199 0.541732 60.0735 1.34365 60.355 2.86647C60.4469 3.34247 60.439 3.83238 60.3317 4.30515C60.2245 4.77793 60.0202 5.22326 59.7319 5.613C59.4436 6.00275 59.0775 6.3284 58.6569 6.56933C58.2362 6.81026 57.7701 6.96122 57.288 7.01266C55.2533 7.22167 53.2058 7.37949 51.1626 7.53732C50.1602 7.6141 49.5118 7.11076 49.4564 6.31309C49.4009 5.51542 49.9896 4.99502 51.0133 4.90545C52.9072 4.74335 54.8012 4.56419 56.6994 4.41916C57.3051 4.37224 57.7743 4.16322 57.7615 3.51058C57.7487 2.85795 57.2326 2.63187 56.597 2.63187C51.1199 2.63187 45.6386 2.57642 40.1659 2.68733C38.9124 2.74392 37.6908 3.10088 36.6041 3.72813C32.6371 5.98464 28.7596 8.39472 24.8353 10.728C24.6421 10.8206 24.4815 10.9697 24.3748 11.1555C24.2682 11.3414 24.2205 11.5553 24.2381 11.7688C24.2381 14.4817 24.3703 14.6481 27.1046 14.6481H30.7602C30.8102 13.7899 30.9099 12.9354 31.0588 12.0887C31.3992 10.6047 32.2261 9.27708 33.4079 8.3171C34.5897 7.35711 36.0586 6.81986 37.5809 6.79084C39.991 6.6617 42.395 7.13985 44.5723 8.18143C48.6928 10.2161 50.6593 13.6755 50.7659 18.1374C50.8597 22.0702 51.9688 25.5467 54.4002 28.635C54.5397 28.8425 54.6295 29.0793 54.6628 29.3271C54.6961 29.5749 54.6719 29.827 54.5922 30.064C54.4504 30.2681 54.2652 30.4382 54.0498 30.5621C53.8344 30.6861 53.5943 30.7607 53.3466 30.7806C52.0328 30.8574 50.7104 30.7806 49.3924 30.7508C49.3017 30.7337 49.2086 30.735 49.1185 30.7547C49.0284 30.7744 48.9432 30.812 48.8679 30.8654C48.7927 30.9187 48.729 30.9867 48.6806 31.0652C48.6321 31.1437 48.6 31.2312 48.5862 31.3223C48.3089 32.248 48.0231 33.1693 47.6861 34.0737C47.3236 35.059 46.4448 35.3533 45.5533 34.7434C42.336 32.6098 39.7844 29.6133 38.1909 26.097C38.1909 26.0714 38.1696 26.0458 38.1568 26.0159C37.7899 25.1244 38.0075 24.4163 38.754 24.0921C39.5004 23.7679 40.072 24.0921 40.5498 24.8813C41.4029 26.3316 42.2859 27.7904 43.2584 29.1725C43.9369 30.0479 44.6632 30.8852 45.4339 31.6807L45.741 31.4887C45.9842 30.7465 46.2444 30.0085 46.4704 29.262C46.5411 28.8984 46.7475 28.5752 47.0478 28.3582C47.348 28.1411 47.7196 28.0464 48.0871 28.0933C48.9402 28.1274 49.7933 28.0933 50.7062 28.0933C50.6454 27.9102 50.5742 27.7307 50.4929 27.5558C48.9618 24.807 48.1531 21.7147 48.1426 18.5682C48.1426 15.9491 47.3492 13.6073 45.3187 11.8115C45.0372 11.5641 44.7215 11.3508 44.2523 10.9925C45.1438 13.9784 44.7813 16.5719 42.6229 18.6706C40.4645 20.7692 37.9307 21.1062 35.0088 20.1337C34.2964 22.9959 31.8096 23.3755 29.4635 23.9727C29.4379 24.2244 29.3995 24.4248 29.3995 24.6253C29.3995 27.1847 29.3782 29.7441 29.4208 32.2693C29.4365 32.4558 29.4913 32.637 29.5817 32.8009C29.6721 32.9648 29.7961 33.1078 29.9455 33.2205C32.9526 34.9965 35.2001 37.818 36.2586 41.146C36.384 41.502 36.5717 41.8328 36.8131 42.1229C47.6932 55.9576 58.5833 69.7853 69.4834 83.6059C70.4048 84.7704 71.0019 85.9648 70.5242 87.479C70.3462 88.0361 70.0345 88.5411 69.6162 88.9498C69.1979 89.3585 68.6858 89.6585 68.1247 89.8235C67.5637 89.9885 66.9707 90.0135 66.3978 89.8962C65.8248 89.779 65.2893 89.5232 64.8381 89.1511C64.5907 88.9464 64.3689 88.7246 64.1386 88.4857L27.7274 52.0873C26.6908 51.0508 26.5501 50.3811 27.224 49.7028C27.898 49.0246 28.6189 49.2507 29.6213 50.2531L57.0235 77.6596C57.2612 77.9324 57.4847 78.2171 57.6932 78.5127L60.3081 76.2264L54.3064 68.5995C47.706 60.2275 41.1114 51.8527 34.5225 43.475C34.1921 43.0334 33.9397 42.5386 33.776 42.0119C32.9454 39.2506 31.0854 36.914 28.5805 35.4856C28.2367 35.3059 27.8384 35.2603 27.4629 35.3576C25.2576 36.0486 23.0693 36.7866 20.8896 37.5459C20.5396 37.6792 20.2256 37.8925 19.9725 38.1686C15.4908 43.003 11.0176 47.8373 6.55291 52.6717C5.1026 54.25 4.81681 55.9903 5.74244 57.8544C8.44684 63.3229 11.1811 68.7616 13.9025 74.2215C13.9537 74.3239 14.022 74.4177 14.1414 74.6182L17.4046 72.8352C16.6112 70.7024 15.8349 68.6336 15.0585 66.5563C13.8983 63.4651 12.7395 60.3711 11.5821 57.2743C11.1171 56.0287 11.1555 55.8197 12.1835 54.9239C15.6642 51.8641 19.1464 48.8085 22.63 45.7572C22.8158 45.5702 23.0252 45.4082 23.2528 45.2751C23.5071 45.121 23.8081 45.063 24.1015 45.1115C24.3948 45.16 24.6612 45.3118 24.8524 45.5396C25.0644 45.7493 25.1913 46.0301 25.2086 46.3278C25.226 46.6255 25.1325 46.9191 24.9462 47.152C24.7493 47.4057 24.5198 47.6323 24.2637 47.826C21.0944 50.6071 17.9293 53.3968 14.7343 56.1482C14.5319 56.2841 14.3888 56.4921 14.3341 56.7298C14.2794 56.9675 14.3173 57.2171 14.44 57.4278C16.769 63.5788 19.0469 69.7512 21.4015 75.8979C22.1507 77.7259 22.2382 79.7581 21.6489 81.6437C21.1327 83.2859 20.6977 84.9581 20.2199 86.6174C19.5587 88.9037 18.0871 89.9957 15.7154 90C15.2163 90 14.7215 90 14.2225 90C13.1049 89.9701 12.5759 89.326 12.7636 88.2213C13.1475 85.9136 13.5656 83.6059 13.8983 81.2896C13.9726 80.7276 13.8838 80.1561 13.6423 79.6431C10.3237 72.9419 6.96241 66.2278 3.61391 59.5308C1.90766 56.1439 2.33422 53.367 4.89359 50.6029C9.19332 45.9619 13.4817 41.3081 17.7586 36.6416C18.0374 36.3005 18.1734 35.8649 18.1383 35.4258C17.7416 32.4399 17.2852 29.454 16.8245 26.3956C15.4382 26.2804 14.0817 26.1524 12.721 26.0458L3.41342 25.3292C1.37446 25.1713 -0.041718 23.6485 0.000938069 21.6949C0.0332343 20.7754 0.425656 19.9054 1.09356 19.2726C1.76147 18.6398 2.65134 18.2949 3.57125 18.3122C7.14583 18.2824 10.7204 18.3122 14.295 18.3122H15.4083C15.468 17.5572 15.4851 16.8363 15.596 16.1283C15.7247 15.1351 16.0782 14.1844 16.6296 13.3484C17.181 12.5124 17.9158 11.8131 18.7781 11.3039C24.3234 7.95109 29.8687 4.60686 35.414 1.34368C36.4975 0.708101 37.8027 0.443631 39.0056 0.00853954L57.689 0ZM11.693 20.9399C9.1336 20.9399 6.53584 20.9399 3.95942 20.9399C3.32384 20.9399 2.72239 21.0337 2.67974 21.793C2.63708 22.5523 3.20867 22.6461 3.81865 22.7058C7.41029 22.9745 10.9977 23.2774 14.5936 23.5333C16.2998 23.6528 18.0487 24.0281 19.6568 23.6912C23.6025 22.8722 27.48 21.729 31.3702 20.6583C31.5835 20.5947 31.7811 20.4869 31.9502 20.3421C32.1193 20.1973 32.2561 20.0186 32.3518 19.8175C32.4475 19.6165 32.4999 19.3977 32.5057 19.1751C32.5115 18.9525 32.4705 18.7312 32.3854 18.5255C32.3177 18.3142 32.2082 18.1186 32.0633 17.9504C31.9185 17.7823 31.7413 17.645 31.5423 17.5467C31.3433 17.4484 31.1266 17.3911 30.9051 17.3783C30.6835 17.3654 30.4616 17.3973 30.2526 17.4719C29.5232 17.6809 28.8066 17.9454 28.0857 18.1843C25.4197 19.0715 22.8134 20.2958 20.0791 20.7436C17.3449 21.1915 14.504 20.9015 11.693 20.9399ZM42.1025 13.6883C42.1025 12.5491 41.6508 11.4562 40.8464 10.6495C40.042 9.84267 38.9505 9.38772 37.8113 9.38433C37.2332 9.36764 36.6577 9.46727 36.1189 9.67728C35.5802 9.88729 35.089 10.2034 34.6748 10.6069C34.2605 11.0103 33.9315 11.4929 33.7074 12.026C33.4832 12.5591 33.3685 13.1317 33.3699 13.71C33.3713 14.2883 33.4889 14.8604 33.7157 15.3923C33.9425 15.9243 34.2739 16.4052 34.6901 16.8066C35.1064 17.208 35.599 17.5217 36.1388 17.7291C36.6787 17.9364 37.2546 18.0332 37.8326 18.0136C38.9715 18.0057 40.0607 17.5463 40.8612 16.7362C41.6617 15.9261 42.1081 14.8315 42.1025 13.6926V13.6883ZM20.736 34.7903C22.6598 34.1504 24.4557 33.5106 26.2813 32.9603C26.7676 32.811 26.806 32.5338 26.806 32.1072C26.806 29.8507 26.806 27.5985 26.806 25.3462C26.7914 25.1426 26.7629 24.9402 26.7207 24.7405L19.5417 26.6003L20.736 34.7903ZM15.6173 87.2572C16.7861 87.4023 17.3236 87.0909 17.6179 86.1012C18.1511 84.3139 18.6032 82.5011 19.1834 80.7266C19.8275 78.7687 19.1023 77.0923 18.3047 75.3348L15.404 76.9217C15.404 77.0454 15.3656 77.0752 15.3742 77.0965C15.4181 77.2361 15.4797 77.3694 15.5576 77.4932C16.8373 79.1995 16.8117 81.0763 16.3297 83.0599C15.9842 84.459 15.8391 85.8581 15.6088 87.2615L15.6173 87.2572ZM59.6938 80.2446C59.7836 80.376 59.8819 80.5014 59.9881 80.6199C62.0726 82.7158 64.1613 84.8059 66.2543 86.8904C66.6809 87.3169 67.1757 87.5771 67.7132 87.1122C68.2506 86.6472 68.1013 86.0884 67.6833 85.568C66.86 84.54 66.0538 83.5035 65.2391 82.4669L61.9375 78.2909L59.6938 80.2446ZM18.2364 18.3037C20.2498 18.4061 21.8878 17.3482 23.867 16.8747C23.145 16.4752 22.5487 15.8824 22.1448 15.1629C21.741 14.4433 21.5456 13.6255 21.5806 12.8011C18.9445 13.94 17.9165 15.642 18.2364 18.3037Z" fill="#333333"/>
</svg>
