<svg width="90" height="90" viewBox="0 0 90 90" fill="none" xmlns="http://www.w3.org/2000/svg">
<path d="M75.415 20.0185C76.2202 21.5523 76.5983 23.1432 75.6906 24.7401C75.22 25.569 74.5447 26.2798 73.8811 27.1402L74.3852 27.6443C75.7635 29.0225 77.1791 30.4028 78.5495 31.8086C81.9223 35.2838 80.6209 40.5743 76.0194 42.116C75.9722 42.1318 75.9249 42.1554 75.8324 42.1928C75.8569 42.3285 75.8938 42.4616 75.9426 42.5905C77.3563 45.5321 76.6101 48.5742 74.0111 50.4565C71.6503 52.1675 68.3523 51.8544 66.1215 49.6551C63.8119 47.3849 61.5418 45.0754 59.2519 42.7855L58.6868 42.2204L42.2362 58.6709L42.8269 59.2616C45.0971 61.5318 47.387 63.7863 49.6414 66.0762C52.6677 69.1733 52.014 73.9224 48.271 75.9327C46.5561 76.8601 44.7624 76.8739 42.9706 76.1139C42.7403 76.0134 42.5138 75.9012 42.2244 75.7614C41.8385 76.994 41.2754 78.0848 40.2909 78.9039C37.7057 81.0441 34.2856 80.9279 31.8461 78.5553C30.2493 77.0018 28.7115 75.4208 27.0655 73.7747C26.7248 74.1154 26.4078 74.4324 26.081 74.7592C24.0884 76.6809 21.3595 76.6888 19.3866 74.7592C18.0181 73.4262 16.6694 72.0696 15.3305 70.7032C13.3261 68.6634 13.3262 65.9423 15.3286 63.8887L16.2481 62.9692L14.606 61.327C13.5427 60.2638 12.4559 59.2203 11.4163 58.1373C8.13993 54.6799 9.46504 49.4169 13.9739 47.9126C14.0151 47.9016 14.0547 47.8858 14.0921 47.8654C13.8538 46.7923 13.4502 45.7507 13.4187 44.6835C13.3557 41.99 14.6788 40.0683 17.1144 38.9559C19.3354 37.9399 22.0013 38.4794 23.8817 40.3243C26.1932 42.5925 28.4615 44.9041 30.7513 47.1939L31.3558 47.7984L47.8103 31.3439L47.2393 30.7729C44.9494 28.483 42.6379 26.2148 40.3696 23.9033C37.3512 20.814 38.0364 16.057 41.7853 14.0644C42.595 13.623 43.4977 13.3793 44.4195 13.3533C45.3414 13.3273 46.2564 13.5197 47.0897 13.9148C47.32 14.0152 47.5465 14.1196 47.8221 14.2534C48.2888 12.5779 49.2063 11.2744 50.6988 10.4357C53.2387 9.0062 56.07 9.39605 58.2083 11.4831C59.6043 12.8437 60.9845 14.2593 62.3726 15.6475L62.9633 16.2381L63.7962 15.4053C65.5682 13.6332 67.5057 13.3615 69.7109 14.5232C69.8055 14.5654 69.9037 14.599 70.0043 14.6236L75.415 20.0185ZM34.6302 55.3926L23.6041 44.3665C22.9189 43.6813 22.2494 42.9646 21.5347 42.3247C21.1801 42.0005 20.7539 41.7646 20.2908 41.6366C19.8277 41.5085 19.3409 41.4917 18.8701 41.5877C18.3993 41.6837 17.9579 41.8898 17.5819 42.1889C17.206 42.4881 16.9061 42.872 16.7068 43.3092C16.1417 44.5398 16.4469 45.861 17.5732 46.9872C26.0633 55.4773 34.5534 63.9674 43.0435 72.4575C43.1872 72.6013 43.3329 72.7469 43.4904 72.8769C43.8574 73.1862 44.2925 73.4042 44.7599 73.513C45.2273 73.6219 45.7139 73.6186 46.1798 73.5034C46.6457 73.3882 47.0777 73.1643 47.4405 72.8501C47.8033 72.5359 48.0865 72.1402 48.2671 71.6955C48.8046 70.331 48.4246 69.1753 47.3968 68.1514C43.136 63.9038 38.8805 59.6508 34.6302 55.3926ZM59.748 30.3142C56.5032 27.0693 53.2584 23.8245 50.0136 20.5797C48.9129 19.479 47.8359 18.3548 46.7136 17.2797C46.3623 16.9436 45.936 16.696 45.47 16.5573C45.0041 16.4186 44.5118 16.3928 44.0338 16.4821C43.5559 16.5714 43.1061 16.7732 42.7217 17.0707C42.3372 17.3683 42.029 17.7531 41.8227 18.1933C41.2517 19.4022 41.5274 20.7451 42.6044 21.8221C51.147 30.3647 59.6909 38.9086 68.2362 47.4538C68.3607 47.5817 68.4922 47.7027 68.63 47.8161C69.0075 48.1197 69.4521 48.3287 69.9268 48.4257C70.4014 48.5227 70.8924 48.5048 71.3588 48.3736C71.8251 48.2424 72.2534 48.0017 72.6079 47.6715C72.9624 47.3413 73.2329 46.9312 73.3968 46.4753C73.8555 45.1581 73.4755 44.0338 72.5049 43.067C68.2506 38.8233 63.9983 34.5723 59.748 30.3142ZM28.1582 61.904L23.9407 57.6865C21.9226 55.6683 19.9241 53.6304 17.8843 51.63C17.5403 51.2765 17.1157 51.0118 16.6468 50.8587C16.178 50.7055 15.6789 50.6685 15.1926 50.7508C14.7063 50.8331 14.2473 51.0323 13.8549 51.3312C13.4626 51.6301 13.1487 52.0198 12.9402 52.4668C12.3673 53.6738 12.6449 55.0225 13.716 56.0975C20.4577 62.8392 27.1994 69.5809 33.941 76.3226C34.0637 76.4524 34.1953 76.5734 34.3348 76.6848C35.3646 77.4547 36.481 77.6063 37.6368 77.0294C39.5683 76.0666 39.8813 73.6271 38.2786 72.0125C34.9098 68.6397 31.531 65.2768 28.1602 61.9059L28.1582 61.904ZM66.218 23.8048L60.8625 18.4493C59.2223 16.8091 57.6019 15.1454 55.9401 13.5269C55.5913 13.1794 55.1638 12.9211 54.694 12.7738C54.2241 12.6266 53.7257 12.5949 53.241 12.6812C52.7562 12.7676 52.2995 12.9695 51.9094 13.27C51.5193 13.5704 51.2073 13.9604 51 14.407C50.4329 15.6396 50.7322 16.9548 51.8624 18.085C58.0094 24.2321 64.1565 30.3791 70.3036 36.5262C70.9336 37.1562 71.5538 37.8001 72.1957 38.4183C72.6537 38.8681 73.2424 39.1613 73.8774 39.2557C74.5124 39.3502 75.1609 39.2411 75.73 38.944C77.6182 37.9537 77.945 35.5476 76.3758 33.9666C73.0069 30.5741 69.6085 27.1953 66.22 23.8068L66.218 23.8048ZM50.0136 33.5905L33.626 49.978L40.0507 56.4027L56.4107 40.0427L54.2783 37.9104L47.1684 45.0202C47.0105 45.1868 46.8435 45.3445 46.6683 45.4928C46.3778 45.7543 45.9975 45.8934 45.6068 45.881C45.2161 45.8686 44.8453 45.7056 44.572 45.4262C44.2987 45.1468 44.1439 44.7725 44.1402 44.3816C44.1364 43.9908 44.2838 43.6136 44.5517 43.3289C44.7048 43.1581 44.8672 42.9957 45.038 42.8426L52.1479 35.7327L50.0136 33.5905ZM18.3883 65.1448C18.0103 65.5229 17.6716 65.83 17.3664 66.1667C16.7265 66.8893 16.7147 67.7242 17.394 68.4231C18.7762 69.8447 20.1787 71.2473 21.6016 72.6308C22.2081 73.2372 22.9799 73.3002 23.6139 72.8159C24.0467 72.4344 24.4551 72.026 24.8366 71.5931L18.3883 65.1448ZM71.6484 24.8602C72.0303 24.4782 72.3729 24.171 72.6761 23.8324C73.2944 23.1314 73.3298 22.3005 72.684 21.635C71.2651 20.1662 69.8264 18.7276 68.3681 17.3191C68.1314 17.0599 67.8056 16.8997 67.4559 16.8705C67.1061 16.8413 66.7582 16.9453 66.4818 17.1616C66.0243 17.5448 65.5971 17.9628 65.204 18.4119L71.6484 24.8602Z" fill="#333333"/>
<path d="M40.2241 49.7202C40.0196 49.4998 39.885 49.2236 39.8374 48.9267C39.7898 48.6298 39.8313 48.3254 39.9567 48.052C40.0821 47.7787 40.2858 47.5487 40.5419 47.3911C40.798 47.2336 41.0951 47.1555 41.3956 47.1668C41.6962 47.1781 41.9866 47.2782 42.2302 47.4546C42.4737 47.6309 42.6595 47.8756 42.7641 48.1575C42.8686 48.4395 42.8872 48.7462 42.8174 49.0387C42.7477 49.3312 42.5928 49.5965 42.3722 49.8009C42.0702 50.0612 41.6808 50.1976 41.2823 50.1826C40.8838 50.1676 40.5058 50.0024 40.2241 49.7202Z" fill="#333333"/>
</svg>
